<?xml version="1.0" encoding="utf-8"?>
<!-- Generator: Adobe Illustrator 23.0.0, SVG Export Plug-In . SVG Version: 6.00 Build 0)  -->
<svg version="1.1" id="Layer_1" xmlns="http://www.w3.org/2000/svg" xmlns:xlink="http://www.w3.org/1999/xlink" x="0px" y="0px"
	 viewBox="0 0 1366 500" style="enable-background:new 0 0 1366 500;" xml:space="preserve">
<style type="text/css">
	.st0{fill:url(#SVGID_1_);}
	.st1{fill:#FFFFFF;}
</style>
<g>
	<radialGradient id="SVGID_1_" cx="683" cy="250" r="1291.3406" fx="673.8266" fy="250.3324" gradientUnits="userSpaceOnUse">
		<stop  offset="8.647826e-02" style="stop-color:#FF632A"/>
		<stop  offset="0.2739" style="stop-color:#EC4E2F"/>
		<stop  offset="0.5346" style="stop-color:#D83735"/>
		<stop  offset="0.7819" style="stop-color:#CC2A39"/>
		<stop  offset="1" style="stop-color:#C8253A"/>
		<stop  offset="1" style="stop-color:#C3263B"/>
		<stop  offset="1" style="stop-color:#C1273C"/>
	</radialGradient>
	<rect class="st0" width="1366" height="500"/>
</g>
<g>
	<path class="st1" d="M406.4,275.5c0,5.1-1.6,9.5-4.7,13.3c-2.8,3.4-6.7,5.9-11.7,7.4v0.2c1.9,8.8,5.3,18.5,10.3,29
		c0.1,0.1-0.1,0.2-0.5,0.3h-0.2c-0.3,0-0.6,0-0.8,0h-0.1l-0.7,0.1v0.1l-0.4,0.5h-0.1c-0.2,0-0.4,0-0.5,0.1c-0.3,0.3-2.8,0.4-7.7,0.4
		c-6.8,0-10.5-0.3-11-0.8c-0.2-0.6-0.5-1.2-0.7-1.9c-0.8-1.3-2.1-5-3.8-11.1c-0.5-1.7-1-3.5-1.5-5.1l-1.6-5.2
		c-0.5-1.6-1-2.7-1.6-3.4c-0.6-0.6-1-0.9-1.4-0.9c-0.2,0.6-0.4,1.2-0.5,1.6l-0.2,0.5l-0.1,0.4v0.3l-0.2,0.5v0.4l-0.2,0.6
		c-0.4,1.8-0.7,3.5-1.1,5.2c-1.5,4.2-2.2,7.2-2.2,9.1c0,1.9-0.1,3-0.4,3.4c-0.1,0.1-0.1,0.2-0.2,0.3c-0.6,0-1.3,0-1.9,0.1h-0.3
		c0,0.4,0,0.9,0.1,1.6l-0.3,0.1c0.1,0.1,0.1,0.2,0.1,0.3v0.1h-0.1v0.1h-4.2c-0.6,0.3-1.3,0.7-1.9,1.2c0.1,0.2,0.1,0.4,0.1,0.5
		c0.1,0.6-0.1,0.8-0.4,0.8h-0.1h-6.5c-0.9,0.2-1.9,0.5-3.1,0.7c-0.1,0-0.2-0.7-0.3-2.2c-0.1-1.5-0.2-2.2-0.2-2.3
		c0,0-0.1-0.1-0.2-0.3c0-0.4,0-0.8-0.1-1.3c0.1-1,0.1-2.1,0-3.4c0.3-3.9,0.8-9.9,1.7-17.7l2.5-18c0-0.3,0.3-2.1,0.9-5.5l1.2-6
		c1.3-6.1,2-9.7,2-11.1c0-0.5,0.5-0.8,1.6-1.1c1.1-0.2,1.7-0.3,1.8-0.3c0.2,0,0.9-0.1,2.2-0.4v-0.2l0.5-0.5c-0.1-0.1,0-0.1,0.3-0.2
		h0.6c0.1-0.1,0.3-0.2,0.5-0.4c0.1,0,0.3,0,0.4-0.1c2-0.2,3.6-0.5,4.8-0.8c1-0.3,4.6-0.4,11-0.4c16.9,0,27.1,5.7,30.4,17.1
		C406.2,272.6,406.4,274,406.4,275.5z M373.3,270.2c-0.4,0-0.8,0-1.5,0c-0.4,0.1-1.2,3.7-2.3,10.6c-0.6,1.9-1,3.3-1,4.2
		c0,0.5,1,0.7,3,0.7c4.3,0,7.8-1,10.6-2.9c1.8-1.3,2.8-3.1,2.8-5.3c0-0.2,0-0.4-0.1-0.6C383.8,272.7,379.9,270.4,373.3,270.2z"/>
	<path class="st1" d="M460.3,296.8c0,1.5-0.5,3.7-1.4,6.5c-2.4,0.1-4.9,0.4-7.7,0.8c-0.7,0.4-3.7,0.8-8.8,1.3l-7.7,0.6
		c-2.9,0.2-4.7,0.4-5.2,0.5c0,2,0.6,3.7,1.7,5.1c1.2,1.4,2.7,2.1,4.7,2.1c2.6,0,5.3-1.4,8.2-4.3c0.4,0.4,5,1.8,13.8,4
		c-0.7,2-2,4.1-4,6.3c-4.7,5.5-11.5,8.2-20.4,8.2c-7.5,0-13.7-2.9-18.4-8.7c-3.9-4.8-5.8-10.5-5.9-17.1c-0.1-9.8,3.7-17.4,11.3-22.6
		c4.7-3.2,10-4.8,15.8-4.8c6.7,0,12.3,2,16.8,6C458,284.9,460.4,290.3,460.3,296.8z M429,294.6c-0.1,0.6,3.2,1.2,9.7,1.8
		c1.8-0.1,2.9-0.9,3.4-2.5c0.1-0.1,0.1-0.3,0.1-0.5c0-1.6-0.5-2.9-1.6-3.8c-1.1-0.9-2.4-1.4-4.1-1.4
		C432.1,288.1,429.6,290.2,429,294.6z"/>
	<path class="st1" d="M524.5,278.6c-0.2,0.9-0.4,1.4-0.4,1.6c-0.5,0.9-1,1.4-1.5,1.4l-5.8,7.3c-0.1,0-0.3,0-0.5-0.1l-3.3,4.2
		c-0.3-0.1-0.5-0.2-0.7-0.2l-5.2,6.5H507c-0.1,0-0.4,0-0.6,0.1h-0.1v0.1l-2.3,2.8l-2.4,3.1v0.1h-0.1c-1.1,0-1.7-0.2-1.7-0.7l0,0
		l-3.1,4h16.2h1.5c0.2-0.4,0.6-0.9,1.1-1.5h0.2l-3.4,17.6l-0.1-0.1l1.2-1.2c-0.1-0.2-0.3-0.3-0.4-0.3h-30.8c-0.1,0-0.3,0-0.5,0h-2.2
		c-0.1,0-0.4,0-0.6,0h-3.5c-0.1,0-0.1-0.2-0.1-0.5h-3.2h-8.4H460l0.2-0.3c0.1-0.2,0.3-0.3,0.4-0.3h-0.1l0.1-0.2h0.1
		c0.4,0,0.9,0.1,1.8,0.2v-0.1l3.1-3.9l3.1-4.1c0.3,0.1,0.5,0.1,0.7,0.2l12.1-15.8c0.3,0.1,0.6,0.4,0.9,0.6l4.6-6.1
		c0.1,0.1,0,0.2-0.1,0.4l-1.1,1.1h-12c-0.4,0.4-0.8,0.8-1,1.2h-4.3l3.1-17.1c0.4,0.1,0.8,0.2,1.3,0.2l0.1-0.6c0.4,0,0.8,0,1.3,0.1
		C504.7,278.4,521.5,278.5,524.5,278.6z"/>
	<path class="st1" d="M569.8,281.9c0.1,0.2-0.3,1-1,2.3c-0.7,1.3-1.2,2-1.4,2.1c-0.2,0.1-0.5,0.4-0.9,0.9c-0.4,0.5-0.7,0.8-0.8,0.8
		c-0.6,0.6-0.9,0.8-0.8,0.8c-0.4,0.4-0.8,0.8-1.3,1.1c-0.8,0.9-1.8,1.8-2.9,2.5c-3.9-3.1-6.9-4.6-9.2-4.6c-2.4,0-3.6,0.8-3.6,2.5
		c0,0.6,0.8,1.5,2.4,2.6c0.1,0.1,0.6,0.5,1.4,0.9c1.8,0.9,3.6,1.8,5.5,2.7c2,1.1,3.6,2.3,4.7,3.6c0.1,0.1,0.2,0.2,0.4,0.3
		c0.5,0.7,0.9,1.5,1.2,2.3l0.1,0.1c0.2,0.1,0.6,0.8,1.3,2c0.3,0.8,0.5,1.6,0.7,2.5c0.1,0.1,0.4,0.4,0.6,0.6c0.1,0.6,0.1,1.2,0,1.8
		v0.4v0.5c0.1,3.6-1,6.8-3.4,9.7c-2.1,2.7-4.9,4.7-8.4,6c-2.2,0.8-4.7,1.3-7.3,1.3c-1.4,0.2-2.8,0.3-4.2,0.3c-2.9,0-5.4-0.3-7.5-0.8
		c-0.7-0.2-1.6-0.9-2.6-2.2c0-0.1,0-0.1-0.1-0.2h-0.1h-0.1h-0.2h-0.1H532v-0.3h-0.3h-0.1c-2.9-1.1-5.9-2.7-9.1-4.7v-0.2v-0.1
		c0-0.6,0.7-1.8,2.1-3.6c0.8-1.1,1.7-2.1,2.7-3.3c0.6-0.5,0.8-0.8,0.8-0.8c0.2,0,0.4,0.1,0.6,0.3h0.1v-0.1c0.4-0.3,1-0.8,1.7-1.5
		c-0.1-0.1,0.4-0.8,1.5-2.1c1.1,0.6,2.5,1.5,4.1,2.5c0.4,0.2,1.9,0.7,4.5,1.4c1.7,0.5,3,0.7,4,0.6h0.1c0.1,0,0.2,0,0.3,0h0.9
		c0.1-0.1,0.3-0.1,0.4-0.2c0.1,0,0.3-0.1,0.6-0.3c0.8-0.5,1.1-1.1,1.1-1.9c-0.1-0.8-0.9-1.7-2.2-2.5c-0.6-0.4-1.3-0.8-1.9-1.2
		c-0.1,0-0.2,0-0.3-0.1c-0.8-0.3-2.3-1.1-4.6-2.3c-6.2-3.3-9.5-8.1-9.8-14.3c-0.2-4.7,2.1-8.7,7.1-11.9c4.2-2.8,8.8-4.1,13.7-4.1
		c0.7,0,2,0.2,3.8,0.5c6.8,1.3,11.8,3.4,15,6.2C569.1,281.1,569.4,281.4,569.8,281.9z"/>
	<path class="st1" d="M614.9,279.8c-0.1,0.7-0.3,1.5-0.4,2.3c-0.5,1.6-1.3,2.5-2.3,2.6l-0.6,0.3c-0.1,0.3-0.3,0.5-0.4,0.6
		c-0.1,0.1-0.2,0.2-0.2,0.3l-0.1,0.2c-0.1,0.1-0.1,0.1-0.2,0.2l-0.4,0.4l-0.1,0.2c0,0.1,0,0.1-0.1,0.2l-0.1,0.1c0,0.1,0,0.1-0.1,0.2
		l-0.1,0.2l-0.1,0.1c-0.6,0-0.9,0.7-0.9,2.2c-0.1,1.5-0.4,2.2-0.9,2.2c0,0.3-0.2,1.3-0.5,3.1c-1.8,0.1-3.5,0.2-5.4,0.5v2.1
		c-0.4,3.5-0.6,6.4-0.6,8.5c0,0.5-0.5,4.6-1.4,12.2c0.1,0.8-0.1,2.6-0.5,5.6c-0.1,1.1-0.4,2.6-0.7,4.7c0,0.3-0.1,0.6-0.2,0.9
		c-0.1,0.7-0.3,1.4-0.5,2.2c-0.1,0.3-2,0.4-5.6,0.4c-2.7,0-4.2-0.4-4.4-1.1c-0.3-0.1-0.6-0.2-0.8-0.4c-0.7-0.1-1.4-0.1-2-0.2
		c-0.4-0.2-1-0.6-1.8-1.2c-0.6-0.1-1.1-0.2-1.7-0.5c-1.2-0.1-2.4-0.4-3.7-0.6l0.1-0.4c0.3-3.6,0.7-8.9,1.3-16l1.2-12.8
		c-0.1-0.8-0.2-1.5-0.5-2.1c0-0.5-0.1-0.9-0.3-1.3c-0.3,0.1-0.7,0.1-1.3,0.1c-0.8,0-1.3-0.1-1.6-0.3c-0.6-0.1-1.2-0.2-1.8-0.4
		c-0.3,0-0.7-0.1-1.3-0.2c-0.6-0.1-1-0.2-1.3-0.2c0-0.4,0.2-1.2,0.5-2.3c0.4-1.1,0.7-1.8,0.9-2c0.3-0.2,0.8-0.6,1.6-1
		c0.1-0.1,0.3-0.3,0.5-0.4c0.1-0.1,0.1-0.2,0.2-0.3l0.1-0.2c0.1-0.1,0.2-0.1,0.3-0.2l0.1-0.4l0.1-0.6l0.1-0.1c0.1,0,0.2,0,0.3-0.1
		c0.4-0.1,0.7-0.7,0.9-1.8v-0.1l0.2-0.4l0.2-0.8v-0.3c0.7-2.4,1.2-4.5,1.4-6.3l0.2-0.1c0.3,0,0.8-0.2,1.7-0.6
		c0.9-0.2,1.9-0.6,2.8-1.1c0.4-2.4,0.8-4.8,1.3-7.4c0.8-5,1.7-7.5,2.7-7.5c3.9,0,6.1,0.2,6.6,0.5c0.1,0.1,0.6,0.2,1.7,0.5
		c1.1,0.3,1.6,0.5,1.6,0.5c1.6,0.4,2.7,1.1,3.3,2l2.3,0.2c0.1,0,1.1,0.1,3.1,0.2c-0.1,0.4-0.2,1.2-0.4,2.4c-0.1,0.4-0.2,1-0.3,1.9
		l-0.9,7.2c0.4-0.1,0.8,0.4,1,1.3c0.2,0.9,0.3,1.4,0.3,1.5c0.1,0,0.5,0,0.9,0c0.6-0.1,1.1-0.1,1.5-0.1c1.6-0.1,2.6,0,2.9,0.2
		c0,0.1,0.5,0.2,1.4,0.3C614.4,279.6,614.9,279.7,614.9,279.8z"/>
	<path class="st1" d="M616,302.3c0-7.4,2.5-13.9,7.4-19.3c5.7-6.2,12.1-9.4,19.2-9.4c7,0,12.6,2.2,16.8,6.5c4.2,4.3,6.3,10,6.3,17
		c0,5.2-1.4,10-4.2,14.4c-2.8,4.4-6.5,7.9-11.1,10.3c-3.4,1.8-7.4,2.7-11.8,2.7c-5.8,0-10.7-1.7-14.7-5.2
		C618.6,314.9,616,309.2,616,302.3z M641.6,291.8c-2,0-3.8,1-5.2,3.1c-1.3,1.8-1.9,3.7-1.9,5.9c0,1.8,0.8,3.3,2.4,4.5
		c1.1,0.8,2.1,1.2,3.3,1.2c4.4,0,6.5-2.6,6.5-7.8c0-1.8-0.4-3.4-1.3-4.8C644.6,292.5,643.3,291.8,641.6,291.8z"/>
	<path class="st1" d="M714.2,275.9c0.1,0.1,0,0.5-0.2,1.4c-0.2,0.9-0.4,1.4-0.4,1.6c-0.1,0.4-1.5,4.4-4,11.8c-0.3,0.8-0.7,2-1.3,3.7
		c-1.5-0.2-2.8-0.3-3.9-0.3c-1.2-0.1-2.2-0.1-3.1,0c-3.6,0.4-5.8,2.2-6.6,5.5c-0.4,1-0.8,3-1.4,5.9c-0.2,1.2-0.4,3.1-0.4,5.9
		c0.1,0.1,0,1-0.1,2.7c-0.1,1.8-0.2,2.8-0.3,3.1c0,0.6-0.3,2.1-0.8,4.7c-0.6,2.6-0.9,4-1.2,4.1c-0.4,0.6-2.9,0.8-7.8,0.8
		c-4.1,0-6.4-0.2-6.6-0.6c-0.7,0-1.9-0.2-3.5-0.5c-1.9-0.4-2.8-0.7-2.8-0.9c0.4-3.3,1.1-8.2,2-14.7c1.3-9.4,1.9-14.6,1.8-15.8
		c0.2-2,0.4-4.2,0.4-6.8c-0.1-0.2,0-1.3,0.2-3.4c0.1-1.1,0.2-2.2,0.3-3.3c0-0.5,0.2-1.5,0.6-3c0.4-1.5,0.7-2.4,0.9-2.6
		c0.2-0.2,2-0.3,5.3-0.3c4.2,0,6.5,0.2,6.8,0.7c0.1,0.1,1.3,0.4,3.6,0.8c2.2,0.4,3.4,0.8,3.4,1.1l-1.3,5.5c4.8-5.8,9.5-8.7,14.1-8.7
		C709.7,274.3,711.7,274.8,714.2,275.9z"/>
	<path class="st1" d="M766.3,296.8c0,1.5-0.5,3.7-1.4,6.5c-2.4,0.1-4.9,0.4-7.7,0.8c-0.7,0.4-3.7,0.8-8.8,1.3l-7.7,0.6
		c-2.9,0.2-4.7,0.4-5.2,0.5c0,2,0.6,3.7,1.7,5.1c1.2,1.4,2.7,2.1,4.7,2.1c2.6,0,5.3-1.4,8.2-4.3c0.4,0.4,5,1.8,13.8,4
		c-0.7,2-2,4.1-4,6.3c-4.7,5.5-11.5,8.2-20.4,8.2c-7.5,0-13.7-2.9-18.4-8.7c-3.9-4.8-5.8-10.5-5.9-17.1c-0.1-9.8,3.7-17.4,11.3-22.6
		c4.7-3.2,10-4.8,15.8-4.8c6.7,0,12.3,2,16.8,6C764,284.9,766.4,290.3,766.3,296.8z M734.9,294.6c-0.1,0.6,3.2,1.2,9.7,1.8
		c1.8-0.1,2.9-0.9,3.4-2.5c0.1-0.1,0.1-0.3,0.1-0.5c0-1.6-0.5-2.9-1.6-3.8c-1.1-0.9-2.4-1.4-4.1-1.4
		C738,288.1,735.6,290.2,734.9,294.6z"/>
</g>
<g>
	<path class="st1" d="M606.1,198c-6.2,0-11-1.6-14.4-4.7c-3.3-3.1-5-7.5-5-13.1c0-5.7,1.7-11.6,5-17.8l8.8,3.5
		c-1.7,4.2-2.6,7.7-2.6,10.5c0,2.9,0.8,5.1,2.4,6.6c1.6,1.5,4.2,2.2,7.7,2.2c3.4,0,6.1-0.7,8.1-2.1c2.1-1.4,3.1-3.2,3.1-5.5
		c0-3.9-1.2-9.7-3.6-17.4l11.2-3.3c1.6,5.7,2.5,9.7,2.9,12.1c1.8,0.4,3.6,0.6,5.3,0.6h0.8v12.8h-1.2c-2,0-3.6-0.1-5-0.4
		c-1.1,5.1-3.7,9.1-7.7,11.8C618,196.6,612.7,198,606.1,198z M607.3,147.7l7.8,6.7l-6.3,7.2l-7.8-6.4L607.3,147.7z"/>
	<path class="st1" d="M648.2,199.5l-6-4.9l-4.5,5.1l-7-5.8l5.7-6.8l6,5.1l4.5-5.3l7.1,6L648.2,199.5z M635.8,182.4
		c-0.7,0-1.3-0.6-1.8-1.9c-0.5-1.2-0.8-2.8-0.8-4.5c0-1.8,0.3-3.3,0.8-4.5c0.5-1.2,1.1-1.9,1.8-1.9h0.6c3.1,0,5.7-0.2,7.8-0.7
		c-0.2-5.4-0.9-10.7-2.1-15.8l10.4-2.2c1,4.4,1.4,9.2,1.4,14.3c0,5.6-0.6,10.2-1.7,13.6c-1.8,1-4.2,1.8-7.2,2.5
		c-3,0.7-6,1.1-8.9,1.1H635.8z"/>
	<path class="st1" d="M704.3,182.4c-5.3,0-9.4-1.7-12.3-5c-4,3.6-9.5,5.4-16.3,5.4c-4.7,0-8.8-0.6-12.5-1.8v-11.9
		c2.1,0.2,4.8,0.4,7.9,0.4c0-7.8-3.4-17.7-10.2-29.7l10.7-6c2.8,5.2,5,10.4,6.5,15.4c1.5,5.1,2.2,10.5,2.2,16.5c0,1.6,0,2.8-0.1,3.6
		c3.4-0.4,5.6-1.2,6.6-2.5c1.1-1.3,1.6-3.2,1.6-5.8v-29.9l11.1-0.9v31.4c0,3.2,0.4,5.3,1.2,6.4c0.8,1.1,2.2,1.6,4,1.6h1.9v12.8
		H704.3z"/>
	<path class="st1" d="M706.5,182.4c-0.7,0-1.3-0.6-1.8-1.9c-0.5-1.2-0.8-2.8-0.8-4.5c0-1.8,0.3-3.3,0.8-4.5c0.5-1.2,1.1-1.9,1.8-1.9
		h0.6c3.1,0,5.7-0.2,7.8-0.7c-0.2-5.4-0.9-10.7-2.1-15.8l10.4-2.2c1,4.4,1.4,9.2,1.4,14.3c0,5.6-0.6,10.2-1.7,13.6
		c-1.8,1-4.2,1.8-7.2,2.5c-3,0.7-6,1.1-8.9,1.1H706.5z M711.7,135.8l7.8,6.7l-6.3,7.2l-7.8-6.4L711.7,135.8z"/>
	<path class="st1" d="M750,126.1l2.4,5.9c-2.3,1.8-5.1,2.7-8.4,2.7c-1.6,0-3.8-0.4-6.6-1.2c-2.7-0.8-4.6-1.2-5.5-1.2
		c-1.7,0-3.3,0.7-4.6,2.2l-3.8-5c2.4-3.5,5.2-5.3,8.4-5.3c1.2,0,3.4,0.5,6.7,1.4c3.3,0.9,5.5,1.4,6.6,1.4
		C746.9,127.1,748.6,126.7,750,126.1z M743.6,182.4h-11.2V138l11.2-0.9V182.4z"/>
	<path class="st1" d="M778.3,144.6c13.5,5.3,20.3,12.7,20.3,22.2c0,4.7-1.5,8.6-4.4,11.6c-2.9,3-7.4,4.5-13.3,4.5
		c-4.5,0-8-1.2-10.4-3.6c-2.4-2.4-3.6-5.7-3.6-10c0-4.3,1.1-8.6,3.2-12.9C772.1,152.2,774.8,148.2,778.3,144.6z M782.2,170.3
		c1.8,0,3.4-0.3,4.8-0.8c1.4-0.5,2.1-1.2,2.1-2c0-1.4-0.9-3-2.6-4.8c-1.8-1.8-3.9-3.4-6.3-4.8c-2.4,2.8-3.5,5.4-3.5,7.7
		C776.6,168.8,778.5,170.3,782.2,170.3z"/>
	<path class="st1" d="M823.1,169.6v12.8h-3.5c-5.3,0-9-1.5-11.3-4.4c-2.2-3-3.3-7.2-3.3-12.7v-34.1l11.2-0.9v32.6c0,4.5,2,6.8,6,6.8
		H823.1z"/>
	<path class="st1" d="M823.1,182.4c-0.7,0-1.3-0.6-1.8-1.9c-0.5-1.2-0.8-2.8-0.8-4.5c0-1.8,0.3-3.3,0.8-4.5c0.5-1.2,1.1-1.9,1.8-1.9
		h1.4c7.4,0,13.2-0.6,17.2-1.7c-1.7-2.7-3.7-5.1-6-7.1c-2.3-2-5.2-3.7-8.9-5v-14.5c9.3-5.9,19.4-9.9,30.5-12.2v11.2
		c-7.8,1.7-14.7,4.2-20.8,7.6c2.5,1.3,4.9,2.9,7.1,4.9c2.2,2,3.8,3.6,4.9,5c1.1,1.4,2.3,3.1,3.7,5.2c0.3,0.4,0.7,1.1,1.3,2.1
		c0.6,1,1,1.6,1.3,1.9c0.3,0.3,0.6,0.7,1.1,1.3c0.5,0.5,1,0.9,1.5,1c0.5,0.2,1.1,0.3,1.8,0.3h0.9v12.8H859c-4.5,0-8-1.4-10.6-4.1
		c-6,2.7-13.9,4.1-23.6,4.1H823.1z M831.3,135.3v-6.2c5.3-2.8,12.2-5.4,20.6-7.8v6.3C844.6,129.8,837.8,132.3,831.3,135.3z"/>
	<path class="st1" d="M902.4,182.5c-4.3,0-7.6-1-9.9-3.1c-2.3,2.3-6,3.4-11,3.4c-4.3,0-8.1-1-11.2-3.1c-2.5,1.8-5.7,2.7-9.4,2.7
		h-0.8c-0.7,0-1.3-0.6-1.8-1.9c-0.5-1.2-0.8-2.8-0.8-4.5c0-1.8,0.3-3.3,0.8-4.5c0.5-1.2,1.1-1.9,1.8-1.9h1.9c1.7,0,3-0.4,3.9-1.3
		c0.9-0.9,1.4-2.5,1.6-4.8l0.4-4.8l9.9-0.7l-0.3,5.5c0,1.5-0.2,3.1-0.6,4.7c1.5,0.7,3.1,1.1,4.9,1.1c4,0,6-1.8,6-5.3v-6l10-0.6v8.1
		c0,2.7,1.6,4.1,4.8,4.1c1.5,0,3.2-0.3,5.1-0.8c-0.1-2-0.8-6.3-2.1-12.8l10.4-2.2c1,4.3,1.4,8.1,1.4,11.4c0,5.6-0.6,10.2-1.7,13.6
		C911.3,181.3,906.8,182.5,902.4,182.5z M898.4,153.1l-5.8-4.8l-4.8,5.3l-6.8-5.7l5.6-6.6l5.8,5l4.8-5.5l6.8,5.9L898.4,153.1z
		 M891,132.4l6.2,5.3l-5,5.8l-6.2-5.1L891,132.4z"/>
	<path class="st1" d="M932.6,197.1c-2.7,0-5.4-0.4-8-1.1l0.9-10.5c1.6,0.2,3.3,0.4,5.3,0.4c4.1,0,7.5-0.7,10.1-2.1
		c2.6-1.4,4.1-2.8,4.5-4.2c-2.2,1-4.8,1.4-7.7,1.4c-9.1,0-13.6-4.7-13.6-14.2c0-5.3,1.5-9.8,4.4-13.4c2.9-3.6,6.6-5.4,10.9-5.4
		c4.8,0,8.7,2.1,11.9,6.4s4.8,9.9,4.8,16.9c0,8.2-2,14.6-6,19C946,194.9,940.2,197.1,932.6,197.1z M941.8,169.6c1.2,0,2.5-0.1,4-0.4
		c-0.3-2.4-1.1-4.6-2.4-6.6c-1.3-2.1-2.9-3.1-4.8-3.1c-1.6,0-2.9,0.5-3.7,1.6s-1.3,2.3-1.3,3.8C933.6,168.1,936.3,169.6,941.8,169.6
		z"/>
	<path class="st1" d="M966.9,196.9c-2.2,0-4.7-0.3-7.3-0.9l0.9-10.5c1.2,0.2,2.4,0.3,3.6,0.3c4.3,0,7.5-1.3,9.4-3.8
		c2-2.5,3-5.6,3-9.2c0-3.4-1-8.5-3-15.3l10.4-3.2c0.1,0.4,0.3,1.3,0.6,2.5c0.3,1.2,0.5,2.1,0.7,2.6c0.1,0.5,0.3,1.2,0.6,2.1
		c0.3,0.9,0.5,1.6,0.7,2.1c0.2,0.5,0.4,1.1,0.7,1.7c0.3,0.6,0.6,1.2,0.9,1.7c1.2,1.8,3.6,2.7,7,2.7h1.7v12.8h-2.6
		c-3.7,0-6.6-0.8-8.7-2.4c-1,5.1-3,9.2-6,12.2C976.4,195.4,972.2,196.9,966.9,196.9z"/>
	<path class="st1" d="M996.8,182.4c-0.7,0-1.3-0.6-1.8-1.9c-0.5-1.2-0.8-2.8-0.8-4.5c0-1.8,0.3-3.3,0.8-4.5c0.5-1.2,1.1-1.9,1.8-1.9
		h0.1h1.2c11.9,0,20-0.6,24.4-1.7c0-0.4,0.1-1.1,0.1-2v-0.2c-2.1,0.7-4.7,1.1-7.9,1.1c-4.8,0-8.2-1-10.2-3.1c-2-2.1-3-5-3-8.7
		c0-4.9,1.4-9.1,4.2-12.6c2.8-3.5,6.3-5.2,10.5-5.2c4.5,0,8.2,2.2,11.2,6.5c2.9,4.3,4.4,10.4,4.4,18.3c0,7-0.7,12.2-2,15.6
		c-5.9,3.2-16.3,4.8-31.3,4.8H996.8z M1014.9,120.7l7.8,6.7l-6.3,7.2l-7.8-6.4L1014.9,120.7z M1019,157.3c1,0,2-0.1,3-0.2
		c-1-6.2-3.1-9.3-6.3-9.3c-1.6,0-2.8,0.5-3.6,1.6c-0.8,1.1-1.2,2.3-1.2,3.7c0,1.4,0.6,2.4,1.8,3.1C1013.9,157,1016,157.3,1019,157.3
		z"/>
</g>
</svg>
