<?xml version="1.0" encoding="utf-8"?>
<!-- Generator: Adobe Illustrator 23.0.0, SVG Export Plug-In . SVG Version: 6.00 Build 0)  -->
<svg version="1.1" id="Layer_1" xmlns="http://www.w3.org/2000/svg" xmlns:xlink="http://www.w3.org/1999/xlink" x="0px" y="0px"
	 viewBox="0 0 96 96" style="enable-background:new 0 0 96 96;" xml:space="preserve">
<style type="text/css">
	.st0{fill:#333333;}
	.st1{fill:#6633FF;}
	.st2{fill:#131313;}
	.st3{fill:#4D4D4D;}
	.st4{fill:#2B2B2B;}
	.st5{fill:#7E7E7E;}
	.st6{fill:#330000;}
	.st7{fill:#FF6600;}
	.st8{fill:none;}
</style>
<g id="XMLID_1_">
	<path id="XMLID_5_" class="st0" d="M148.71,20.5c-15.19,0-27.5,12.31-27.5,27.5s12.31,27.5,27.5,27.5s27.5-12.31,27.5-27.5
		S163.9,20.5,148.71,20.5z M162.23,39.35l-4.51,21.26c-0.31,1.52-1.22,1.87-2.49,1.17l-6.88-5.08l-3.3,3.21
		c-0.38,0.37-0.69,0.69-1.38,0.69c-0.89,0-0.74-0.33-1.04-1.18l-2.34-7.69l-6.8-2.12c-1.47-0.45-1.48-1.46,0.33-2.18l26.49-10.23
		C161.52,36.66,162.69,37.49,162.23,39.35z"/>
</g>
<g id="XMLID_2_">
	<polygon id="XMLID_20_" class="st0" points="-187.3,0.77 -185.31,0.77 -185.31,10.66 -183.39,10.66 -183.39,0.77 -181.4,0.77 
		-181.4,-0.91 -187.3,-0.91 	"/>
	<path id="XMLID_19_" class="st0" d="M-175.49-7.45c0.26,0,0.47-0.07,0.62-0.21c0.15-0.15,0.23-0.35,0.23-0.6v-5.13
		c0-0.21-0.08-0.37-0.24-0.5c-0.16-0.13-0.36-0.19-0.62-0.19c-0.23,0-0.42,0.06-0.57,0.19c-0.15,0.12-0.22,0.29-0.22,0.5v5.13
		c0,0.26,0.07,0.46,0.21,0.6C-175.94-7.52-175.74-7.45-175.49-7.45z"/>
	<path id="XMLID_7_" class="st0" d="M-171.25,2.02c-0.27,0-0.53,0.07-0.79,0.2c-0.26,0.14-0.5,0.34-0.73,0.6v-3.73h-1.73v11.58h1.73
		v-0.65c0.22,0.26,0.47,0.46,0.73,0.58c0.26,0.12,0.56,0.19,0.89,0.19c0.5,0,0.89-0.16,1.16-0.48c0.27-0.32,0.4-0.79,0.4-1.39V4.16
		c0-0.7-0.14-1.23-0.43-1.59C-170.29,2.2-170.71,2.02-171.25,2.02z M-171.34,8.66c0,0.27-0.05,0.47-0.15,0.59
		c-0.1,0.12-0.25,0.18-0.46,0.18c-0.14,0-0.28-0.03-0.41-0.09c-0.13-0.06-0.27-0.16-0.4-0.3V3.72c0.12-0.12,0.23-0.21,0.35-0.26
		c0.12-0.06,0.24-0.08,0.36-0.08c0.23,0,0.41,0.07,0.53,0.22c0.12,0.15,0.18,0.37,0.18,0.66V8.66z"/>
	<path id="XMLID_8_" class="st0" d="M-177.48,8.61c-0.16,0.18-0.34,0.33-0.53,0.46c-0.19,0.12-0.35,0.18-0.48,0.18
		c-0.16,0-0.28-0.04-0.35-0.14c-0.07-0.09-0.11-0.24-0.11-0.44V2.12h-1.71v7.14c0,0.51,0.1,0.89,0.3,1.14
		c0.2,0.25,0.5,0.38,0.89,0.38c0.32,0,0.65-0.09,0.99-0.27c0.34-0.19,0.67-0.45,0.98-0.79v0.94h1.71V2.12h-1.71L-177.48,8.61
		L-177.48,8.61z"/>
	<path id="XMLID_14_" class="st0" d="M-175.56-29.04c-15.19,0-27.5,12.31-27.5,27.5c0,15.19,12.31,27.5,27.5,27.5
		c15.19,0,27.5-12.31,27.5-27.5C-148.06-16.73-160.38-29.04-175.56-29.04z M-171.12-15.46h1.92v7.21c0,0.22,0.04,0.38,0.12,0.48
		c0.08,0.1,0.21,0.15,0.39,0.15c0.14,0,0.32-0.07,0.54-0.2c0.21-0.14,0.41-0.3,0.59-0.51v-7.14h1.92v9.41h-1.92v-1.04
		c-0.35,0.38-0.72,0.68-1.11,0.87c-0.38,0.2-0.75,0.3-1.11,0.3c-0.44,0-0.78-0.14-1.01-0.42c-0.22-0.28-0.34-0.7-0.34-1.26V-15.46z
		 M-178.26-13.31c0-0.73,0.26-1.31,0.77-1.74c0.52-0.43,1.21-0.65,2.09-0.65c0.8,0,1.45,0.23,1.96,0.68
		c0.51,0.45,0.76,1.04,0.76,1.76v4.86c0,0.81-0.25,1.44-0.74,1.89c-0.5,0.46-1.19,0.68-2.06,0.68c-0.84,0-1.51-0.24-2.02-0.7
		c-0.5-0.48-0.76-1.11-0.76-1.91L-178.26-13.31L-178.26-13.31z M-183.49-18.81l1.4,5.09h0.14l1.34-5.09h2.2l-2.52,7.46v5.29h-2.16
		v-5.05l-2.58-7.7H-183.49z M-158.32,8.03c0,3.4-2.76,6.16-6.16,6.16h-21.41c-3.4,0-6.16-2.76-6.16-6.16V3.08
		c0-3.4,2.76-6.16,6.16-6.16h21.41c3.4,0,6.16,2.76,6.16,6.16V8.03z"/>
	<path id="XMLID_17_" class="st0" d="M-166.09,1.91c-0.77,0-1.38,0.23-1.87,0.7c-0.48,0.46-0.73,1.07-0.73,1.81v3.84
		c0,0.82,0.22,1.47,0.66,1.94c0.44,0.47,1.04,0.7,1.81,0.7c0.85,0,1.49-0.22,1.92-0.66c0.43-0.44,0.64-1.1,0.64-1.98V7.82h-1.76
		v0.39c0,0.5-0.06,0.83-0.17,0.98c-0.11,0.15-0.31,0.22-0.59,0.22c-0.27,0-0.46-0.08-0.58-0.26c-0.11-0.18-0.17-0.49-0.17-0.94V6.6
		h3.26V4.42c0-0.81-0.21-1.43-0.63-1.86C-164.71,2.13-165.31,1.91-166.09,1.91z M-165.42,5.27h-1.51V4.41
		c0-0.36,0.05-0.62,0.17-0.77c0.12-0.16,0.31-0.24,0.59-0.24c0.26,0,0.45,0.08,0.57,0.24c0.12,0.15,0.18,0.41,0.18,0.77
		L-165.42,5.27L-165.42,5.27z"/>
</g>
<g>
	<path class="st1" d="M-1381,583c1.92-0.9,0.94-2.64,0.99-3.94c0.94-27.14,1.01-54.32,3.04-81.42c2.22-29.67,7.47-58.59,18.76-86.4
		c8.68-21.36,22.31-37.64,42.01-49.65c25.05-15.27,52.02-25.8,79.77-34.62c52.59-16.73,106.27-29.56,159.27-44.84
		c0.91-0.26,1.89-0.31,2.97-0.48c0.58,5.75-0.42,11.2-0.92,16.63c-2.92,31.54,3.43,60.93,17.94,89.16
		c18.81,36.6,38.13,72.76,64.4,104.73c20.13,24.5,42.83,46.07,69.79,62.99c2.57,1.61,4.02,1.04,6.09-0.26
		c30.35-19.23,55.92-43.76,77.24-72.4c26.69-35.86,48.2-74.86,65.96-115.9c4.89-11.3,7.57-23.02,8.18-35.28
		c0.82-16.62,2.03-33.24-1.35-50.16c3.85,0.15,7.22,1.92,10.75,2.92c49.85,14.17,100.26,26.38,149.7,41.99
		c32.58,10.28,64.22,22.4,92.56,42.24c17.35,12.14,26.39,29.38,33.94,48.1c10.58,26.24,14.87,53.75,16.91,81.74
		c2,27.44,2.11,54.94,3.02,82.42c0.04,1.15-0.83,2.73,0.98,3.44c-0.05,1.65,0.62,3.87-2.51,3.02c-0.62-0.17-1.33-0.02-1.99-0.02
		c-304.33,0-608.67,0-913,0.03C-1379.44,587.04-1382.14,587.31-1381,583z"/>
	<path class="st2" d="M-919-393c-4.33,1.6-8.67,1.67-13,0C-927.67-393-923.33-393-919-393z"/>
	<path class="st3" d="M-903-393c-1.72,1.99-3.93,0.64-5.91,0.87c-0.38-0.16-0.52-0.34-0.42-0.54c0.11-0.22,0.21-0.33,0.33-0.33
		C-907-393-905-393-903-393z"/>
	<path class="st4" d="M-909-393c0.01,0.29,0.04,0.58,0.09,0.87c-1.75,0.01-3.61,0.7-5.09-0.87C-912.33-393-910.67-393-909-393z"/>
	<path class="st5" d="M-937-393c-1,1.41-2,1.67-3,0C-939-393-938-393-937-393z"/>
	<path class="st0" d="M-645.19-193.87c0.01-5.91-1.06-11.46-2.8-17.09c-11.24-36.37-29.25-68.83-55.85-96.18
		c-49.4-50.8-110.74-76.21-180.26-83.99c-4.3-0.48-8.81,0.14-12.9-1.87h-6c-1.88,1.08-3.94,0.26-5.89,0.52
		c-1.7-0.24-3.5,0.53-5.11-0.52h-5c-4.33,0.83-8.67,0.83-13,0h-5c-1,0.75-2,0.75-3,0h-5c-0.36,1.4-1.55,0.95-2.43,1.01
		c-12.63,0.96-25.19,2.49-37.61,4.98c-56.33,11.29-106.36,35.18-147.15,76.09c-39.63,39.75-64.07,86.4-63.29,144.41
		c0.37,27.63-0.16,55.32-0.32,82.98c0,0.55,0,1.07-0.04,1.56l30.74-7.99c0.11-20.61-0.18-41.22,0.28-61.82
		c0.5-22.34,1.76-44.78,10.66-65.67c22.88-53.66,60.92-93.37,113.39-118.51c62.91-30.14,128.68-34.53,195.69-16.94
		c64.43,16.91,114.35,53.92,147.62,112.21c9.93,17.38,18.61,35.32,20.11,55.82c0.89,12.14,1.24,24.29,1.53,36.45
		c0.64,26.32,0.17,52.68,2.5,78.93c0.68,7.65,5.8,12.06,13.16,12.29c7.52,0.23,13.39-4.61,14.55-12.22
		c0.44-2.96,0.58-5.97,0.66-8.96C-643.9-116.88-645.25-155.37-645.19-193.87z"/>
	<path class="st6" d="M-689.96,62.79c-2.38,4.4-4.73,8.87-8.08,12.57c-10.61,11.75-17.91,25.58-24.98,39.52
		c-15.67,30.91-32.38,61.15-54.14,88.31c-21.63,26.98-46.48,50.27-78.87,63.61c-60.77,25.03-116.98,15.3-168.22-24.76
		c-30.93-24.19-53.28-55.63-72.77-89.29c-10.42-18-19.22-36.83-28.49-55.41l58.4,47.76c-0.54-0.22-1.09-0.44-1.65-0.65
		c12.44,22.43,25.17,44.57,43.7,62.72c18.25,17.87,38.75,32.01,63.84,38.29c16.63,4.16,33.73,3.17,50.7,3.59
		c27.05,0.68,50.97-8.09,72.95-23.02c23.21-15.76,39.93-37.44,54.63-60.89c15.13-24.15,26.94-49.99,38.9-75.76
		c4.28-9.24,9.63-17.73,16.32-25.54c14.49-16.9,21.7-36.76,22.09-59.03c0.13-7.41-0.92-14.63-5.5-20.84
		c-6.66-9.02-13.5-9.42-20.85-1.1c-5.68,6.41-9.46,14.02-13.15,21.67c-1.64,3.39-2.71,7.12-5.83,10.64c0.59-3.33,1.05-5.89,1.5-8.45
		c5.12-28.66,11.22-57.17,13.23-86.3c0.57-8.26,1.35-6.92-6.37-7.25c-33.64-1.42-67.11-4.34-100.15-11.16
		c-47.15-9.73-90.88-27.3-129.73-56.22c-13.93-10.36-26.39-22.43-39.63-33.59c-2.05-1.74-4.02-2.66-6.77-1.95
		c-17.79,4.61-34.17,11.84-47.67,24.79c-11.75,11.26-21.57,23.93-29.74,38.01c-5.17,8.9-7.42,18.28-7.6,28.52
		c-0.5,28.84,4.28,57.04,9.41,85.23c1.57,8.6,3.17,17.18,4.83,26.19c-2.51-0.93-2.57-2.83-3.23-4.21
		c-3.51-7.35-6.9-14.76-11.58-21.47c-2.59-3.7-5.39-7.22-9.56-9.31c-4.07-2.03-7.61-0.96-11.13,1.63c-1.37,1-2.15,2.08-2.52,3.24
		l-7.9-17.5c1.02-4.32,0.46-7.14,0.05-9.94c-4.06-27.9-6.96-55.89-6.26-84.12c0.67-26.54,2.75-52.95,12.06-78.12
		c15.88-42.94,45.66-73.73,85.39-95.18c44.41-23.97,92.22-32.42,142.3-29.28c40.29,2.52,78.37,12.86,113.28,33.43
		c48.39,28.52,78.32,70.2,87.38,125.99c4.22,25.96,3.09,52.18,1.84,78.32c-0.85,17.48-2.63,34.88-5.47,52.15
		c-0.53,3.22-0.63,5.57,4.04,4.68c3.76-0.71,7.16,1.22,10.17,3.37c8.78,6.27,13.67,14.86,14.54,25.59
		C-674.23,17.04-678.05,40.7-689.96,62.79z"/>
	<path class="st7" d="M-890.58,163.56c-3.25,12.21-10.13,21.45-23.58,23.45c-18.43,2.74-36.71,2.68-54.88-2.62
		c-1.31-0.38-2.61-0.76-3.92-1.14l-14.05-36.27c4.15,1.36,6.63,0.87,9.49-3.14c6.98-9.8,15.77-17,29.08-16.13
		c8.47,0.56,17.01-0.03,25.48,0.46c7.94,0.45,16.41,0.57,22.48,6.64C-892.65,142.63-887.5,152-890.58,163.56z"/>
	<path class="st0" d="M-972.96,183.25c-23.9-6.9-47.94-13.33-69.96-25.47c-7.92-4.37-15.6-9.18-24.19-12.68l-58.4-47.76
		c-0.15-0.29-0.29-0.59-0.44-0.88c-0.47-0.93-0.79-1.89-1.41-2.52l27.95-21.28c1.23,2.1,2.69,4.07,4.42,5.92
		c30.05,32.19,66.25,54.65,107.98,68.4L-972.96,183.25z"/>
	<path class="st7" d="M-1099.41,72.66l-27.95,21.28c-0.61-0.64-1.51-0.97-3.12-0.66c-31.43,5.93-53.02-3.97-67.44-32.47
		c-11.64-23-20.6-47.24-26.18-72.46c-2.51-11.37-2.26-23.38,0.36-34.77c3.27-14.24,11.49-25.38,25.13-31.65
		c2.17-1,2.65-2.29,2.77-3.9l30.74-7.99v0.67c-0.02,2.35,0.21,4.11,2.75,5.09c6.38,2.48,9.87,7.7,12.25,13.74
		c3.48,8.8,6.76,17.68,10.21,26.5c1.07,2.72,2.46,5.33,4.32,9.34l7.9,17.5c-0.53,1.69-0.19,3.54,0.52,5.58
		c1.09,3.14,1.8,6.4,2.76,9.58c6.69,22.09,15.67,43.44,21.43,65.83C-1102.14,67.05-1100.97,69.97-1099.41,72.66z"/>
	<line class="st8" x1="-1029.46" y1="175.89" x2="-1067.11" y2="145.1"/>
	<line class="st8" x1="-1125.51" y1="97.34" x2="-1130.48" y2="93.28"/>
	<line class="st8" x1="-1106.61" y1="29.55" x2="-1127.67" y2="-17.12"/>
</g>
<g>
	<path class="st1" d="M12.27,175.99c0.15-0.07,0.07-0.2,0.08-0.31c0.07-2.1,0.08-4.21,0.24-6.31c0.17-2.3,0.58-4.54,1.45-6.7
		c0.67-1.66,1.73-2.92,3.26-3.85c1.94-1.18,4.03-2,6.19-2.68c4.08-1.3,8.24-2.29,12.35-3.48c0.07-0.02,0.15-0.02,0.23-0.04
		c0.04,0.45-0.03,0.87-0.07,1.29c-0.23,2.45,0.27,4.72,1.39,6.91c1.46,2.84,2.96,5.64,4.99,8.12c1.56,1.9,3.32,3.57,5.41,4.88
		c0.2,0.13,0.31,0.08,0.47-0.02c2.35-1.49,4.34-3.39,5.99-5.61c2.07-2.78,3.74-5.8,5.11-8.99c0.38-0.88,0.59-1.79,0.63-2.74
		c0.06-1.29,0.16-2.58-0.1-3.89c0.3,0.01,0.56,0.15,0.83,0.23c3.87,1.1,7.77,2.05,11.61,3.26c2.53,0.8,4.98,1.74,7.18,3.27
		c1.34,0.94,2.05,2.28,2.63,3.73c0.82,2.03,1.15,4.17,1.31,6.34c0.15,2.13,0.16,4.26,0.23,6.39c0,0.09-0.06,0.21,0.08,0.27
		c0,0.13,0.05,0.3-0.19,0.23c-0.05-0.01-0.1,0-0.15,0c-23.6,0-47.19,0-70.79,0C12.39,176.31,12.18,176.33,12.27,175.99z"/>
	<path class="st2" d="M48.09,100.32c-0.34,0.12-0.67,0.13-1.01,0C47.41,100.32,47.75,100.32,48.09,100.32z"/>
	<path class="st3" d="M49.33,100.32c-0.13,0.15-0.3,0.05-0.46,0.07c-0.03-0.01-0.04-0.03-0.03-0.04c0.01-0.02,0.02-0.03,0.03-0.03
		C49.02,100.32,49.17,100.32,49.33,100.32z"/>
	<path class="st4" d="M48.86,100.32c0,0.02,0,0.05,0.01,0.07c-0.14,0-0.28,0.05-0.39-0.07C48.6,100.32,48.73,100.32,48.86,100.32z"
		/>
	<path class="st5" d="M46.69,100.32c-0.08,0.11-0.16,0.13-0.23,0C46.54,100.32,46.61,100.32,46.69,100.32z"/>
	<path class="st0" d="M69.32,115.76c0-0.46-0.08-0.89-0.22-1.33c-0.87-2.82-2.27-5.34-4.33-7.46c-3.83-3.94-8.59-5.91-13.98-6.51
		c-0.33-0.04-0.68,0.01-1-0.14h-0.47c-0.15,0.08-0.31,0.02-0.46,0.04c-0.13-0.02-0.27,0.04-0.4-0.04h-0.39
		c-0.34,0.06-0.67,0.06-1.01,0h-0.39c-0.08,0.06-0.16,0.06-0.23,0h-0.39c-0.03,0.11-0.12,0.07-0.19,0.08
		c-0.98,0.07-1.95,0.19-2.92,0.39c-4.37,0.88-8.25,2.73-11.41,5.9c-3.07,3.08-4.97,6.7-4.91,11.2c0.03,2.14-0.01,4.29-0.02,6.43
		c0,0.04,0,0.08,0,0.12l2.38-0.62c0.01-1.6-0.01-3.2,0.02-4.79c0.04-1.73,0.14-3.47,0.83-5.09c1.77-4.16,4.72-7.24,8.79-9.19
		c4.88-2.34,9.98-2.68,15.17-1.31c5,1.31,8.87,4.18,11.45,8.7c0.77,1.35,1.44,2.74,1.56,4.33c0.07,0.94,0.1,1.88,0.12,2.83
		c0.05,2.04,0.01,4.08,0.19,6.12c0.05,0.59,0.45,0.94,1.02,0.95c0.58,0.02,1.04-0.36,1.13-0.95c0.03-0.23,0.04-0.46,0.05-0.69
		C69.42,121.73,69.31,118.75,69.32,115.76z"/>
	<path class="st6" d="M65.85,135.66c-0.18,0.34-0.37,0.69-0.63,0.97c-0.82,0.91-1.39,1.98-1.94,3.06c-1.21,2.4-2.51,4.74-4.2,6.85
		c-1.68,2.09-3.6,3.9-6.12,4.93c-4.71,1.94-9.07,1.19-13.04-1.92c-2.4-1.88-4.13-4.31-5.64-6.92c-0.81-1.4-1.49-2.86-2.21-4.3
		l4.53,3.7c-0.04-0.02-0.08-0.03-0.13-0.05c0.96,1.74,1.95,3.46,3.39,4.86c1.42,1.39,3,2.48,4.95,2.97
		c1.29,0.32,2.62,0.25,3.93,0.28c2.1,0.05,3.95-0.63,5.66-1.78c1.8-1.22,3.1-2.9,4.24-4.72c1.17-1.87,2.09-3.88,3.02-5.87
		c0.33-0.72,0.75-1.37,1.27-1.98c1.12-1.31,1.68-2.85,1.71-4.58c0.01-0.57-0.07-1.13-0.43-1.62c-0.52-0.7-1.05-0.73-1.62-0.09
		c-0.44,0.5-0.73,1.09-1.02,1.68c-0.13,0.26-0.21,0.55-0.45,0.82c0.05-0.26,0.08-0.46,0.12-0.66c0.4-2.22,0.87-4.43,1.03-6.69
		c0.04-0.64,0.1-0.54-0.49-0.56c-2.61-0.11-5.2-0.34-7.77-0.87c-3.66-0.75-7.05-2.12-10.06-4.36c-1.08-0.8-2.05-1.74-3.07-2.6
		c-0.16-0.13-0.31-0.21-0.52-0.15c-1.38,0.36-2.65,0.92-3.7,1.92c-0.91,0.87-1.67,1.86-2.31,2.95c-0.4,0.69-0.58,1.42-0.59,2.21
		c-0.04,2.24,0.33,4.42,0.73,6.61c0.12,0.67,0.25,1.33,0.37,2.03c-0.19-0.07-0.2-0.22-0.25-0.33c-0.27-0.57-0.53-1.14-0.9-1.66
		c-0.2-0.29-0.42-0.56-0.74-0.72c-0.32-0.16-0.59-0.07-0.86,0.13c-0.11,0.08-0.17,0.16-0.2,0.25l-0.61-1.36
		c0.08-0.33,0.04-0.55,0-0.77c-0.31-2.16-0.54-4.33-0.49-6.52c0.05-2.06,0.21-4.11,0.94-6.06c1.23-3.33,3.54-5.72,6.62-7.38
		c3.44-1.86,7.15-2.51,11.03-2.27c3.12,0.2,6.08,1,8.78,2.59c3.75,2.21,6.07,5.44,6.77,9.77c0.33,2.01,0.24,4.05,0.14,6.07
		c-0.07,1.36-0.2,2.7-0.42,4.04c-0.04,0.25-0.05,0.43,0.31,0.36c0.29-0.06,0.56,0.09,0.79,0.26c0.68,0.49,1.06,1.15,1.13,1.98
		C67.06,132.11,66.77,133.95,65.85,135.66z"/>
	<path class="st7" d="M50.29,143.47c-0.25,0.95-0.79,1.66-1.83,1.82c-1.43,0.21-2.85,0.21-4.26-0.2c-0.1-0.03-0.2-0.06-0.3-0.09
		l-1.09-2.81c0.32,0.11,0.51,0.07,0.74-0.24c0.54-0.76,1.22-1.32,2.25-1.25c0.66,0.04,1.32,0,1.98,0.04
		c0.62,0.03,1.27,0.04,1.74,0.51C50.13,141.85,50.53,142.58,50.29,143.47z"/>
	<path class="st0" d="M43.9,145c-1.85-0.53-3.72-1.03-5.42-1.97c-0.61-0.34-1.21-0.71-1.88-0.98l-4.53-3.7
		c-0.01-0.02-0.02-0.05-0.03-0.07c-0.04-0.07-0.06-0.15-0.11-0.2l2.17-1.65c0.1,0.16,0.21,0.32,0.34,0.46
		c2.33,2.5,5.14,4.24,8.37,5.3L43.9,145z"/>
	<path class="st7" d="M34.1,136.43l-2.17,1.65c-0.05-0.05-0.12-0.08-0.24-0.05c-2.44,0.46-4.11-0.31-5.23-2.52
		c-0.9-1.78-1.6-3.66-2.03-5.62c-0.19-0.88-0.18-1.81,0.03-2.7c0.25-1.1,0.89-1.97,1.95-2.45c0.17-0.08,0.21-0.18,0.21-0.3
		l2.38-0.62v0.05c0,0.18,0.02,0.32,0.21,0.39c0.49,0.19,0.77,0.6,0.95,1.07c0.27,0.68,0.52,1.37,0.79,2.05
		c0.08,0.21,0.19,0.41,0.33,0.72l0.61,1.36c-0.04,0.13-0.01,0.27,0.04,0.43c0.08,0.24,0.14,0.5,0.21,0.74
		c0.52,1.71,1.21,3.37,1.66,5.1C33.89,135.99,33.98,136.22,34.1,136.43z"/>
	<line class="st8" x1="39.52" y1="144.43" x2="36.6" y2="142.04"/>
	<line class="st8" x1="32.08" y1="138.34" x2="31.69" y2="138.02"/>
	<line class="st8" x1="33.54" y1="133.08" x2="31.91" y2="129.47"/>
</g>
<g>
	<path class="st0" d="M72,66.67c0,1.54,0,3.09,0,4.63c0,1.83-0.81,2.97-2.56,3.58c-3.09,1.07-6.18,2.12-9.27,3.19
		c-3,1.04-6.02,2.04-8.99,3.15c-2.22,0.83-4.36,0.76-6.56-0.07c-2.25-0.85-4.54-1.59-6.81-2.38c-3.75-1.3-7.51-2.59-11.26-3.89
		c-1.75-0.61-2.53-1.72-2.53-3.59c0-3.18,0-6.36,0-9.54c0-1.63,0.83-2.23,2.38-1.68c5.22,1.85,10.43,3.72,15.64,5.57
		c1.76,0.62,2.93,0.08,3.69-1.62c0.43-0.95,0.89-1.89,1.35-2.83c0.19-0.39,0.41-0.77,0.94-0.77c0.53,0.01,0.74,0.39,0.93,0.79
		c0.45,0.92,0.91,1.83,1.32,2.77c0.76,1.73,1.94,2.28,3.73,1.65c5.18-1.83,10.34-3.68,15.51-5.53c0.13-0.05,0.26-0.09,0.39-0.13
		c1.23-0.36,2.09,0.25,2.1,1.53C72.01,63.21,72,64.94,72,66.67z"/>
	<path class="st0" d="M47.98,51.81c-0.87,1.92-1.71,3.75-2.53,5.59c-0.62,1.39-1.21,2.79-1.85,4.16c-0.53,1.14-1.89,1.65-3.11,1.22
		c-4.93-1.72-9.86-3.43-14.79-5.15c-1.35-0.47-2.69-0.96-4.04-1.44c-1.28-0.46-1.8-1.57-1.26-2.83c0.8-1.85,1.65-3.69,2.48-5.53
		c0.54-1.2,1.08-2.4,1.6-3.61c0.19-0.44,0.36-0.64,0.9-0.44c7.34,2.59,14.69,5.15,22.03,7.73c0.41,0.14,0.77,0.15,1.18,0.01
		c3.66-1.29,7.32-2.57,10.98-3.85c3.64-1.27,7.29-2.54,10.92-3.83c0.54-0.19,0.79-0.17,1.05,0.44c1.27,2.94,2.6,5.84,3.94,8.75
		c0.72,1.58,0.28,2.68-1.35,3.25c-6.19,2.16-12.38,4.32-18.57,6.49c-1.31,0.46-2.63-0.11-3.2-1.39c-1.38-3.11-2.78-6.21-4.17-9.32
		C48.15,52.01,48.1,51.97,47.98,51.81z"/>
	<path class="st0" d="M54.95,24.3c0.72,0.1,1.66,0.52,2.62,0.84c2.77,0.94,5.53,1.93,8.29,2.89c2.81,0.98,5.61,1.96,8.42,2.94
		c1.37,0.48,1.89,1.57,1.33,2.85c-1.34,3.05-2.72,6.09-4.07,9.14c-0.2,0.44-0.4,0.62-0.93,0.44c-4.68-1.66-9.38-3.29-14.07-4.92
		c-0.34-0.12-0.58-0.25-0.63-0.69c-0.3-2.86-1.04-5.61-2.32-8.2c-0.43-0.87-0.83-1.76-1.39-2.57c-0.4-0.58,0.07-1.05,0.33-1.49
		C52.98,24.75,53.67,24.25,54.95,24.3z"/>
	<path class="st0" d="M20.19,32.92c0.01-1.12,1.33-2.34,2.38-2.16c0.39,0.07,0.65,0.4,0.95,0.63c3.03,2.3,6.04,4.62,9.06,6.93
		c0.61,0.47,1.23,0.93,1.83,1.4c0.1,0.08,0.24,0.19,0.25,0.29c0.02,0.21-0.2,0.2-0.34,0.25c-1.47,0.53-2.95,1.06-4.42,1.57
		c-1.52,0.53-3.05,1.03-4.57,1.57c-0.41,0.15-0.63,0.06-0.8-0.33c-1.41-3.17-2.84-6.33-4.26-9.5
		C20.18,33.37,20.19,33.14,20.19,32.92z"/>
	<path class="st1" d="M54.53,46.91L54.53,46.91c0.07-2.14,0.12-4.27-0.14-6.4c0,0,0,0,0,0c0.03-0.24,0-0.47-0.1-0.68l0,0
		c0-0.61-0.08-1.2-0.25-1.78c-0.02-0.28,0.02-0.58-0.15-0.83c0,0,0,0,0,0c-0.01-0.51-0.14-0.99-0.3-1.47
		c-0.05-0.33-0.08-0.67-0.25-0.97c0,0,0,0,0,0c-0.02-0.38-0.17-0.73-0.3-1.08c-0.04-0.25-0.1-0.48-0.25-0.69c0,0,0,0,0,0
		c-0.07-0.5-0.28-0.94-0.5-1.38c-0.05-0.25-0.12-0.5-0.3-0.7c0,0,0,0,0,0c-0.13-0.42-0.28-0.84-0.55-1.19h0l0,0
		c-0.04-0.21-0.13-0.39-0.28-0.54c-0.15-0.45-0.42-0.84-0.7-1.22c-0.08-0.22-0.19-0.43-0.38-0.58c0,0,0,0,0,0
		c-0.17-0.35-0.39-0.67-0.67-0.94c-0.11-0.21-0.23-0.41-0.43-0.54c0,0,0,0,0,0c-0.22-0.36-0.48-0.69-0.82-0.95
		c-0.14-0.23-0.32-0.42-0.54-0.56c0,0,0,0,0,0c-0.25-0.3-0.52-0.57-0.85-0.79c-0.17-0.14-0.35-0.28-0.52-0.42
		c-0.34-0.31-0.67-0.63-1.1-0.81l0,0l0,0c-0.18-0.12-0.36-0.25-0.54-0.37c0,0,0,0,0,0v0c-0.33-0.25-0.67-0.48-1.07-0.6c0,0,0,0,0,0
		c-0.2-0.18-0.44-0.3-0.7-0.38c0,0,0,0,0,0c-0.44-0.23-0.88-0.45-1.36-0.57c0,0,0,0,0,0c-0.2-0.16-0.44-0.22-0.68-0.25c0,0,0,0,0,0
		l0,0c-0.44-0.19-0.88-0.39-1.37-0.42l0,0c-0.17-0.11-0.35-0.15-0.55-0.14l0,0c-0.19-0.12-0.4-0.16-0.62-0.15
		c-0.2-1.03-0.04-2.08-0.09-3.11c0-0.03,0-0.07,0-0.1c0.01-0.1,0.01-0.19-0.01-0.26c-0.01-0.4-0.04-0.79-0.23-1.16c0,0,0,0,0,0
		c-0.17-0.55-0.55-0.74-1.1-0.66c0,0,0,0,0,0c0,0,0,0,0,0c-1.05,0.19-1.7,1-2.48,1.6c0,0,0,0,0,0c-0.44,0.32-0.88,0.63-1.31,0.96
		c-2.33,1.8-4.66,3.61-6.99,5.42c0,0,0,0,0,0c-1.17,0.89-2.35,1.75-3.49,2.67c-0.49,0.39-0.79,0.93-0.72,1.6c0,0,0,0,0,0
		c0,0,0,0,0,0c-0.06,0.63,0.18,1.14,0.66,1.54h0c0.1,0.17,0.24,0.3,0.42,0.38c0,0,0,0,0,0c0.27,0.28,0.57,0.52,0.91,0.69
		c0,0,0,0,0,0c0.2,0.16,0.4,0.32,0.6,0.48c0,0,0,0,0,0l0,0c0.32,0.24,0.64,0.48,0.96,0.72c0,0,0,0,0,0c0,0,0,0,0,0
		c0.18,0.14,0.36,0.27,0.54,0.41c0.33,0.31,0.67,0.61,1.08,0.83c0.14,0.2,0.34,0.32,0.55,0.42c0,0,0,0,0,0
		c0.33,0.32,0.68,0.61,1.09,0.83c0.14,0.12,0.28,0.23,0.43,0.35c0,0,0,0,0,0c0.31,0.24,0.63,0.48,0.94,0.71
		c0.14,0.2,0.34,0.31,0.55,0.42c0,0,0,0,0,0c0.32,0.32,0.68,0.59,1.07,0.82c0.12,0.16,0.26,0.28,0.45,0.36c0,0,0,0,0,0v0
		c0.4,0.3,0.8,0.6,1.19,0.9c0,0,0,0,0,0c0.15,0.11,0.29,0.23,0.44,0.34c0,0,0,0,0,0l0,0c0.28,0.27,0.58,0.52,0.93,0.71c0,0,0,0,0,0
		c0.14,0.2,0.34,0.32,0.55,0.42c0,0,0,0,0,0c0.36,0.36,0.73,0.68,1.23,0.83c0.23,0.13,0.46,0.24,0.72,0.12
		c0.66-0.08,0.87-0.53,0.92-1.11l0,0c0.23-0.99,0.07-2,0.1-3c0.01-0.32,0.02-0.59,0.45-0.54c0,0,0,0,0,0l0,0
		c0.13,0.04,0.27,0.07,0.4,0.11c0,0,0,0,0,0l0,0c0.45,0.1,0.9,0.21,1.36,0.31c0,0,0,0,0,0c0.26,0.15,0.54,0.21,0.83,0.26
		c0,0,0,0,0,0l0,0c0.41,0.14,0.82,0.28,1.22,0.42c0,0,0,0,0,0c0.19,0.08,0.37,0.16,0.56,0.24c0,0,0,0,0,0
		c0.44,0.2,0.89,0.39,1.33,0.59c0,0,0,0,0,0c0.18,0.1,0.37,0.19,0.55,0.29c0,0,0,0,0,0c0.37,0.22,0.74,0.43,1.12,0.65l0,0
		c0,0,0,0,0,0c0.22,0.14,0.44,0.28,0.67,0.43c0,0,0,0,0,0c0.31,0.23,0.63,0.45,0.94,0.68c0,0,0,0,0,0c0.14,0.2,0.34,0.31,0.55,0.43
		c0,0,0,0,0,0c0.27,0.31,0.58,0.58,0.93,0.81c0,0,0,0,0,0c0.19,0.18,0.38,0.37,0.57,0.55c0,0,0,0,0,0c0.28,0.31,0.57,0.61,0.85,0.92
		l0,0l0,0c0.08,0.18,0.21,0.32,0.38,0.43c0,0,0,0,0,0c0.28,0.36,0.56,0.72,0.83,1.07h0c0.13,0.19,0.26,0.37,0.4,0.56c0,0,0,0,0,0
		c0.8,1.32,1.59,2.65,2.19,4.08c0.01,0.14,0.04,0.31,0.2,0.29C54.58,47.2,54.55,47.02,54.53,46.91
		C54.53,46.91,54.53,46.91,54.53,46.91z M37.99,34.92C37.99,34.92,37.99,34.91,37.99,34.92C38,34.92,38,34.92,37.99,34.92
		C37.99,34.92,37.99,34.92,37.99,34.92z M38.02,18.58c0,0,0.01-0.01,0.01-0.01c0,0,0,0,0,0c0,0.01,0,0.01,0,0.02
		C38.03,18.59,38.03,18.59,38.02,18.58z"/>
</g>
</svg>
