<?xml version="1.0" encoding="utf-8"?>
<!-- Generator: Adobe Illustrator 23.0.0, SVG Export Plug-In . SVG Version: 6.00 Build 0)  -->
<svg version="1.1" id="Layer_1" xmlns="http://www.w3.org/2000/svg" xmlns:xlink="http://www.w3.org/1999/xlink" x="0px" y="0px"
	 viewBox="0 0 595.3 841.9" style="enable-background:new 0 0 595.3 841.9;" xml:space="preserve">
<path d="M204.3,411.8c-1.1,13.9-2.2,27.7-3.5,41.6c-4.2,45.3-5.1,90.7-4,136.2c0.1,3.1-0.9,4.8-3.8,6.1c-11.4,5.2-23,5.5-34.7,1.8
	c-1.8-0.6-4-3.2-4.2-5.1c-2.2-21.7-5-43.3-5.9-65.1c-1.9-46.3,0.5-92.6,4.3-138.8c2.6-32,5.9-63.9,13.1-95.3
	c1.4-6,3.4-11.9,5.1-17.9c2.4-8.5,7.9-14.2,16.3-16.7c6.4-2,12.9-3.9,19.5-5.1c13.8-2.6,26.5-7.8,38.1-15.6c1.2-0.8,2.3-1.6,3.5-2.4
	c0.3-0.2,0.6-0.1,1.3-0.2c-2.6,8.3-5,16.6-7.9,24.7c-2,5.6-1.8,10.2,3.7,13.7c1.3,0.8,2.4,2,3.6,3c-0.2,0.4-0.4,0.8-0.6,1.3
	c-5.3-0.8-10.6-1.5-17.4-2.5c1.9,8.7,3.3,17,5.6,25c9,31.1,22.8,60.3,37.5,89c7,13.5,14.3,26.8,22.6,39.8c-2.7-11.6-5.5-23.1-8-34.7
	c-11.9-55.4-21.6-111.1-23-167.9c-0.1-4.5,1.5-7.2,5-9.5c15.9-10.5,40-10.1,55.3,0.9c4,2.8,5.6,6,5.5,11.1
	c-1.5,48.2-8.8,95.7-18.3,142.8c-3.9,19.4-8.4,38.7-12.2,58.2c26.9-49,54.5-97.7,65.6-154.6c-3.7,0.5-6.4,0.8-9.1,1.2
	c-2.8,0.4-5.6,0.8-9.1,0.3c1.5-1.5,2.9-3.2,4.6-4.4c4.3-2.9,4.6-6.4,3-10.9c-2.8-8.2-5.1-16.5-7.9-25.3c1,0.5,1.7,0.8,2.4,1.2
	c12.9,9,27.3,14.5,42.8,16.6c19.5,2.6,31.9,12.1,35.1,32.3c3.8,24.3,9,48.5,11.8,72.9c5.9,51.9,8.3,104,7.5,156.2
	c-0.4,25.4-1.2,50.7-5.8,75.8c-0.7,4-2.5,5.9-6.2,6.7c-11.2,2.5-22.1,2.4-32.8-2.3c-2.9-1.3-4.1-3-4.1-6.4
	c-0.5-35.8-0.6-71.7-2-107.5c-0.9-23.4-3.6-46.7-5.6-71.6c-1.6,3.2-3.2,5.1-3.6,7.3c-1.3,7.5-3.5,15.1-3.1,22.5
	c1.1,20.7,2.4,41.5,5.3,62c3.8,27,4,54.1,3.8,81.3c0,6-0.2,12.1,0.1,18.1c0.3,6.5-2.2,11.7-6.7,16.1c-17.5,17.2-53.2,24.8-74.3-7.8
	c-7.5-11.7-11.4-24.7-14.5-39.5c-0.8,2.2-1.2,3.1-1.5,4.1c-3.3,14.1-7.6,27.7-16.5,39.4c-18.2,23.8-53.4,25-72.8,2.1
	c-2.7-3.2-5-7.8-5-11.8c-0.1-25.4-0.4-50.8,1-76.1c1.1-19.8,4.6-39.4,6.6-59.2c1.6-15.5,2.9-31.1-0.5-46.6
	c-0.8-3.6-2.5-7.1-3.7-10.6C205.1,411.6,204.7,411.7,204.3,411.8z M304,482.2c4.1,0,7.3-3.3,7.3-6.8c0-3.5-3.4-6.8-6.9-6.8
	c-3.6,0-6.9,3.3-6.7,6.9C298,479.7,300.5,481.8,304,482.2z M304,523c4.5-0.1,7-2.4,7.1-6.5c0.1-4-2.2-6.7-6.5-6.8
	c-4.2-0.1-6.8,2.3-6.9,6.4C297.7,520.3,300.1,522.6,304,523z"/>
</svg>
