<?xml version="1.0" encoding="utf-8"?>
<!-- Generator: Adobe Illustrator 23.0.0, SVG Export Plug-In . SVG Version: 6.00 Build 0)  -->
<svg version="1.1" id="Layer_1" xmlns="http://www.w3.org/2000/svg" xmlns:xlink="http://www.w3.org/1999/xlink" x="0px" y="0px"
	 viewBox="0 0 595.28 841.89" style="enable-background:new 0 0 595.28 841.89;" xml:space="preserve">
<path d="M204.28,411.8c-1.15,13.86-2.18,27.74-3.48,41.59c-4.24,45.3-5.11,90.7-4.04,136.16c0.07,3.13-0.95,4.8-3.76,6.08
	c-11.37,5.2-23.01,5.49-34.74,1.81c-1.81-0.57-4.01-3.2-4.2-5.07c-2.21-21.68-4.98-43.35-5.85-65.1
	c-1.85-46.34,0.53-92.61,4.31-138.8c2.62-32.01,5.91-63.93,13.05-95.32c1.37-6.03,3.44-11.9,5.12-17.86
	c2.41-8.55,7.9-14.18,16.31-16.73c6.43-1.95,12.92-3.87,19.51-5.08c13.83-2.55,26.47-7.77,38.1-15.59c1.18-0.79,2.34-1.61,3.54-2.37
	c0.26-0.16,0.65-0.12,1.25-0.21c-2.62,8.33-4.99,16.62-7.86,24.72c-2,5.64-1.83,10.24,3.66,13.72c1.3,0.82,2.39,1.99,3.57,2.99
	c-0.21,0.42-0.43,0.84-0.64,1.26c-5.28-0.75-10.56-1.49-17.35-2.45c1.92,8.74,3.27,17.02,5.59,25.03
	c9.01,31.12,22.76,60.3,37.52,89.01c6.95,13.52,14.32,26.82,22.61,39.78c-2.66-11.57-5.46-23.12-7.95-34.73
	c-11.85-55.39-21.59-111.06-22.97-167.89c-0.11-4.53,1.48-7.17,5.04-9.52c15.91-10.51,39.96-10.1,55.33,0.91
	c3.95,2.83,5.61,5.97,5.45,11.07c-1.54,48.21-8.82,95.67-18.29,142.84c-3.9,19.4-8.39,38.68-12.24,58.17
	c26.85-49.04,54.52-97.74,65.55-154.58c-3.66,0.47-6.37,0.79-9.08,1.17c-2.79,0.39-5.56,0.83-9.07,0.29
	c1.52-1.48,2.87-3.22,4.6-4.38c4.26-2.85,4.56-6.38,3.01-10.93c-2.78-8.18-5.15-16.51-7.85-25.33c1.02,0.52,1.74,0.78,2.35,1.21
	c12.9,9.01,27.25,14.49,42.75,16.55c19.45,2.58,31.94,12.09,35.11,32.3c3.82,24.33,8.97,48.48,11.76,72.92
	c5.92,51.88,8.28,104.01,7.54,156.23c-0.36,25.36-1.17,50.73-5.84,75.8c-0.74,3.98-2.46,5.88-6.18,6.72
	c-11.19,2.53-22.13,2.42-32.82-2.33c-2.94-1.31-4.1-2.98-4.15-6.4c-0.48-35.84-0.65-71.69-2-107.5
	c-0.88-23.38-3.56-46.68-5.57-71.65c-1.64,3.2-3.23,5.13-3.61,7.27c-1.33,7.48-3.48,15.09-3.08,22.54
	c1.1,20.7,2.44,41.46,5.31,61.97c3.78,27.03,3.96,54.11,3.83,81.26c-0.03,6.03-0.23,12.08,0.06,18.1c0.31,6.55-2.21,11.7-6.74,16.13
	c-17.55,17.16-53.24,24.78-74.26-7.82c-7.52-11.67-11.35-24.7-14.5-39.48c-0.79,2.16-1.24,3.09-1.47,4.07
	c-3.29,14.07-7.58,27.7-16.52,39.41c-18.16,23.79-53.42,24.96-72.82,2.08c-2.68-3.16-5-7.84-5.02-11.82
	c-0.15-25.37-0.39-50.78,0.96-76.09c1.06-19.79,4.6-39.44,6.65-59.2c1.61-15.53,2.95-31.15-0.53-46.63
	c-0.82-3.63-2.47-7.07-3.73-10.6C205.1,411.57,204.69,411.68,204.28,411.8z M304.03,482.21c4.11-0.01,7.34-3.25,7.3-6.82
	c-0.04-3.54-3.36-6.83-6.87-6.8c-3.59,0.02-6.88,3.26-6.7,6.88C297.95,479.66,300.48,481.75,304.03,482.21z M304.05,522.99
	c4.48-0.09,7.03-2.4,7.15-6.46c0.12-4.05-2.24-6.71-6.5-6.81c-4.21-0.1-6.76,2.28-6.9,6.41
	C297.66,520.27,300.12,522.58,304.05,522.99z"/>
</svg>
