<?xml version="1.0" encoding="utf-8"?>
<!-- Generator: Adobe Illustrator 23.0.0, SVG Export Plug-In . SVG Version: 6.00 Build 0)  -->
<svg version="1.1" id="Layer_1" xmlns="http://www.w3.org/2000/svg" xmlns:xlink="http://www.w3.org/1999/xlink" x="0px" y="0px"
	 viewBox="0 0 96 96" style="enable-background:new 0 0 96 96;" xml:space="preserve">
<style type="text/css">
	.st0{fill:#333333;}
</style>
<g id="XMLID_1_">
	<path id="XMLID_3_" class="st0" d="M47.78,43.3c2.72,0,4.92,2.2,4.92,4.92c0,2.72-2.2,4.92-4.92,4.92c-2.72,0-4.92-2.2-4.92-4.92
		C42.86,45.51,45.06,43.3,47.78,43.3z"/>
	<path id="XMLID_7_" class="st0" d="M53.92,36.15h-12.3c-1.79,0-3.35,0.56-4.36,1.56c-1.01,1.01-1.56,2.57-1.56,4.36v12.3
		c0,1.79,0.56,3.35,1.68,4.47c1.12,1.01,2.57,1.57,4.36,1.57h12.18c1.79,0,3.35-0.56,4.36-1.57c1.12-1.01,1.68-2.57,1.68-4.36v-12.3
		c0-1.79-0.56-3.24-1.57-4.36C57.28,36.71,55.82,36.15,53.92,36.15z M47.78,55.83c-4.25,0-7.6-3.47-7.6-7.6c0-4.25,3.47-7.6,7.6-7.6
		c4.14,0,7.71,3.35,7.71,7.6S52.02,55.83,47.78,55.83z M55.71,42.08c-1.01,0-1.79-0.78-1.79-1.79s0.78-1.79,1.79-1.79
		c1.01,0,1.79,0.78,1.79,1.79S56.72,42.08,55.71,42.08z"/>
	<path id="XMLID_10_" class="st0" d="M48,20.5c-15.2,0-27.5,12.3-27.5,27.5S32.8,75.5,48,75.5c15.2,0,27.5-12.3,27.5-27.5
		C75.61,32.8,63.2,20.5,48,20.5z M62.64,54.48c0,2.57-0.89,4.81-2.46,6.37c-1.57,1.57-3.8,2.35-6.26,2.35H41.74
		c-2.46,0-4.69-0.78-6.26-2.35c-1.68-1.56-2.46-3.8-2.46-6.37v-12.3c0-5.14,3.47-8.72,8.72-8.72h12.3c2.57,0,4.7,0.89,6.26,2.46
		c1.57,1.57,2.35,3.69,2.35,6.26V54.48z"/>
</g>
</svg>
