<?xml version="1.0" encoding="utf-8"?>
<!-- Generator: Adobe Illustrator 23.0.0, SVG Export Plug-In . SVG Version: 6.00 Build 0)  -->
<svg version="1.1" id="Layer_1" xmlns="http://www.w3.org/2000/svg" xmlns:xlink="http://www.w3.org/1999/xlink" x="0px" y="0px"
	 viewBox="0 0 595.3 841.9" style="enable-background:new 0 0 595.3 841.9;" xml:space="preserve">
<g>
	<path d="M285.2,253.9c-2.1,0.9-2.9,3.3-2.9,9.3v3.7h-1c-1,0-1,0-1,1.7v1.7h-1.4h-1.4l-1.9,5.7c-6.5,19.9-11.1,42.3-13.2,63.8
		c-1.5,14.9-1.4,33.7,0,49.4l0.4,4.4h23.7h23.7l0.2-0.8c0.1-0.4,0.4-3.8,0.8-7.4c0.8-8.4,0.9-33,0.2-40.6
		c-1.1-12.5-2.7-23.5-4.9-34.5c-0.7-3.6-1.3-6.7-1.3-6.7c0.7-0.6,6-3.5,6.1-3.3c0.3,0.3,2.1,11.9,3.2,19.9c1.6,12.6,2.5,23.8,2.8,37
		l0.2,8.5l1.1,1.1c1,1,1.3,1.1,2.2,0.9c2.8-0.5,3.1-1.8,2.9-10.1c-0.8-25.4-3.2-46-8.2-70.2c-1.9-8.9-4.2-18.7-4.8-19.6
		c-0.6-1-2-1.5-3.3-1.3c-1.1,0.3-2.3,1.9-2.3,3.3c0,0.7,2,9.9,2.6,12c0.1,0.4-0.8,1.1-3.1,2.5c-1.8,1.1-3.4,1.9-3.5,1.9
		s-0.6-1.2-1-2.6c-0.4-1.5-1.5-5-2.5-8l-1.7-5.4h-1.4h-1.4v-1.7v-1.7H292h-1.2v-5c0-4.4-0.1-5.2-0.7-6.1
		C289.1,254,287,253.2,285.2,253.9L285.2,253.9z"/>
	<path d="M184.1,303.6c-18.6,10.7-17.2,9.8-18.1,12c-0.4,0.9-0.5,2-0.4,2.8c0.1,0.9,6.2,11.7,20.1,35.8c10.9,19,20.5,35.6,21.3,37
		l1.4,2.5h20.4c11.2,0,20.4-0.1,20.3-0.3s-11.8-20.5-26-45.2s-26.2-45.4-26.6-46c-1-1.4-2.8-2.2-4.7-2.2
		C190.4,300,189.3,300.5,184.1,303.6L184.1,303.6z M200.7,314.1c1,1.7,1.7,3.1,1.7,3.2c-0.2,0.1-25.1,14.5-25.8,14.8
		c-0.7,0.4-0.8,0.2-2.5-2.7c-1-1.7-1.7-3.1-1.7-3.2c0.3-0.3,26.1-15.2,26.3-15.2C198.8,311,199.7,312.4,200.7,314.1L200.7,314.1z"/>
	<path d="M379.6,300.4c-1.8,0.6-3.6,1.7-4.9,3c-0.8,0.8-11.2,18.6-26,44.3c-13.6,23.7-25.2,43.7-25.7,44.5l-0.9,1.5l13.8,0l13.8,0
		l-1.5-0.7c-0.8-0.4-1.4-0.9-1.3-1.1c0.2-0.6,45-78.1,45.4-78.6c0.6-0.8,0.8-0.4,1.1,1.4c0.1,1,0.4,2,0.7,2.2
		c0.4,0.3,19.9,11.6,22,12.7c0.6,0.3,1.1,0.3,2.5-0.3c1-0.4,1.9-0.6,2-0.5c0.3,0.3-5.9,11.1-6.3,11.1c-0.1,0-3-1.6-6.5-3.6
		c-3.5-2-6.3-3.6-6.4-3.5c-0.1,0.1-0.5,0.8-1,1.7c-0.7,1.2-0.8,1.6-0.5,1.9c0.2,0.2,3.1,1.9,6.3,3.7c3.2,1.9,5.9,3.5,5.9,3.7
		s-0.6,1.4-1.4,2.6c-0.8,1.3-2,3.4-2.7,4.7l-1.4,2.4l-5-2.9c-2.8-1.6-5.7-3.3-6.5-3.7l-1.4-0.8l-0.9,1.5c-0.5,0.8-0.9,1.6-0.9,1.8
		c0,0.2,2.8,2,6.3,4c3.5,2,6.3,3.8,6.2,3.9c-2,3.4-5.5,9.5-5.5,9.6c-0.1,0.1-3-1.5-6.5-3.5c-6.9-4-6.5-3.9-7.9-1.5l-0.7,1.2l6,3.5
		c3.3,1.9,6.3,3.6,6.5,3.8c0.4,0.2-0.2,1.4-2.3,5.1c-1.5,2.7-2.9,4.8-3.1,4.8s-3.1-1.6-6.5-3.6s-6.4-3.5-6.5-3.3
		c-0.5,0.5-1.8,3.1-1.6,3.3c0.1,0.1,2.7,1.6,5.9,3.5s6,3.5,6.3,3.8c0.4,0.3,0,1.2-1.9,4.5c-1.3,2.2-2.5,4.4-2.8,4.8l-0.4,0.8l6.3,0
		l6.3,0l3.6-6.2c3.6-6.3,12-20.9,23.1-40c3.4-5.8,6.4-11.4,6.8-12.5c1.3-3.8,0-8.2-3-10.9c-1.4-1.3-32.6-19.6-38.5-22.6
		c-1.6-0.8-2.6-1.1-4.6-1.2C381.6,300.1,380.1,300.2,379.6,300.4L379.6,300.4z"/>
	<path d="M369.2,388c-0.5,0.9-0.8,1.7-0.7,1.8c0.1,0.1,1.5,1.1,3.3,2l3.1,1.8l3.9-0.1l3.9-0.1l-6.1-3.5c-3.4-1.9-6.2-3.5-6.3-3.5
		C370.2,386.4,369.7,387.1,369.2,388L369.2,388z"/>
	<path d="M177.5,419.4v13.5l6.4,0.1l6.4,0.1l14.9,76.8c8.2,42.3,15,77.2,15.1,77.6l0.2,0.8h77.2c42.4,0,77.2,0,77.2-0.1
		c0,0,6.8-35,15.1-77.6l15.1-77.5l6.4-0.1l6.4-0.1v-13.5v-13.5H297.7H177.5V419.4L177.5,419.4z"/>
</g>
</svg>
