<?xml version="1.0" encoding="utf-8"?>
<!-- Generator: Adobe Illustrator 23.0.0, SVG Export Plug-In . SVG Version: 6.00 Build 0)  -->
<svg version="1.1" id="Layer_1" xmlns="http://www.w3.org/2000/svg" xmlns:xlink="http://www.w3.org/1999/xlink" x="0px" y="0px"
	 viewBox="0 0 96 96" style="enable-background:new 0 0 96 96;" xml:space="preserve">
<style type="text/css">
	.st0{fill:#333333;}
</style>
<g id="XMLID_1_">
	<path id="XMLID_5_" class="st0" d="M48,20.5c-15.19,0-27.5,12.31-27.5,27.5c0,15.19,12.31,27.5,27.5,27.5S75.5,63.19,75.5,48
		C75.5,32.81,63.19,20.5,48,20.5z M61.85,42.46c0.01,0.3,0.02,0.6,0.02,0.9c0,9.16-6.97,19.72-19.72,19.72
		c-3.91,0-7.56-1.15-10.62-3.11c0.54,0.06,1.09,0.1,1.65,0.1c3.25,0,6.24-1.11,8.61-2.97c-3.03-0.06-5.59-2.06-6.47-4.81
		c0.42,0.08,0.86,0.12,1.3,0.12c0.63,0,1.24-0.08,1.83-0.24c-3.17-0.64-5.56-3.44-5.56-6.79l0-0.09c0.93,0.52,2,0.83,3.14,0.87
		c-1.86-1.25-3.08-3.36-3.08-5.77c0-1.27,0.34-2.46,0.94-3.48c3.42,4.19,8.53,6.95,14.29,7.24c-0.12-0.51-0.18-1.04-0.18-1.58
		c0-3.83,3.1-6.93,6.93-6.93c1.99,0,3.79,0.84,5.06,2.19c1.58-0.31,3.06-0.89,4.4-1.68c-0.52,1.62-1.62,2.98-3.05,3.83
		c1.4-0.17,2.74-0.54,3.98-1.09C64.38,40.26,63.21,41.48,61.85,42.46z"/>
</g>
</svg>
