<?xml version="1.0" encoding="utf-8"?>
<!-- Generator: Adobe Illustrator 23.0.0, SVG Export Plug-In . SVG Version: 6.00 Build 0)  -->
<svg version="1.1" id="Layer_1" xmlns="http://www.w3.org/2000/svg" xmlns:xlink="http://www.w3.org/1999/xlink" x="0px" y="0px"
	 viewBox="0 0 96 96" style="enable-background:new 0 0 96 96;" xml:space="preserve">
<style type="text/css">
	.st0{fill:#333333;}
</style>
<g id="XMLID_1_">
	<path id="XMLID_5_" class="st0" d="M-51.86,20.5c-15.19,0-27.5,12.31-27.5,27.5c0,15.19,12.31,27.5,27.5,27.5s27.5-12.31,27.5-27.5
		C-24.36,32.81-36.67,20.5-51.86,20.5z M-38,42.46c0.01,0.3,0.02,0.6,0.02,0.9c0,9.16-6.97,19.72-19.72,19.72
		c-3.91,0-7.56-1.15-10.62-3.11c0.54,0.06,1.09,0.1,1.65,0.1c3.25,0,6.24-1.11,8.61-2.97c-3.03-0.06-5.59-2.06-6.47-4.81
		c0.42,0.08,0.86,0.12,1.3,0.12c0.63,0,1.24-0.08,1.83-0.24c-3.17-0.64-5.56-3.44-5.56-6.79l0-0.09c0.93,0.52,2,0.83,3.14,0.87
		c-1.86-1.25-3.08-3.36-3.08-5.77c0-1.27,0.34-2.46,0.94-3.48c3.42,4.19,8.53,6.95,14.29,7.24c-0.12-0.51-0.18-1.04-0.18-1.58
		c0-3.83,3.1-6.93,6.93-6.93c1.99,0,3.79,0.84,5.06,2.19c1.58-0.31,3.06-0.89,4.4-1.68c-0.52,1.62-1.62,2.98-3.05,3.83
		c1.4-0.17,2.74-0.54,3.98-1.09C-35.47,40.26-36.65,41.48-38,42.46z"/>
</g>
<g>
	<path class="st0" d="M50.12,23.2c-2.9-0.24-5.77,0.01-8.59,0.75C30.57,26.8,22.88,36.71,22.88,47.99c0,2.75,0.45,5.47,1.32,7.99
		c4.15,12.05,16.75,19.18,29.51,16.25c10.77-2.47,18.48-11.61,19.32-22.17c0.24-3.05-0.03-6.04-0.9-8.98
		C69.18,31.13,60.46,24.05,50.12,23.2z M40.81,29.79c3.94-0.01,7.18,3.17,7.19,7.05c0,3.92-3.21,7.14-7.14,7.14
		c-3.96,0.01-7.18-3.16-7.19-7.08C33.65,32.97,36.84,29.8,40.81,29.79z M37.08,62.78c-3.96-0.04-7.11-3.27-7.06-7.24
		c0.04-3.84,3.29-7,7.16-6.96c4.06,0.04,7.2,3.22,7.16,7.24C44.3,59.66,41,62.83,37.08,62.78z M44.68,48.17
		c0-1.74,1.45-3.15,3.21-3.15c1.74,0.01,3.15,1.43,3.15,3.17c0,1.73-1.43,3.13-3.19,3.12C46.1,51.32,44.68,49.9,44.68,48.17z
		 M55.17,66.21c-3.94,0-7.17-3.18-7.17-7.07c0-3.92,3.23-7.14,7.16-7.13c3.97,0,7.16,3.17,7.17,7.1
		C62.33,63.04,59.14,66.2,55.17,66.21z M58.82,47.4c-4.06-0.05-7.2-3.23-7.16-7.25c0.04-3.83,3.36-7,7.26-6.95
		c3.97,0.06,7.1,3.27,7.06,7.24C65.94,44.29,62.68,47.45,58.82,47.4z"/>
	<path class="st0" d="M76.87,35.18c-0.62-3.42-2.54-5.82-5.83-7.01c-1.47-0.53-3.02-0.84-4.54-1.25c-0.61-0.16-1.22-0.32-1.82-0.48
		C70.49,31.12,74,37.1,75.12,44.51c0.03-0.11,0.07-0.21,0.1-0.32c0.43-1.61,0.85-3.22,1.3-4.82C76.91,37.99,77.12,36.6,76.87,35.18z
		"/>
	<path class="st0" d="M51.87,74.94c0.12,0.05,0.16,0.07,0.21,0.08c1.73,0.46,3.46,0.92,5.19,1.37c1.28,0.33,2.59,0.41,3.89,0.15
		c3.35-0.67,5.72-2.57,6.87-5.8c0.63-1.78,1.02-3.64,1.52-5.46c0.04-0.14,0.08-0.29,0.12-0.43c0.03-0.13,0.06-0.27,0.1-0.48
		C65.15,70.23,59.23,73.73,51.87,74.94z"/>
	<path class="st0" d="M34.3,24.28c3.01-1.68,6.22-2.75,9.61-3.3c-0.09-0.03-0.17-0.05-0.26-0.08c-1.36-0.36-2.73-0.7-4.09-1.09
		c-1.57-0.44-3.14-0.7-4.76-0.37c-3.31,0.67-5.64,2.55-6.83,5.72c-0.51,1.37-0.8,2.82-1.19,4.23c-0.13,0.46-0.24,0.92-0.36,1.37
		C28.68,28.15,31.28,25.97,34.3,24.28z"/>
	<path class="st0" d="M20.65,52.38c-0.04,0.11-0.08,0.18-0.1,0.25c-0.41,1.51-0.82,3.01-1.22,4.52c-0.3,1.12-0.4,2.26-0.24,3.42
		c0.5,3.38,2.3,5.84,5.46,7.09c1.97,0.78,4.08,1.2,6.13,1.78c0.02-0.02,0.03-0.05,0.05-0.07C25.29,64.97,21.9,59.34,20.65,52.38z"/>
</g>
</svg>
