<?xml version="1.0" encoding="utf-8"?>
<!-- Generator: Adobe Illustrator 23.0.0, SVG Export Plug-In . SVG Version: 6.00 Build 0)  -->
<svg version="1.1" id="Layer_1" xmlns="http://www.w3.org/2000/svg" xmlns:xlink="http://www.w3.org/1999/xlink" x="0px" y="0px"
	 viewBox="0 0 96 96" style="enable-background:new 0 0 96 96;" xml:space="preserve">
<style type="text/css">
	.st0{fill:#333333;}
</style>
<g>
	<path class="st0" d="M50.1,23.2c-2.9-0.2-5.8,0-8.6,0.8c-11,2.8-18.6,12.8-18.6,24c0,2.8,0.5,5.5,1.3,8
		C28.3,68,40.9,75.2,53.7,72.2C64.5,69.8,72.2,60.6,73,50.1c0.2-3,0-6-0.9-9C69.2,31.1,60.5,24,50.1,23.2z M40.8,29.8
		c3.9,0,7.2,3.2,7.2,7c0,3.9-3.2,7.1-7.1,7.1c-4,0-7.2-3.2-7.2-7.1C33.7,33,36.8,29.8,40.8,29.8z M37.1,62.8c-4,0-7.1-3.3-7.1-7.2
		c0-3.8,3.3-7,7.2-7c4.1,0,7.2,3.2,7.2,7.2C44.3,59.7,41,62.8,37.1,62.8z M44.7,48.2c0-1.7,1.5-3.2,3.2-3.2c1.7,0,3.2,1.4,3.2,3.2
		c0,1.7-1.4,3.1-3.2,3.1C46.1,51.3,44.7,49.9,44.7,48.2z M55.2,66.2c-3.9,0-7.2-3.2-7.2-7.1c0-3.9,3.2-7.1,7.2-7.1
		c4,0,7.2,3.2,7.2,7.1C62.3,63,59.1,66.2,55.2,66.2z M58.8,47.4c-4.1,0-7.2-3.2-7.2-7.3c0-3.8,3.4-7,7.3-7c4,0.1,7.1,3.3,7.1,7.2
		C65.9,44.3,62.7,47.4,58.8,47.4z"/>
	<path class="st0" d="M76.9,35.2c-0.6-3.4-2.5-5.8-5.8-7c-1.5-0.5-3-0.8-4.5-1.3c-0.6-0.2-1.2-0.3-1.8-0.5
		c5.8,4.7,9.3,10.7,10.4,18.1c0-0.1,0.1-0.2,0.1-0.3c0.4-1.6,0.8-3.2,1.3-4.8C76.9,38,77.1,36.6,76.9,35.2z"/>
	<path class="st0" d="M51.9,74.9C52,75,52,75,52.1,75c1.7,0.5,3.5,0.9,5.2,1.4c1.3,0.3,2.6,0.4,3.9,0.2c3.3-0.7,5.7-2.6,6.9-5.8
		c0.6-1.8,1-3.6,1.5-5.5c0-0.1,0.1-0.3,0.1-0.4c0-0.1,0.1-0.3,0.1-0.5C65.2,70.2,59.2,73.7,51.9,74.9z"/>
	<path class="st0" d="M34.3,24.3c3-1.7,6.2-2.8,9.6-3.3c-0.1,0-0.2,0-0.3-0.1c-1.4-0.4-2.7-0.7-4.1-1.1c-1.6-0.4-3.1-0.7-4.8-0.4
		c-3.3,0.7-5.6,2.5-6.8,5.7c-0.5,1.4-0.8,2.8-1.2,4.2c-0.1,0.5-0.2,0.9-0.4,1.4C28.7,28.1,31.3,26,34.3,24.3z"/>
	<path class="st0" d="M20.6,52.4c0,0.1-0.1,0.2-0.1,0.3c-0.4,1.5-0.8,3-1.2,4.5c-0.3,1.1-0.4,2.3-0.2,3.4c0.5,3.4,2.3,5.8,5.5,7.1
		c2,0.8,4.1,1.2,6.1,1.8c0,0,0-0.1,0-0.1C25.3,65,21.9,59.3,20.6,52.4z"/>
</g>
</svg>
