<?xml version="1.0" encoding="utf-8"?>
<!-- Generator: Adobe Illustrator 23.0.0, SVG Export Plug-In . SVG Version: 6.00 Build 0)  -->
<svg version="1.1" id="Layer_1" xmlns="http://www.w3.org/2000/svg" xmlns:xlink="http://www.w3.org/1999/xlink" x="0px" y="0px"
	 viewBox="0 0 128 128" style="enable-background:new 0 0 128 128;" xml:space="preserve">
<style type="text/css">
	.st0{fill:#6633FF;}
	.st1{fill:#333333;}
</style>
<title>n</title>
<path class="st0" d="M71.42,41.09L60.8,51.71l-4.23-4.23c-1.25-1.25-3.27-1.26-4.53-0.01c-1.25,1.25-1.26,3.27-0.01,4.53
	c0,0,0.01,0.01,0.01,0.01l6.49,6.49c1.25,1.25,3.28,1.25,4.53,0c0,0,0,0,0,0l12.88-12.88c1.25-1.25,1.25-3.28,0-4.53
	C74.7,39.84,72.67,39.84,71.42,41.09L71.42,41.09z"/>
<path class="st0" d="M54.51,90.4c-4.71,0.8-9.46-1.21-12.15-5.15l-0.84-1.23l-11.2,23.39l10.8-0.43l6.44,8.68l12.51-26.12
	l-0.14-0.06L54.51,90.4z"/>
<path class="st0" d="M82.03,85.67l-4.05,3.71c-2.26,2.06-5.2,3.2-8.26,3.2c-0.11,0-0.22,0-0.33-0.01l11.06,23.08l6.43-8.68
	l10.8,0.43l-10.8-22.56L82.03,85.67z"/>
<path class="st1" d="M100.92,55.69l-2.17-6.71l1.8-6.82c0.69-2.6-0.21-5.36-2.29-7.07l-5.46-4.47l-2.17-6.71
	c-0.83-2.56-3.07-4.4-5.75-4.71l-7.01-0.81l-5.46-4.47c-2.08-1.71-4.97-2.04-7.38-0.86l-6.33,3.11l-7.01-0.81
	c-2.67-0.31-5.28,0.97-6.67,3.27l-3.65,6.04l-6.33,3.11c-2.42,1.18-3.92,3.67-3.85,6.36l0.19,7.05l-3.65,6.04
	c-1.39,2.3-1.31,5.21,0.2,7.43l3.98,5.83l0.19,7.05c0.07,2.69,1.71,5.09,4.19,6.14l6.5,2.75l3.98,5.83c1.52,2.22,4.19,3.36,6.84,2.9
	l6.95-1.19l6.5,2.75c2.48,1.05,5.34,0.56,7.32-1.26l5.2-4.76l6.95-1.19c2.65-0.46,4.79-2.42,5.48-5.02l1.8-6.82l5.2-4.76
	C101.01,61.06,101.75,58.25,100.92,55.69z M64,73.92c-13.32,0-24.13-10.8-24.13-24.13c0-13.32,10.8-24.13,24.13-24.13
	s24.13,10.8,24.13,24.13v0C88.13,63.12,77.32,73.92,64,73.92C64,73.92,64,73.92,64,73.92z"/>
<g>
	<path class="st1" d="M306,146.67c0,1.54,0,3.09,0,4.63c0,1.83-0.81,2.97-2.56,3.58c-3.09,1.07-6.18,2.12-9.27,3.19
		c-3,1.04-6.02,2.04-8.99,3.15c-2.22,0.83-4.36,0.76-6.56-0.07c-2.25-0.85-4.54-1.59-6.81-2.38c-3.75-1.3-7.51-2.59-11.26-3.89
		c-1.75-0.61-2.53-1.72-2.53-3.59c0-3.18,0-6.36,0-9.54c0-1.63,0.83-2.23,2.38-1.68c5.22,1.85,10.43,3.72,15.64,5.57
		c1.76,0.62,2.93,0.08,3.69-1.62c0.43-0.95,0.89-1.89,1.35-2.83c0.19-0.39,0.41-0.77,0.94-0.77c0.53,0.01,0.74,0.39,0.93,0.79
		c0.45,0.92,0.91,1.83,1.32,2.77c0.76,1.73,1.94,2.28,3.73,1.65c5.18-1.83,10.34-3.68,15.51-5.53c0.13-0.05,0.26-0.09,0.39-0.13
		c1.23-0.36,2.09,0.25,2.1,1.53C306.01,143.21,306,144.94,306,146.67z"/>
	<path class="st1" d="M281.98,131.81c-0.87,1.92-1.71,3.75-2.53,5.59c-0.62,1.39-1.21,2.79-1.85,4.16
		c-0.53,1.14-1.89,1.65-3.11,1.22c-4.93-1.72-9.86-3.43-14.79-5.15c-1.35-0.47-2.69-0.96-4.04-1.44c-1.28-0.46-1.8-1.57-1.26-2.83
		c0.8-1.85,1.65-3.69,2.48-5.53c0.54-1.2,1.08-2.4,1.6-3.61c0.19-0.44,0.36-0.64,0.9-0.44c7.34,2.59,14.69,5.15,22.03,7.73
		c0.41,0.14,0.77,0.15,1.18,0.01c3.66-1.29,7.32-2.57,10.98-3.85c3.64-1.27,7.29-2.54,10.92-3.83c0.54-0.19,0.79-0.17,1.05,0.44
		c1.27,2.94,2.6,5.84,3.94,8.75c0.72,1.58,0.28,2.68-1.35,3.25c-6.19,2.16-12.38,4.32-18.57,6.49c-1.31,0.46-2.63-0.11-3.2-1.39
		c-1.38-3.11-2.78-6.21-4.17-9.32C282.15,132.01,282.1,131.97,281.98,131.81z"/>
	<path class="st1" d="M288.95,104.3c0.72,0.1,1.66,0.52,2.62,0.84c2.77,0.94,5.53,1.93,8.29,2.89c2.81,0.98,5.61,1.96,8.42,2.94
		c1.37,0.48,1.89,1.57,1.33,2.85c-1.34,3.05-2.72,6.09-4.07,9.14c-0.2,0.44-0.4,0.62-0.93,0.44c-4.68-1.66-9.38-3.29-14.07-4.92
		c-0.34-0.12-0.58-0.25-0.63-0.69c-0.3-2.86-1.04-5.61-2.32-8.2c-0.43-0.87-0.83-1.76-1.39-2.57c-0.4-0.58,0.07-1.05,0.33-1.49
		C286.98,104.75,287.67,104.25,288.95,104.3z"/>
	<path class="st1" d="M254.19,112.92c0.01-1.12,1.33-2.34,2.38-2.16c0.39,0.07,0.65,0.4,0.95,0.63c3.03,2.3,6.04,4.62,9.06,6.93
		c0.61,0.47,1.23,0.93,1.83,1.4c0.1,0.08,0.24,0.19,0.25,0.29c0.02,0.21-0.2,0.2-0.34,0.25c-1.47,0.53-2.95,1.06-4.42,1.57
		c-1.52,0.53-3.05,1.03-4.57,1.57c-0.41,0.15-0.63,0.06-0.8-0.33c-1.41-3.17-2.84-6.33-4.26-9.5
		C254.18,113.37,254.19,113.14,254.19,112.92z"/>
	<path class="st0" d="M288.53,126.91L288.53,126.91c0.07-2.14,0.12-4.27-0.14-6.4c0,0,0,0,0,0c0.03-0.24,0-0.47-0.1-0.68v0
		c0-0.61-0.08-1.2-0.25-1.78c-0.02-0.28,0.02-0.58-0.15-0.83c0,0,0,0,0,0c-0.01-0.51-0.14-0.99-0.3-1.47
		c-0.05-0.33-0.08-0.67-0.25-0.97c0,0,0,0,0,0c-0.02-0.38-0.17-0.73-0.3-1.08c-0.04-0.25-0.1-0.48-0.25-0.69c0,0,0,0,0,0
		c-0.07-0.5-0.28-0.94-0.5-1.38c-0.05-0.25-0.12-0.5-0.3-0.7c0,0,0,0,0,0c-0.13-0.42-0.28-0.84-0.55-1.19l0,0v0
		c-0.04-0.21-0.13-0.39-0.28-0.54c-0.15-0.45-0.42-0.84-0.7-1.22c-0.08-0.22-0.19-0.43-0.38-0.58c0,0,0,0,0,0
		c-0.17-0.35-0.39-0.67-0.67-0.94c-0.11-0.21-0.23-0.41-0.43-0.54c0,0,0,0,0,0c-0.22-0.36-0.48-0.69-0.82-0.95
		c-0.14-0.23-0.32-0.42-0.54-0.56c0,0,0,0,0,0c-0.25-0.3-0.52-0.57-0.85-0.79c-0.17-0.14-0.35-0.28-0.52-0.42
		c-0.34-0.31-0.67-0.63-1.1-0.81l0,0v0c-0.18-0.12-0.36-0.25-0.54-0.37c0,0,0,0,0,0v0c-0.33-0.25-0.67-0.48-1.07-0.6c0,0,0,0,0,0
		c-0.2-0.18-0.44-0.3-0.7-0.38c0,0,0,0,0,0c-0.44-0.23-0.88-0.45-1.36-0.57c0,0,0,0,0,0c-0.2-0.16-0.44-0.22-0.68-0.25c0,0,0,0,0,0
		l0,0c-0.44-0.19-0.88-0.39-1.37-0.42v0c-0.17-0.11-0.35-0.15-0.55-0.14v0c-0.19-0.12-0.4-0.16-0.62-0.15
		c-0.2-1.03-0.04-2.08-0.09-3.11c0-0.03,0-0.07,0-0.1c0.01-0.1,0.01-0.19-0.01-0.26c-0.01-0.4-0.04-0.79-0.23-1.16c0,0,0,0,0,0
		c-0.17-0.55-0.55-0.74-1.1-0.66c0,0,0,0,0,0c0,0,0,0,0,0c-1.05,0.19-1.7,1-2.48,1.6c0,0,0,0,0,0c-0.44,0.32-0.88,0.63-1.31,0.96
		c-2.33,1.8-4.66,3.61-6.99,5.42c0,0,0,0,0,0c-1.17,0.89-2.35,1.75-3.49,2.67c-0.49,0.39-0.79,0.93-0.72,1.6c0,0,0,0,0,0
		c0,0,0,0,0,0c-0.06,0.63,0.18,1.14,0.66,1.54l0,0c0.1,0.17,0.24,0.3,0.42,0.38c0,0,0,0,0,0c0.27,0.28,0.57,0.52,0.91,0.69
		c0,0,0,0,0,0c0.2,0.16,0.4,0.32,0.6,0.48c0,0,0,0,0,0l0,0c0.32,0.24,0.64,0.48,0.96,0.72c0,0,0,0,0,0s0,0,0,0
		c0.18,0.14,0.36,0.27,0.54,0.41c0.33,0.31,0.67,0.61,1.08,0.83c0.14,0.2,0.34,0.32,0.55,0.42c0,0,0,0,0,0
		c0.33,0.32,0.68,0.61,1.09,0.83c0.14,0.12,0.28,0.23,0.43,0.35c0,0,0,0,0,0c0.31,0.24,0.63,0.48,0.94,0.71
		c0.14,0.2,0.34,0.31,0.55,0.42c0,0,0,0,0,0c0.32,0.32,0.68,0.59,1.07,0.82c0.12,0.16,0.26,0.28,0.45,0.36c0,0,0,0,0,0v0
		c0.4,0.3,0.8,0.6,1.19,0.9c0,0,0,0,0,0c0.15,0.11,0.29,0.23,0.44,0.34c0,0,0,0,0,0l0,0c0.28,0.27,0.58,0.52,0.93,0.71c0,0,0,0,0,0
		c0.14,0.2,0.34,0.32,0.55,0.42c0,0,0,0,0,0c0.36,0.36,0.73,0.68,1.23,0.83c0.23,0.13,0.46,0.24,0.72,0.12
		c0.66-0.08,0.87-0.53,0.92-1.11v0c0.23-0.99,0.07-2,0.1-3c0.01-0.32,0.02-0.59,0.45-0.54c0,0,0,0,0,0l0,0
		c0.13,0.04,0.27,0.07,0.4,0.11c0,0,0,0,0,0l0,0c0.45,0.1,0.9,0.21,1.36,0.31c0,0,0,0,0,0c0.26,0.15,0.54,0.21,0.83,0.26
		c0,0,0,0,0,0v0c0.41,0.14,0.82,0.28,1.22,0.42c0,0,0,0,0,0c0.19,0.08,0.37,0.16,0.56,0.24c0,0,0,0,0,0
		c0.44,0.2,0.89,0.39,1.33,0.59c0,0,0,0,0,0c0.18,0.1,0.37,0.19,0.55,0.29c0,0,0,0,0,0c0.37,0.22,0.74,0.43,1.12,0.65v0c0,0,0,0,0,0
		c0.22,0.14,0.44,0.28,0.67,0.43c0,0,0,0,0,0c0.31,0.23,0.63,0.45,0.94,0.68c0,0,0,0,0,0c0.14,0.2,0.34,0.31,0.55,0.43c0,0,0,0,0,0
		c0.27,0.31,0.58,0.58,0.93,0.81c0,0,0,0,0,0c0.19,0.18,0.38,0.37,0.57,0.55c0,0,0,0,0,0c0.28,0.31,0.57,0.61,0.85,0.92l0,0v0
		c0.08,0.18,0.21,0.32,0.38,0.43c0,0,0,0,0,0c0.28,0.36,0.56,0.72,0.83,1.07l0,0c0.13,0.19,0.26,0.37,0.4,0.56c0,0,0,0,0,0
		c0.8,1.32,1.59,2.65,2.19,4.08c0.01,0.14,0.04,0.31,0.2,0.29C288.58,127.2,288.55,127.02,288.53,126.91
		C288.53,126.91,288.53,126.91,288.53,126.91z M271.99,114.92C271.99,114.92,271.99,114.91,271.99,114.92
		C272,114.92,272,114.92,271.99,114.92C271.99,114.92,271.99,114.92,271.99,114.92z M272.02,98.58c0,0,0.01-0.01,0.01-0.01
		c0,0,0,0,0,0c0,0.01,0,0.01,0,0.02C272.04,98.59,272.03,98.59,272.02,98.58z"/>
</g>
</svg>
