<?xml version="1.0" encoding="utf-8"?>
<!-- Generator: Adobe Illustrator 23.0.0, SVG Export Plug-In . SVG Version: 6.00 Build 0)  -->
<svg version="1.1" id="Layer_1" xmlns="http://www.w3.org/2000/svg" xmlns:xlink="http://www.w3.org/1999/xlink" x="0px" y="0px"
	 viewBox="0 0 96 96" style="enable-background:new 0 0 96 96;" xml:space="preserve">
<style type="text/css">
	.st0{fill:#333333;}
</style>
<g id="XMLID_1_">
	<path id="XMLID_5_" class="st0" d="M48,20.5c-15.2,0-27.5,12.3-27.5,27.5S32.8,75.5,48,75.5S75.5,63.2,75.5,48S63.2,20.5,48,20.5z
		 M61.5,39.3L57,60.6c-0.3,1.5-1.2,1.9-2.5,1.2l-6.9-5.1l-3.3,3.2c-0.4,0.4-0.7,0.7-1.4,0.7c-0.9,0-0.7-0.3-1-1.2l-2.3-7.7l-6.8-2.1
		c-1.5-0.5-1.5-1.5,0.3-2.2l26.5-10.2C60.8,36.7,62,37.5,61.5,39.3z"/>
</g>
</svg>
