<?xml version="1.0" encoding="utf-8"?>
<!-- Generator: Adobe Illustrator 23.0.0, SVG Export Plug-In . SVG Version: 6.00 Build 0)  -->
<svg version="1.1" id="Layer_1" xmlns="http://www.w3.org/2000/svg" xmlns:xlink="http://www.w3.org/1999/xlink" x="0px" y="0px"
	 viewBox="0 0 96 96" style="enable-background:new 0 0 96 96;" xml:space="preserve">
<style type="text/css">
	.st0{fill:#FF9933;}
</style>
<path id="XMLID_7_" class="st0" d="M80.5,29.43c0-2.55-2.09-4.64-4.64-4.64H20.14c-2.55,0-4.64,2.09-4.64,4.64v6.96h65V29.43z
	 M15.5,66.57c0,2.55,2.09,4.64,4.64,4.64h55.71c2.55,0,4.64-2.09,4.64-4.64V43.36h-65V66.57z M36.1,59.61H59.9
	c1.12,0,2.03,0.91,2.03,2.03c0,1.12-0.91,2.03-2.03,2.03H36.1c-1.12,0-2.03-0.91-2.03-2.03C34.07,60.52,34.99,59.61,36.1,59.61z
	 M25.66,59.61h1.74c1.12,0,2.03,0.91,2.03,2.03c0,1.12-0.91,2.03-2.03,2.03h-1.74c-1.12,0-2.03-0.91-2.03-2.03
	C23.63,60.52,24.54,59.61,25.66,59.61z"/>
</svg>
