<?xml version="1.0" encoding="utf-8"?>
<!-- Generator: Adobe Illustrator 23.0.0, SVG Export Plug-In . SVG Version: 6.00 Build 0)  -->
<svg version="1.1" id="Layer_1" xmlns="http://www.w3.org/2000/svg" xmlns:xlink="http://www.w3.org/1999/xlink" x="0px" y="0px"
	 viewBox="0 0 595.28 841.89" style="enable-background:new 0 0 595.28 841.89;" xml:space="preserve">
<path d="M-393.58,411.8c-1.15,13.86-2.18,27.74-3.48,41.59c-4.24,45.3-5.11,90.7-4.04,136.16c0.07,3.13-0.95,4.8-3.76,6.08
	c-11.37,5.2-23.01,5.49-34.74,1.81c-1.81-0.57-4.01-3.2-4.2-5.07c-2.21-21.68-4.98-43.35-5.85-65.1
	c-1.85-46.34,0.53-92.61,4.31-138.8c2.62-32.01,5.91-63.93,13.05-95.32c1.37-6.03,3.44-11.9,5.12-17.86
	c2.41-8.55,7.9-14.18,16.31-16.73c6.43-1.95,12.92-3.87,19.51-5.08c13.83-2.55,26.47-7.77,38.1-15.59c1.18-0.79,2.34-1.61,3.54-2.37
	c0.26-0.16,0.65-0.12,1.25-0.21c-2.62,8.33-4.99,16.62-7.86,24.72c-2,5.64-1.83,10.24,3.66,13.72c1.3,0.82,2.39,1.99,3.57,2.99
	c-0.21,0.42-0.43,0.84-0.64,1.26c-5.28-0.75-10.56-1.49-17.35-2.45c1.92,8.74,3.27,17.02,5.59,25.03
	c9.01,31.12,22.76,60.3,37.52,89.01c6.95,13.52,14.32,26.82,22.61,39.78c-2.66-11.57-5.46-23.12-7.95-34.73
	c-11.85-55.39-21.59-111.06-22.97-167.89c-0.11-4.53,1.48-7.17,5.04-9.52c15.91-10.51,39.96-10.1,55.33,0.91
	c3.95,2.83,5.61,5.97,5.45,11.07c-1.54,48.21-8.82,95.67-18.29,142.84c-3.9,19.4-8.39,38.68-12.24,58.17
	c26.85-49.04,54.52-97.74,65.55-154.58c-3.66,0.47-6.37,0.79-9.08,1.17c-2.79,0.39-5.56,0.83-9.07,0.29
	c1.52-1.48,2.87-3.22,4.6-4.38c4.26-2.85,4.56-6.38,3.01-10.93c-2.78-8.18-5.15-16.51-7.85-25.33c1.02,0.52,1.74,0.78,2.35,1.21
	c12.9,9.01,27.25,14.49,42.75,16.55c19.45,2.58,31.94,12.09,35.11,32.3c3.82,24.33,8.97,48.48,11.76,72.92
	c5.92,51.88,8.28,104.01,7.54,156.23c-0.36,25.36-1.17,50.73-5.84,75.8c-0.74,3.98-2.46,5.88-6.18,6.72
	c-11.19,2.53-22.13,2.42-32.82-2.33c-2.94-1.31-4.1-2.98-4.15-6.4c-0.48-35.84-0.65-71.69-2-107.5
	c-0.88-23.38-3.56-46.68-5.57-71.65c-1.64,3.2-3.23,5.13-3.61,7.27c-1.33,7.48-3.48,15.09-3.08,22.54
	c1.1,20.7,2.44,41.46,5.31,61.97c3.78,27.03,3.96,54.11,3.83,81.26c-0.03,6.03-0.23,12.08,0.06,18.1c0.31,6.55-2.21,11.7-6.74,16.13
	c-17.55,17.16-53.24,24.78-74.26-7.82c-7.52-11.67-11.35-24.7-14.5-39.48c-0.79,2.16-1.24,3.09-1.47,4.07
	c-3.29,14.07-7.58,27.7-16.52,39.41c-18.16,23.79-53.42,24.96-72.82,2.08c-2.68-3.16-5-7.84-5.02-11.82
	c-0.15-25.37-0.39-50.78,0.96-76.09c1.06-19.79,4.6-39.44,6.65-59.2c1.61-15.53,2.95-31.15-0.53-46.63
	c-0.82-3.63-2.47-7.07-3.73-10.6C-392.75,411.57-393.16,411.68-393.58,411.8z M-293.83,482.21c4.11-0.01,7.34-3.25,7.3-6.82
	c-0.04-3.54-3.36-6.83-6.87-6.8c-3.59,0.02-6.88,3.26-6.7,6.88C-299.9,479.66-297.37,481.75-293.83,482.21z M-293.81,522.99
	c4.48-0.09,7.03-2.4,7.15-6.46c0.12-4.05-2.24-6.71-6.5-6.81c-4.21-0.1-6.76,2.28-6.9,6.41
	C-300.2,520.27-297.74,522.58-293.81,522.99z"/>
<g id="XMLID_2_">
	<path id="XMLID_10_" d="M-531.71,395.27c7.09,0,13.14,2.51,18.15,7.52c5.01,5.01,7.52,11.06,7.52,18.15s-2.51,13.14-7.52,18.15
		c-5.01,5.01-11.06,7.52-18.15,7.52h-3.01l-23.06,132.76c-1.07,6.15-4.01,11.23-8.82,15.24c-4.81,4.01-10.29,6.02-16.44,6.02h-256.7
		c-6.15,0-11.63-2.01-16.44-6.02c-4.81-4.01-7.76-9.09-8.82-15.24l-23.06-132.76h-3.01c-7.09,0-13.14-2.51-18.15-7.52
		c-5.01-5.01-7.52-11.06-7.52-18.15s2.51-13.14,7.52-18.15c5.01-5.01,11.06-7.52,18.15-7.52H-531.71z M-819.5,555.71
		c3.48-0.27,6.38-1.77,8.72-4.51c2.34-2.74,3.38-5.85,3.11-9.33l-6.42-83.43c-0.27-3.48-1.77-6.38-4.51-8.72
		c-2.74-2.34-5.85-3.38-9.33-3.11c-3.48,0.27-6.38,1.77-8.72,4.51c-2.34,2.74-3.38,5.85-3.11,9.33l6.42,83.43
		c0.27,3.34,1.64,6.15,4.11,8.42c2.47,2.27,5.38,3.41,8.72,3.41H-819.5z M-737.07,542.88v-83.43c0-3.48-1.27-6.48-3.81-9.02
		c-2.54-2.54-5.55-3.81-9.02-3.81c-3.48,0-6.48,1.27-9.02,3.81c-2.54,2.54-3.81,5.55-3.81,9.02v83.43c0,3.48,1.27,6.48,3.81,9.02
		c2.54,2.54,5.55,3.81,9.02,3.81c3.48,0,6.48-1.27,9.02-3.81C-738.34,549.36-737.07,546.35-737.07,542.88z M-660.06,542.88v-83.43
		c0-3.48-1.27-6.48-3.81-9.02c-2.54-2.54-5.55-3.81-9.02-3.81c-3.48,0-6.48,1.27-9.02,3.81c-2.54,2.54-3.81,5.55-3.81,9.02v83.43
		c0,3.48,1.27,6.48,3.81,9.02c2.54,2.54,5.55,3.81,9.02,3.81c3.48,0,6.48-1.27,9.02-3.81
		C-661.33,549.36-660.06,546.35-660.06,542.88z M-589.47,543.88l6.42-83.43c0.27-3.48-0.77-6.58-3.11-9.33
		c-2.34-2.74-5.25-4.24-8.72-4.51c-3.48-0.27-6.58,0.77-9.33,3.11c-2.74,2.34-4.24,5.25-4.51,8.72l-6.42,83.43
		c-0.27,3.48,0.77,6.59,3.11,9.33c2.34,2.74,5.25,4.25,8.72,4.51h1c3.34,0,6.25-1.14,8.72-3.41
		C-591.11,550.03-589.73,547.22-589.47,543.88z M-821.3,299.81l-18.65,82.63h-26.47l20.26-88.44c2.54-11.77,8.49-21.36,17.85-28.78
		c9.36-7.42,20.05-11.13,32.09-11.13h33.49c0-3.48,1.27-6.48,3.81-9.02c2.54-2.54,5.55-3.81,9.02-3.81h77.01
		c3.48,0,6.48,1.27,9.02,3.81c2.54,2.54,3.81,5.55,3.81,9.02h33.49c12.03,0,22.73,3.71,32.09,11.13
		c9.36,7.42,15.31,17.01,17.85,28.78l20.26,88.44h-26.47l-18.65-82.63c-1.47-5.88-4.51-10.7-9.12-14.44
		c-4.61-3.74-9.93-5.61-15.94-5.61h-33.49c0,3.48-1.27,6.48-3.81,9.02c-2.54,2.54-5.55,3.81-9.02,3.81h-77.01
		c-3.48,0-6.48-1.27-9.02-3.81c-2.54-2.54-3.81-5.55-3.81-9.02h-33.49c-6.02,0-11.33,1.87-15.94,5.61
		C-816.79,289.12-819.83,293.93-821.3,299.81z"/>
</g>
<g>
	<path d="M-209.81,687.22c-2.15,0.9-2.9,3.29-2.9,9.27v3.72h-1.02c-1,0-1.02,0.03-1.02,1.71v1.71h-1.35h-1.35l-1.86,5.74
		c-6.45,19.86-11.08,42.27-13.18,63.75c-1.45,14.85-1.44,33.74,0.02,49.41l0.41,4.37h23.68h23.68l0.17-0.77
		c0.09-0.42,0.44-3.77,0.77-7.43c0.75-8.37,0.85-32.97,0.16-40.63c-1.12-12.53-2.68-23.53-4.88-34.45
		c-0.74-3.65-1.31-6.69-1.27-6.72c0.72-0.65,5.96-3.47,6.12-3.28c0.31,0.34,2.15,11.88,3.18,19.87c1.61,12.59,2.46,23.77,2.8,37.05
		l0.22,8.54l1.14,1.14c0.96,0.96,1.32,1.11,2.2,0.94c2.79-0.54,3.14-1.78,2.88-10.07c-0.8-25.4-3.22-46.05-8.23-70.2
		c-1.85-8.91-4.24-18.69-4.79-19.57c-0.63-1.01-2.01-1.54-3.28-1.26c-1.15,0.25-2.32,1.91-2.32,3.28c0,0.72,1.98,9.9,2.57,11.95
		c0.12,0.4-0.75,1.08-3.14,2.48c-1.81,1.06-3.4,1.93-3.53,1.93c-0.13,0-0.57-1.18-0.99-2.65c-0.41-1.46-1.52-5.05-2.46-8.02
		l-1.71-5.38h-1.35h-1.35v-1.71v-1.71h-1.2h-1.2v-5.04c0-4.4-0.08-5.17-0.67-6.13C-205.92,687.27-208.05,686.49-209.81,687.22
		L-209.81,687.22z"/>
	<path d="M-310.91,736.85c-18.58,10.68-17.22,9.78-18.1,12.05c-0.36,0.92-0.51,2-0.39,2.8c0.13,0.9,6.21,11.73,20.09,35.77
		c10.94,18.95,20.53,35.58,21.29,36.95l1.38,2.48h20.42c11.23,0,20.35-0.12,20.27-0.26c-0.08-0.14-11.79-20.47-26-45.16
		c-14.21-24.69-26.21-45.38-26.65-45.96c-1.04-1.38-2.78-2.19-4.7-2.19C-304.58,733.33-305.69,733.84-310.91,736.85L-310.91,736.85z
		 M-294.33,747.36c0.97,1.71,1.71,3.14,1.66,3.19c-0.2,0.15-25.06,14.47-25.78,14.84c-0.67,0.35-0.83,0.17-2.48-2.73
		c-0.97-1.71-1.71-3.15-1.66-3.2c0.31-0.27,26.1-15.18,26.29-15.19C-296.18,744.26-295.3,745.66-294.33,747.36L-294.33,747.36z"/>
	<path d="M-115.39,733.64c-1.78,0.57-3.63,1.71-4.87,3c-0.75,0.78-11.21,18.58-26.05,44.32c-13.64,23.66-25.19,43.68-25.66,44.47
		l-0.85,1.45l13.78-0.02l13.78-0.02l-1.47-0.73c-0.82-0.41-1.4-0.92-1.31-1.14c0.22-0.58,44.98-78.12,45.37-78.6
		c0.6-0.75,0.84-0.44,1.06,1.37c0.12,0.99,0.42,1.95,0.67,2.17c0.37,0.33,19.87,11.62,21.99,12.73c0.61,0.32,1.09,0.26,2.53-0.31
		c0.99-0.39,1.85-0.62,1.95-0.53c0.28,0.28-5.87,11.13-6.32,11.13c-0.11,0-3.04-1.63-6.49-3.62c-3.45-1.99-6.33-3.57-6.39-3.5
		c-0.06,0.06-0.52,0.84-1.01,1.69c-0.71,1.23-0.81,1.64-0.48,1.91c0.24,0.19,3.07,1.86,6.32,3.72c3.24,1.86,5.89,3.51,5.89,3.67
		s-0.61,1.35-1.37,2.65c-0.75,1.29-1.98,3.43-2.73,4.73l-1.37,2.37l-5.04-2.92c-2.77-1.6-5.68-3.29-6.47-3.74l-1.43-0.82l-0.87,1.49
		c-0.48,0.82-0.87,1.65-0.87,1.84c0,0.2,2.83,2,6.32,4.01c3.48,2.01,6.26,3.76,6.18,3.89c-1.96,3.41-5.47,9.46-5.55,9.56
		c-0.06,0.07-2.98-1.51-6.46-3.52c-6.93-3.99-6.52-3.91-7.93-1.54l-0.71,1.2l6.04,3.48c3.31,1.91,6.25,3.61,6.5,3.77
		c0.35,0.22-0.2,1.43-2.34,5.12c-1.54,2.66-2.92,4.83-3.07,4.83c-0.15,0-3.07-1.61-6.52-3.59c-3.45-1.98-6.36-3.46-6.49-3.31
		c-0.48,0.55-1.78,3.14-1.64,3.26c0.08,0.07,2.73,1.62,5.94,3.47c3.21,1.85,6,3.53,6.25,3.76c0.36,0.33-0.01,1.2-1.91,4.47
		c-1.29,2.22-2.54,4.41-2.77,4.83l-0.41,0.77l6.25-0.02l6.25-0.02l3.56-6.21c3.62-6.32,12.02-20.9,23.07-40.02
		c3.37-5.84,6.4-11.43,6.76-12.46c1.28-3.76,0.05-8.17-3.03-10.89c-1.44-1.27-32.64-19.59-38.55-22.64
		c-1.64-0.84-2.56-1.08-4.61-1.16C-113.38,733.41-114.93,733.49-115.39,733.64L-115.39,733.64z"/>
	<path d="M-125.78,821.29c-0.48,0.85-0.81,1.7-0.72,1.84c0.09,0.15,1.55,1.06,3.26,2.03l3.09,1.76l3.94-0.1l3.94-0.1l-6.15-3.5
		c-3.38-1.92-6.22-3.5-6.32-3.5C-124.81,819.72-125.29,820.43-125.78,821.29L-125.78,821.29z"/>
	<path d="M-317.54,852.67v13.49l6.39,0.09l6.39,0.09l14.94,76.83c8.22,42.27,15.02,77.17,15.13,77.6l0.19,0.77h77.17
		c42.44,0,77.18-0.04,77.19-0.09c0.01-0.05,6.81-34.95,15.13-77.6l15.11-77.51l6.39-0.09l6.39-0.09v-13.49v-13.49h-120.19h-120.19
		V852.67L-317.54,852.67z"/>
</g>
<g>
	<path d="M489.55,579.66c-10.08-15.98-21.64-31.63-10.7-52.4c2.24-4.25,1.62-11.11,0.06-16.06c-5.64-17.88-1.07-33.8,5.44-50.57
		c5.48-14.12-1.8-34.08-9.51-39.02c-21.79-13.95-13.95-29.67-9.05-45.65c3.14-10.23,9.72-19.41,14.84-29.01
		c7.26-13.6,10.92-28.16,11.6-43.47c0.36-8.14-0.05-17.25-10.01-18.82c-24.69-3.9-28.4-17.99-20.71-38.71
		c0.62-1.66,1.45-3.6,1.14-5.2c-2.05-10.62-7.82-17.51-19.33-18.22c-11.24-0.69-17.42,5.29-18.14,15.78
		c-0.61,8.94-2.88,17.92-0.33,27.07c2.67,9.58-1.32,17.92-10.11,20.62c-12.81,3.94-21.45,17.55-37.57,14.45
		c-5.44-1.05-12.28,4.15-18.24,7.01c-8.21,3.93-16.15,8.46-25.8,6.47c-2.17,0.53-3.46,1.91-3.9,4.09
		c-0.45,8.62,5.48,10.38,11.88,9.64c11.92-1.4,24.35-0.29,35.54-6.06c6.47-5.47,13.07-9.87,23.57-2.42
		c-8.16,2.27-14.13,3.94-20.11,5.6c-9.58,10.35-24.05,16.89-25.04,33.84c-1.05,17.89,18.66,50.38,36.1,58.51
		c3.46-1.42,8.03,1.71,10.81-3.42c1.73-3.18-8.59-6.71,0.59-8.54c1.05-0.21,2.74,1.71,3.82,2.91c3.54,3.94,1.57,7.78-0.84,11.17
		c-2.58,3.64-6.29,5.22-10.84,3.81c-8.5,15.6-10.88,31.92-8.96,49.77c1.48,13.82,12.86,26.72,7.79,39.88
		c-4.86,12.62-1.1,20.44,5.77,29.36c7.05,9.16,13.64,18.66,5.91,30.77c-4.42,4.11-7.57,9.09-9.9,14.62
		c-4.77,11.29-3.37,19.8,10.3,22.69c15.29,1.64,24.53-6.96,31.84-18.81c1.8-4.73,1.84-9.55,0.85-14.45
		c-10.2-36.83-2.04-75.03-8.49-112.14c-0.05-0.31,0.72-0.77,1.39-1.45c10.9,26.8,1.55,58.22,19.61,83.26
		c2.27,3.14,0.05,8.31-0.7,12.49c-1.08,6.04-1.52,12.04,0.58,17.95c4.92,8.28,5.11,19.47,15.11,24.63
		c8.49,3.24,16.22,0.24,23.94-2.9C497.11,592.28,493.76,586.33,489.55,579.66z M392.47,389.23c-21.21-17.2-20.29-31.66,4.91-56.68
		C412.33,352.32,393.19,370.05,392.47,389.23z M421.57,332.36c12.8,3.4,22.29,2.41,29.78,8.66
		C441.01,344.29,432.56,341.66,421.57,332.36z M420.58,300.9c11.94-2.34,23.8,3.53,36.42-8.21
		C446.98,308.4,437.06,309.84,420.58,300.9z"/>
	<path d="M329.13,351.85c-5.38-3.96-10.97-5.15-17.11-3.35c-10.4,3.05-11.31,13.61-11.56,20.77c-0.43,12.06-6.98,17.47-16.15,18.12
		c-19.19,1.36-36.39,6.93-53.12,16.23c-8.67,4.82-25.17-6.09-21.09-11.67c11.96-16.4-4.49-19.51-10.78-26.58
		c-9.66-10.86-20.81-20.38-31.19-30.61c-8.03-7.91-12.92-15.94-0.79-24.82c3.1-2.27,4.16-7.46,1.64-9.89
		c-6.98-6.71-4.17-14.54-4.06-22.12c0.07-5.47,1.07-11.61-6.26-13.16c-6.94-1.47-9.84,4.05-11.96,8.99
		c-5.01,11.64-9.73,23.1-21.12,30.52c-6.65,4.34-4.38,8.68,1.94,11.93c17.67,9.08,22.33,26.13,21.34,43.15
		c-1.2,20.59,6.64,32.16,24.6,40.66c12.76,6.04,12.2,17.1-0.14,23.75c-5.02,2.7-8.88,6.21-12.48,10.25
		c-1.93,2.17-4.43,5.4-1.91,7.89c2.62,2.59,5.99,1.55,9.81-0.1c10.32-4.44,22.13-4.93,28.7,5c8.97,13.55,11.96,30.4,16.79,45.65
		c1.73,5.46-13.64,16.64-21.66,24.76c-3.3,3.34-8.1,5.14-11.69,8.25c-7.04,6.1-17.76,9.71-18.71,20.45
		c-1.33,15-7.49,14.66-19.23,9.52c-19.41-8.5-36.12-0.02-36.05,18.03c0.02,6.22-0.73,10.79-3.42,16.27
		c-5.34,10.89-0.64,19.84,8.36,26.67c10.44,7.92,15.21-1.8,20.81-7.41c14.1-14.12,26.66-29.89,48.04-34.16
		c14.51-2.9,28.2-7.37,31.78-25.42c1.54-7.77,8.66-11.64,16.44-15.32c14.8-7,30.4-12.13,44.08-22.45
		c7.78-5.87,3.38-18.23,16.57-20.62c-3.31,13.06,2.89,25.16-3.54,37.7c-3.9,7.61,1.48,14.99,9.28,16.7
		c11.29,2.47,23.37,4.61,33.8-5.22c-6.8-5.81-15.25-4.6-22.15-7.69c-2.83-1.27-9.46-1.94-6.51-6.25
		c11.04-16.09,7.66-38.37,17.71-52.11c16.92-23.15,13.41-46.19,10.52-70.25c-1.22-10.16-3.8-18.84,2.53-29.08
		C334.42,369.57,338.69,358.89,329.13,351.85z M249.07,432.06c-9.32,5.35-13.33-2.66-18.52-8.83c7.93-4.25,16-10.07,23.38-4.57
		C258.28,421.9,253.57,429.47,249.07,432.06z"/>
</g>
</svg>
