<?xml version="1.0" encoding="utf-8"?>
<!-- Generator: Adobe Illustrator 23.0.0, SVG Export Plug-In . SVG Version: 6.00 Build 0)  -->
<svg version="1.1" id="Layer_1" xmlns="http://www.w3.org/2000/svg" xmlns:xlink="http://www.w3.org/1999/xlink" x="0px" y="0px"
	 viewBox="0 0 96 96" style="enable-background:new 0 0 96 96;" xml:space="preserve">
<style type="text/css">
	.st0{fill:#6633FF;}
	.st1{fill:#131313;}
	.st2{fill:#4D4D4D;}
	.st3{fill:#2B2B2B;}
	.st4{fill:#7E7E7E;}
	.st5{fill:#333333;}
	.st6{fill:#330000;}
	.st7{fill:#FF6600;}
	.st8{fill:none;}
</style>
<g>
	<path class="st0" d="M-1381,583c1.9-0.9,0.9-2.6,1-3.9c0.9-27.1,1-54.3,3-81.4c2.2-29.7,7.5-58.6,18.8-86.4
		c8.7-21.4,22.3-37.6,42-49.6c25.1-15.3,52-25.8,79.8-34.6c52.6-16.7,106.3-29.6,159.3-44.8c0.9-0.3,1.9-0.3,3-0.5
		c0.6,5.8-0.4,11.2-0.9,16.6c-2.9,31.5,3.4,60.9,17.9,89.2c18.8,36.6,38.1,72.8,64.4,104.7c20.1,24.5,42.8,46.1,69.8,63
		c2.6,1.6,4,1,6.1-0.3c30.3-19.2,55.9-43.8,77.2-72.4c26.7-35.9,48.2-74.9,66-115.9c4.9-11.3,7.6-23,8.2-35.3
		c0.8-16.6,2-33.2-1.3-50.2c3.8,0.1,7.2,1.9,10.8,2.9c49.8,14.2,100.3,26.4,149.7,42c32.6,10.3,64.2,22.4,92.6,42.2
		c17.4,12.1,26.4,29.4,33.9,48.1c10.6,26.2,14.9,53.8,16.9,81.7c2,27.4,2.1,54.9,3,82.4c0,1.2-0.8,2.7,1,3.4c0,1.7,0.6,3.9-2.5,3
		c-0.6-0.2-1.3,0-2,0c-304.3,0-608.7,0-913,0C-1379.4,587-1382.1,587.3-1381,583z"/>
	<path class="st1" d="M-919-393c-4.3,1.6-8.7,1.7-13,0C-927.7-393-923.3-393-919-393z"/>
	<path class="st2" d="M-903-393c-1.7,2-3.9,0.6-5.9,0.9c-0.4-0.2-0.5-0.3-0.4-0.5c0.1-0.2,0.2-0.3,0.3-0.3C-907-393-905-393-903-393
		z"/>
	<path class="st3" d="M-909-393c0,0.3,0,0.6,0.1,0.9c-1.8,0-3.6,0.7-5.1-0.9C-912.3-393-910.7-393-909-393z"/>
	<path class="st4" d="M-937-393c-1,1.4-2,1.7-3,0C-939-393-938-393-937-393z"/>
	<path class="st5" d="M-645.2-193.9c0-5.9-1.1-11.5-2.8-17.1c-11.2-36.4-29.3-68.8-55.8-96.2c-49.4-50.8-110.7-76.2-180.3-84
		c-4.3-0.5-8.8,0.1-12.9-1.9h-6c-1.9,1.1-3.9,0.3-5.9,0.5c-1.7-0.2-3.5,0.5-5.1-0.5h-5c-4.3,0.8-8.7,0.8-13,0h-5c-1,0.8-2,0.8-3,0
		h-5c-0.4,1.4-1.5,1-2.4,1c-12.6,1-25.2,2.5-37.6,5c-56.3,11.3-106.4,35.2-147.1,76.1c-39.6,39.8-64.1,86.4-63.3,144.4
		c0.4,27.6-0.2,55.3-0.3,83c0,0.6,0,1.1,0,1.6l30.7-8c0.1-20.6-0.2-41.2,0.3-61.8c0.5-22.3,1.8-44.8,10.7-65.7
		c22.9-53.7,60.9-93.4,113.4-118.5c62.9-30.1,128.7-34.5,195.7-16.9c64.4,16.9,114.3,53.9,147.6,112.2c9.9,17.4,18.6,35.3,20.1,55.8
		c0.9,12.1,1.2,24.3,1.5,36.4c0.6,26.3,0.2,52.7,2.5,78.9c0.7,7.7,5.8,12.1,13.2,12.3c7.5,0.2,13.4-4.6,14.5-12.2c0.4-3,0.6-6,0.7-9
		C-643.9-116.9-645.3-155.4-645.2-193.9z"/>
	<path class="st6" d="M-690,62.8c-2.4,4.4-4.7,8.9-8.1,12.6c-10.6,11.8-17.9,25.6-25,39.5c-15.7,30.9-32.4,61.2-54.1,88.3
		c-21.6,27-46.5,50.3-78.9,63.6c-60.8,25-117,15.3-168.2-24.8c-30.9-24.2-53.3-55.6-72.8-89.3c-10.4-18-19.2-36.8-28.5-55.4
		l58.4,47.8c-0.5-0.2-1.1-0.4-1.7-0.6c12.4,22.4,25.2,44.6,43.7,62.7c18.3,17.9,38.8,32,63.8,38.3c16.6,4.2,33.7,3.2,50.7,3.6
		c27,0.7,51-8.1,73-23c23.2-15.8,39.9-37.4,54.6-60.9c15.1-24.1,26.9-50,38.9-75.8c4.3-9.2,9.6-17.7,16.3-25.5
		c14.5-16.9,21.7-36.8,22.1-59c0.1-7.4-0.9-14.6-5.5-20.8c-6.7-9-13.5-9.4-20.8-1.1c-5.7,6.4-9.5,14-13.2,21.7
		c-1.6,3.4-2.7,7.1-5.8,10.6c0.6-3.3,1-5.9,1.5-8.4c5.1-28.7,11.2-57.2,13.2-86.3c0.6-8.3,1.3-6.9-6.4-7.3
		c-33.6-1.4-67.1-4.3-100.2-11.2c-47.2-9.7-90.9-27.3-129.7-56.2c-13.9-10.4-26.4-22.4-39.6-33.6c-2-1.7-4-2.7-6.8-1.9
		c-17.8,4.6-34.2,11.8-47.7,24.8c-11.8,11.3-21.6,23.9-29.7,38c-5.2,8.9-7.4,18.3-7.6,28.5c-0.5,28.8,4.3,57,9.4,85.2
		c1.6,8.6,3.2,17.2,4.8,26.2c-2.5-0.9-2.6-2.8-3.2-4.2c-3.5-7.3-6.9-14.8-11.6-21.5c-2.6-3.7-5.4-7.2-9.6-9.3c-4.1-2-7.6-1-11.1,1.6
		c-1.4,1-2.2,2.1-2.5,3.2l-7.9-17.5c1-4.3,0.5-7.1,0.1-9.9c-4.1-27.9-7-55.9-6.3-84.1c0.7-26.5,2.8-52.9,12.1-78.1
		c15.9-42.9,45.7-73.7,85.4-95.2c44.4-24,92.2-32.4,142.3-29.3c40.3,2.5,78.4,12.9,113.3,33.4c48.4,28.5,78.3,70.2,87.4,126
		c4.2,26,3.1,52.2,1.8,78.3c-0.8,17.5-2.6,34.9-5.5,52.2c-0.5,3.2-0.6,5.6,4,4.7c3.8-0.7,7.2,1.2,10.2,3.4
		c8.8,6.3,13.7,14.9,14.5,25.6C-674.2,17-678,40.7-690,62.8z"/>
	<path class="st7" d="M-890.6,163.6c-3.3,12.2-10.1,21.4-23.6,23.4c-18.4,2.7-36.7,2.7-54.9-2.6c-1.3-0.4-2.6-0.8-3.9-1.1l-14-36.3
		c4.2,1.4,6.6,0.9,9.5-3.1c7-9.8,15.8-17,29.1-16.1c8.5,0.6,17,0,25.5,0.5c7.9,0.4,16.4,0.6,22.5,6.6
		C-892.7,142.6-887.5,152-890.6,163.6z"/>
	<path class="st5" d="M-973,183.3c-23.9-6.9-47.9-13.3-70-25.5c-7.9-4.4-15.6-9.2-24.2-12.7l-58.4-47.8c-0.2-0.3-0.3-0.6-0.4-0.9
		c-0.5-0.9-0.8-1.9-1.4-2.5l27.9-21.3c1.2,2.1,2.7,4.1,4.4,5.9c30.1,32.2,66.3,54.7,108,68.4L-973,183.3z"/>
	<path class="st7" d="M-1099.4,72.7l-27.9,21.3c-0.6-0.6-1.5-1-3.1-0.7c-31.4,5.9-53-4-67.4-32.5c-11.6-23-20.6-47.2-26.2-72.5
		c-2.5-11.4-2.3-23.4,0.4-34.8c3.3-14.2,11.5-25.4,25.1-31.6c2.2-1,2.7-2.3,2.8-3.9l30.7-8v0.7c0,2.3,0.2,4.1,2.8,5.1
		c6.4,2.5,9.9,7.7,12.3,13.7c3.5,8.8,6.8,17.7,10.2,26.5c1.1,2.7,2.5,5.3,4.3,9.3l7.9,17.5c-0.5,1.7-0.2,3.5,0.5,5.6
		c1.1,3.1,1.8,6.4,2.8,9.6c6.7,22.1,15.7,43.4,21.4,65.8C-1102.1,67-1101,70-1099.4,72.7z"/>
	<line class="st8" x1="-1029.5" y1="175.9" x2="-1067.1" y2="145.1"/>
	<line class="st8" x1="-1125.5" y1="97.3" x2="-1130.5" y2="93.3"/>
	<line class="st8" x1="-1106.6" y1="29.5" x2="-1127.7" y2="-17.1"/>
</g>
<g>
	<path class="st0" d="M12.3,85.7c0.1-0.1,0.1-0.2,0.1-0.3c0.1-2.1,0.1-4.2,0.2-6.3c0.2-2.3,0.6-4.5,1.4-6.7c0.7-1.7,1.7-2.9,3.3-3.8
		c1.9-1.2,4-2,6.2-2.7c4.1-1.3,8.2-2.3,12.4-3.5c0.1,0,0.2,0,0.2,0c0,0.5,0,0.9-0.1,1.3c-0.2,2.5,0.3,4.7,1.4,6.9
		c1.5,2.8,3,5.6,5,8.1c1.6,1.9,3.3,3.6,5.4,4.9c0.2,0.1,0.3,0.1,0.5,0c2.3-1.5,4.3-3.4,6-5.6c2.1-2.8,3.7-5.8,5.1-9
		c0.4-0.9,0.6-1.8,0.6-2.7c0.1-1.3,0.2-2.6-0.1-3.9c0.3,0,0.6,0.2,0.8,0.2c3.9,1.1,7.8,2,11.6,3.3c2.5,0.8,5,1.7,7.2,3.3
		c1.3,0.9,2.1,2.3,2.6,3.7c0.8,2,1.2,4.2,1.3,6.3c0.2,2.1,0.2,4.3,0.2,6.4c0,0.1-0.1,0.2,0.1,0.3c0,0.1,0.1,0.3-0.2,0.2
		c-0.1,0-0.1,0-0.2,0c-23.6,0-47.2,0-70.8,0C12.4,86,12.2,86,12.3,85.7z"/>
	<path class="st1" d="M48.1,10c-0.3,0.1-0.7,0.1-1,0C47.4,10,47.8,10,48.1,10z"/>
	<path class="st2" d="M49.3,10c-0.1,0.1-0.3,0.1-0.5,0.1c0,0,0,0,0,0c0,0,0,0,0,0C49,10,49.2,10,49.3,10z"/>
	<path class="st3" d="M48.9,10C48.9,10,48.9,10,48.9,10c-0.1,0.1-0.3,0.1-0.4,0C48.6,10,48.7,10,48.9,10z"/>
	<path class="st4" d="M46.7,10c-0.1,0.1-0.2,0.1-0.2,0C46.5,10,46.6,10,46.7,10z"/>
	<path class="st5" d="M69.3,25.4c0-0.5-0.1-0.9-0.2-1.3c-0.9-2.8-2.3-5.3-4.3-7.5c-3.8-3.9-8.6-5.9-14-6.5c-0.3,0-0.7,0-1-0.1h-0.5
		c-0.2,0.1-0.3,0-0.5,0c-0.1,0-0.3,0-0.4,0h-0.4c-0.3,0.1-0.7,0.1-1,0h-0.4c-0.1,0.1-0.2,0.1-0.2,0H46c0,0.1-0.1,0.1-0.2,0.1
		c-1,0.1-2,0.2-2.9,0.4c-4.4,0.9-8.3,2.7-11.4,5.9c-3.1,3.1-5,6.7-4.9,11.2c0,2.1,0,4.3,0,6.4c0,0,0,0.1,0,0.1l2.4-0.6
		c0-1.6,0-3.2,0-4.8c0-1.7,0.1-3.5,0.8-5.1c1.8-4.2,4.7-7.2,8.8-9.2c4.9-2.3,10-2.7,15.2-1.3c5,1.3,8.9,4.2,11.4,8.7
		c0.8,1.4,1.4,2.7,1.6,4.3c0.1,0.9,0.1,1.9,0.1,2.8c0.1,2,0,4.1,0.2,6.1c0.1,0.6,0.4,0.9,1,1c0.6,0,1-0.4,1.1-1c0-0.2,0-0.5,0.1-0.7
		C69.4,31.4,69.3,28.4,69.3,25.4z"/>
	<path class="st6" d="M65.8,45.3c-0.2,0.3-0.4,0.7-0.6,1c-0.8,0.9-1.4,2-1.9,3.1c-1.2,2.4-2.5,4.7-4.2,6.8c-1.7,2.1-3.6,3.9-6.1,4.9
		c-4.7,1.9-9.1,1.2-13-1.9c-2.4-1.9-4.1-4.3-5.6-6.9c-0.8-1.4-1.5-2.9-2.2-4.3l4.5,3.7c0,0-0.1,0-0.1,0c1,1.7,2,3.5,3.4,4.9
		c1.4,1.4,3,2.5,5,3c1.3,0.3,2.6,0.3,3.9,0.3c2.1,0,4-0.6,5.7-1.8c1.8-1.2,3.1-2.9,4.2-4.7c1.2-1.9,2.1-3.9,3-5.9
		c0.3-0.7,0.8-1.4,1.3-2c1.1-1.3,1.7-2.8,1.7-4.6c0-0.6-0.1-1.1-0.4-1.6c-0.5-0.7-1-0.7-1.6-0.1c-0.4,0.5-0.7,1.1-1,1.7
		c-0.1,0.3-0.2,0.5-0.5,0.8c0-0.3,0.1-0.5,0.1-0.7c0.4-2.2,0.9-4.4,1-6.7c0-0.6,0.1-0.5-0.5-0.6c-2.6-0.1-5.2-0.3-7.8-0.9
		c-3.7-0.8-7-2.1-10.1-4.4c-1.1-0.8-2-1.7-3.1-2.6c-0.2-0.1-0.3-0.2-0.5-0.1c-1.4,0.4-2.7,0.9-3.7,1.9c-0.9,0.9-1.7,1.9-2.3,3
		c-0.4,0.7-0.6,1.4-0.6,2.2c0,2.2,0.3,4.4,0.7,6.6c0.1,0.7,0.3,1.3,0.4,2c-0.2-0.1-0.2-0.2-0.3-0.3c-0.3-0.6-0.5-1.1-0.9-1.7
		c-0.2-0.3-0.4-0.6-0.7-0.7c-0.3-0.2-0.6-0.1-0.9,0.1C32,39,31.9,39,31.9,39.1l-0.6-1.4c0.1-0.3,0-0.5,0-0.8
		c-0.3-2.2-0.5-4.3-0.5-6.5c0-2.1,0.2-4.1,0.9-6.1c1.2-3.3,3.5-5.7,6.6-7.4c3.4-1.9,7.2-2.5,11-2.3c3.1,0.2,6.1,1,8.8,2.6
		c3.8,2.2,6.1,5.4,6.8,9.8c0.3,2,0.2,4,0.1,6.1c-0.1,1.4-0.2,2.7-0.4,4c0,0.3-0.1,0.4,0.3,0.4c0.3-0.1,0.6,0.1,0.8,0.3
		c0.7,0.5,1.1,1.2,1.1,2C67.1,41.8,66.8,43.6,65.8,45.3z"/>
	<path class="st7" d="M50.3,53.1c-0.3,1-0.8,1.7-1.8,1.8c-1.4,0.2-2.8,0.2-4.3-0.2c-0.1,0-0.2-0.1-0.3-0.1l-1.1-2.8
		c0.3,0.1,0.5,0.1,0.7-0.2c0.5-0.8,1.2-1.3,2.3-1.3c0.7,0,1.3,0,2,0c0.6,0,1.3,0,1.7,0.5C50.1,51.5,50.5,52.3,50.3,53.1z"/>
	<path class="st5" d="M43.9,54.7c-1.8-0.5-3.7-1-5.4-2c-0.6-0.3-1.2-0.7-1.9-1L32.1,48c0,0,0,0,0-0.1c0-0.1-0.1-0.2-0.1-0.2l2.2-1.7
		c0.1,0.2,0.2,0.3,0.3,0.5c2.3,2.5,5.1,4.2,8.4,5.3L43.9,54.7z"/>
	<path class="st7" d="M34.1,46.1l-2.2,1.7c0,0-0.1-0.1-0.2,0c-2.4,0.5-4.1-0.3-5.2-2.5c-0.9-1.8-1.6-3.7-2-5.6
		c-0.2-0.9-0.2-1.8,0-2.7c0.3-1.1,0.9-2,2-2.5c0.2-0.1,0.2-0.2,0.2-0.3l2.4-0.6v0c0,0.2,0,0.3,0.2,0.4c0.5,0.2,0.8,0.6,1,1.1
		c0.3,0.7,0.5,1.4,0.8,2c0.1,0.2,0.2,0.4,0.3,0.7l0.6,1.4c0,0.1,0,0.3,0,0.4c0.1,0.2,0.1,0.5,0.2,0.7c0.5,1.7,1.2,3.4,1.7,5.1
		C33.9,45.7,34,45.9,34.1,46.1z"/>
	<line class="st8" x1="39.5" y1="54.1" x2="36.6" y2="51.7"/>
	<line class="st8" x1="32.1" y1="48" x2="31.7" y2="47.7"/>
	<line class="st8" x1="33.5" y1="42.8" x2="31.9" y2="39.1"/>
</g>
</svg>
