<?xml version="1.0" encoding="utf-8"?>
<!-- Generator: Adobe Illustrator 23.0.0, SVG Export Plug-In . SVG Version: 6.00 Build 0)  -->
<svg version="1.1" id="Layer_1" xmlns="http://www.w3.org/2000/svg" xmlns:xlink="http://www.w3.org/1999/xlink" x="0px" y="0px"
	 viewBox="0 0 595.3 841.9" style="enable-background:new 0 0 595.3 841.9;" xml:space="preserve">
<g id="XMLID_2_">
	<path id="XMLID_10_" d="M477.3,395.3c7.1,0,13.1,2.5,18.1,7.5s7.5,11.1,7.5,18.1s-2.5,13.1-7.5,18.1s-11.1,7.5-18.1,7.5h-3
		l-23.1,132.8c-1.1,6.2-4,11.2-8.8,15.2s-10.3,6-16.4,6H169.3c-6.1,0-11.6-2-16.4-6s-7.8-9.1-8.8-15.2L121,446.6h-3
		c-7.1,0-13.1-2.5-18.2-7.5s-7.5-11.1-7.5-18.1s2.5-13.1,7.5-18.1s11.1-7.5,18.2-7.5L477.3,395.3L477.3,395.3z M189.5,555.7
		c3.5-0.3,6.4-1.8,8.7-4.5s3.4-5.8,3.1-9.3l-6.4-83.4c-0.3-3.5-1.8-6.4-4.5-8.7c-2.7-2.3-5.9-3.4-9.3-3.1c-3.5,0.3-6.4,1.8-8.7,4.5
		c-2.3,2.7-3.4,5.9-3.1,9.3l6.4,83.4c0.3,3.3,1.6,6.2,4.1,8.4c2.5,2.3,5.4,3.4,8.7,3.4L189.5,555.7L189.5,555.7z M272,542.9v-83.4
		c0-3.5-1.3-6.5-3.8-9c-2.5-2.5-5.5-3.8-9-3.8c-3.5,0-6.5,1.3-9,3.8c-2.5,2.5-3.8,5.5-3.8,9v83.4c0,3.5,1.3,6.5,3.8,9
		c2.5,2.5,5.6,3.8,9,3.8c3.5,0,6.5-1.3,9-3.8C270.7,549.4,272,546.3,272,542.9z M349,542.9v-83.4c0-3.5-1.3-6.5-3.8-9
		c-2.5-2.5-5.5-3.8-9-3.8c-3.5,0-6.5,1.3-9,3.8c-2.5,2.5-3.8,5.5-3.8,9v83.4c0,3.5,1.3,6.5,3.8,9c2.5,2.5,5.5,3.8,9,3.8
		c3.5,0,6.5-1.3,9-3.8C347.7,549.4,349,546.3,349,542.9z M419.6,543.9l6.4-83.4c0.3-3.5-0.8-6.6-3.1-9.3c-2.3-2.7-5.3-4.2-8.7-4.5
		c-3.5-0.3-6.6,0.8-9.3,3.1c-2.7,2.3-4.2,5.3-4.5,8.7l-6.4,83.4c-0.3,3.5,0.8,6.6,3.1,9.3s5.3,4.3,8.7,4.5h1c3.3,0,6.3-1.1,8.7-3.4
		C417.9,550,419.3,547.2,419.6,543.9z M187.7,299.8l-18.6,82.6h-26.5l20.2-88.4c2.5-11.8,8.5-21.4,17.9-28.8s20.1-11.1,32.1-11.1
		h33.5c0-3.5,1.3-6.5,3.8-9c2.5-2.5,5.6-3.8,9-3.8h77c3.5,0,6.5,1.3,9,3.8c2.5,2.5,3.8,5.6,3.8,9h33.5c12,0,22.7,3.7,32.1,11.1
		s15.3,17,17.9,28.8l20.3,88.4h-26.5l-18.6-82.6c-1.5-5.9-4.5-10.7-9.1-14.4s-9.9-5.6-15.9-5.6H349c0,3.5-1.3,6.5-3.8,9
		c-2.5,2.5-5.5,3.8-9,3.8h-77c-3.5,0-6.5-1.3-9-3.8c-2.5-2.5-3.8-5.5-3.8-9h-33.5c-6,0-11.3,1.9-15.9,5.6
		C192.3,289.1,189.2,293.9,187.7,299.8z"/>
</g>
</svg>
