<?xml version="1.0" encoding="utf-8"?>
<!-- Generator: Adobe Illustrator 23.0.0, SVG Export Plug-In . SVG Version: 6.00 Build 0)  -->
<svg version="1.1" id="Layer_1" xmlns="http://www.w3.org/2000/svg" xmlns:xlink="http://www.w3.org/1999/xlink" x="0px" y="0px"
	 viewBox="0 0 128 128" style="enable-background:new 0 0 128 128;" xml:space="preserve">
<style type="text/css">
	.st0{fill:#6633FF;}
	.st1{fill:#333333;}
</style>
<title>n</title>
<path class="st0" d="M71.4,41.1L60.8,51.7l-4.2-4.2c-1.3-1.3-3.3-1.3-4.5,0c-1.3,1.3-1.3,3.3,0,4.5l0,0l6.5,6.5
	c1.3,1.3,3.3,1.3,4.5,0l0,0l12.9-12.9c1.3-1.3,1.3-3.3,0-4.5C74.7,39.8,72.7,39.8,71.4,41.1L71.4,41.1z"/>
<path class="st0" d="M54.5,90.4c-4.7,0.8-9.5-1.2-12.1-5.2L41.5,84l-11.2,23.4l10.8-0.4l6.4,8.7l12.5-26.1l-0.1-0.1L54.5,90.4z"/>
<path class="st0" d="M82,85.7L78,89.4c-2.3,2.1-5.2,3.2-8.3,3.2c-0.1,0-0.2,0-0.3,0l11.1,23.1l6.4-8.7l10.8,0.4L86.9,84.8L82,85.7z"
	/>
<path class="st1" d="M100.9,55.7L98.8,49l1.8-6.8c0.7-2.6-0.2-5.4-2.3-7.1l-5.5-4.5l-2.2-6.7c-0.8-2.6-3.1-4.4-5.8-4.7l-7-0.8
	l-5.5-4.5c-2.1-1.7-5-2-7.4-0.9l-6.3,3.1l-7-0.8c-2.7-0.3-5.3,1-6.7,3.3l-3.7,6L35,27.8c-2.4,1.2-3.9,3.7-3.9,6.4l0.2,7l-3.6,6
	c-1.4,2.3-1.3,5.2,0.2,7.4l4,5.8l0.2,7.1c0.1,2.7,1.7,5.1,4.2,6.1l6.5,2.8l4,5.8c1.5,2.2,4.2,3.4,6.8,2.9l7-1.2l6.5,2.8
	c2.5,1.1,5.3,0.6,7.3-1.3l5.2-4.8l6.9-1.2c2.7-0.5,4.8-2.4,5.5-5l1.8-6.8l5.2-4.8C101,61.1,101.8,58.2,100.9,55.7z M64,73.9
	c-13.3,0-24.1-10.8-24.1-24.1c0-13.3,10.8-24.1,24.1-24.1s24.1,10.8,24.1,24.1l0,0C88.1,63.1,77.3,73.9,64,73.9L64,73.9z"/>
</svg>
