<?xml version="1.0" encoding="utf-8"?>
<!-- Generator: Adobe Illustrator 23.0.0, SVG Export Plug-In . SVG Version: 6.00 Build 0)  -->
<svg version="1.1" id="Layer_1" xmlns="http://www.w3.org/2000/svg" xmlns:xlink="http://www.w3.org/1999/xlink" x="0px" y="0px"
	 viewBox="0 0 96 96" style="enable-background:new 0 0 96 96;" xml:space="preserve">
<style type="text/css">
	.st0{fill:#333333;}
</style>
<g id="XMLID_1_">
	<path id="XMLID_5_" class="st0" d="M48,20.5c-15.19,0-27.5,12.31-27.5,27.5S32.81,75.5,48,75.5c15.19,0,27.5-12.31,27.5-27.5
		S63.19,20.5,48,20.5z M61.51,39.35L57,60.61c-0.31,1.52-1.22,1.87-2.49,1.17l-6.88-5.08l-3.3,3.21c-0.39,0.37-0.69,0.69-1.38,0.69
		c-0.89,0-0.74-0.33-1.04-1.18l-2.34-7.69l-6.8-2.12c-1.47-0.45-1.48-1.46,0.33-2.18L59.6,37.2C60.8,36.66,61.98,37.49,61.51,39.35z
		"/>
</g>
<g id="XMLID_2_">
	<polygon id="XMLID_20_" class="st0" points="-98.74,1.32 -96.75,1.32 -96.75,11.21 -94.83,11.21 -94.83,1.32 -92.84,1.32 
		-92.84,-0.37 -98.74,-0.37 	"/>
	<path id="XMLID_19_" class="st0" d="M-86.93-6.9c0.26,0,0.47-0.07,0.62-0.21c0.15-0.15,0.23-0.35,0.23-0.6v-5.13
		c0-0.21-0.08-0.37-0.24-0.5c-0.16-0.13-0.36-0.19-0.62-0.19c-0.23,0-0.42,0.06-0.57,0.19c-0.15,0.12-0.22,0.29-0.22,0.5v5.13
		c0,0.26,0.07,0.46,0.21,0.6C-87.38-6.97-87.18-6.9-86.93-6.9z"/>
	<path id="XMLID_7_" class="st0" d="M-82.68,2.56c-0.27,0-0.53,0.07-0.79,0.2c-0.26,0.14-0.5,0.34-0.73,0.6v-3.73h-1.73v11.58h1.73
		v-0.65c0.22,0.26,0.47,0.46,0.73,0.58c0.26,0.12,0.56,0.19,0.89,0.19c0.5,0,0.89-0.16,1.16-0.48c0.27-0.32,0.4-0.79,0.4-1.39V4.7
		c0-0.7-0.14-1.23-0.43-1.59C-81.73,2.75-82.14,2.56-82.68,2.56z M-82.78,9.21c0,0.27-0.05,0.47-0.15,0.59
		c-0.1,0.12-0.25,0.18-0.46,0.18c-0.14,0-0.28-0.03-0.41-0.09c-0.13-0.06-0.27-0.16-0.4-0.3V4.26c0.12-0.12,0.23-0.21,0.35-0.26
		c0.12-0.06,0.24-0.08,0.36-0.08c0.23,0,0.41,0.07,0.53,0.22c0.12,0.15,0.18,0.37,0.18,0.66V9.21z"/>
	<path id="XMLID_8_" class="st0" d="M-88.92,9.16c-0.16,0.18-0.34,0.33-0.53,0.46c-0.19,0.12-0.35,0.18-0.48,0.18
		c-0.16,0-0.28-0.04-0.35-0.14c-0.07-0.09-0.11-0.24-0.11-0.44V2.67h-1.71v7.14c0,0.51,0.1,0.89,0.3,1.14
		c0.2,0.25,0.5,0.38,0.89,0.38c0.32,0,0.65-0.09,0.99-0.27c0.34-0.19,0.67-0.45,0.98-0.79v0.94h1.71V2.67h-1.71L-88.92,9.16
		L-88.92,9.16z"/>
	<path id="XMLID_14_" class="st0" d="M-87-28.5c-15.19,0-27.5,12.31-27.5,27.5c0,15.19,12.31,27.5,27.5,27.5
		c15.19,0,27.5-12.31,27.5-27.5C-59.5-16.19-71.81-28.5-87-28.5z M-82.56-14.92h1.92v7.21c0,0.22,0.04,0.38,0.12,0.48
		c0.08,0.1,0.21,0.15,0.39,0.15c0.14,0,0.32-0.07,0.54-0.2c0.21-0.14,0.41-0.3,0.59-0.51v-7.14h1.92v9.41H-79v-1.04
		c-0.35,0.38-0.72,0.68-1.11,0.87c-0.38,0.2-0.75,0.3-1.11,0.3c-0.44,0-0.78-0.14-1.01-0.42c-0.22-0.28-0.34-0.7-0.34-1.26V-14.92z
		 M-89.69-12.77c0-0.73,0.26-1.31,0.77-1.74c0.52-0.43,1.22-0.65,2.09-0.65c0.8,0,1.45,0.23,1.96,0.68
		c0.51,0.45,0.76,1.04,0.76,1.76v4.86c0,0.81-0.25,1.44-0.74,1.89c-0.5,0.46-1.19,0.68-2.06,0.68c-0.84,0-1.51-0.24-2.02-0.7
		c-0.5-0.48-0.76-1.11-0.76-1.91L-89.69-12.77L-89.69-12.77z M-94.93-18.26l1.4,5.09h0.14l1.34-5.09h2.2l-2.52,7.46v5.29h-2.16
		v-5.05l-2.58-7.7H-94.93z M-69.76,8.58c0,3.4-2.76,6.16-6.16,6.16h-21.41c-3.41,0-6.16-2.76-6.16-6.16V3.62
		c0-3.4,2.76-6.16,6.16-6.16h21.41c3.4,0,6.16,2.76,6.16,6.16V8.58z"/>
	<path id="XMLID_17_" class="st0" d="M-77.53,2.46c-0.77,0-1.38,0.23-1.87,0.7c-0.48,0.46-0.73,1.07-0.73,1.81V8.8
		c0,0.82,0.22,1.47,0.66,1.94c0.44,0.47,1.04,0.7,1.81,0.7c0.85,0,1.49-0.22,1.92-0.66c0.43-0.44,0.64-1.1,0.64-1.98V8.36h-1.76
		v0.39c0,0.5-0.06,0.83-0.17,0.97c-0.11,0.15-0.31,0.22-0.59,0.22c-0.27,0-0.46-0.08-0.58-0.26c-0.11-0.18-0.17-0.49-0.17-0.94V7.14
		h3.26V4.96c0-0.81-0.21-1.43-0.63-1.86C-76.15,2.67-76.75,2.46-77.53,2.46z M-76.86,5.81h-1.51V4.95c0-0.36,0.05-0.62,0.17-0.77
		c0.12-0.16,0.31-0.24,0.59-0.24c0.26,0,0.45,0.08,0.57,0.24c0.12,0.15,0.18,0.41,0.18,0.77L-76.86,5.81L-76.86,5.81z"/>
</g>
</svg>
