<?xml version="1.0" encoding="utf-8"?>
<!-- Generator: Adobe Illustrator 23.0.0, SVG Export Plug-In . SVG Version: 6.00 Build 0)  -->
<svg version="1.1" id="Layer_1" xmlns="http://www.w3.org/2000/svg" xmlns:xlink="http://www.w3.org/1999/xlink" x="0px" y="0px"
	 viewBox="0 0 424.3 282.9" style="enable-background:new 0 0 424.3 282.9;" xml:space="preserve">
<g>
	<path d="M406,234.5c-0.1-0.1-0.3-0.2-0.3-0.3c-0.6-3.5-1-3.8-4.5-3.8c-8,0-16,0-24,0c-2,0-4,0-5.9,0c-1.8,0-2.7,1-2.8,2.8
		c-0.1,1.2,0,2.5,0,3.7c0.2,6.3,0.2,12.5-3.9,18c3.6,0.6,7.1,0.3,10.6,0.4c8.5,0.2,16.4-1.8,23.7-6c3.1-1.8,6-3.6,7.1-7.3
		c0-1.3,0-2.5,0-3.7c-0.3-0.7-0.3-1.4,0-2C406,235.6,406,235.1,406,234.5z"/>
	<path d="M189.8,235.7c0.3-4.2-0.8-5.4-5-5.4c-3.2,0-6.5,0.1-9.7,0.1c-35,0-70,0-105,0.1c-16.7,0-33.5,0-50.2,0
		c-1.3,0-1.6,0.3-1.6,1.6c0.1,5.8,0.1,11.6,0,17.3c0,1.2,0.4,1.6,1.4,2.1c6.7,2.7,13.6,3.9,20.8,3.9c50.7,0,101.4,0,152.1,0
		c0.5,0,1.1,0,2,0c-3.4-3.8-4.7-8-5-12.6C189.5,240.3,189.6,238,189.8,235.7z"/>
	<path d="M68.7,226c8.9,0,17.8-0.1,26.7,0c29.3,0.4,58.5-0.8,87.8,0.6c5.1,0.3,7.1-2,7-7.1c-0.1-3.7-0.6-7.3-0.4-11
		c0.2-2.2-0.9-3.1-3-3.7c-0.8-0.2-1.7-0.2-2.5-0.2c-14.9,0-29.7,0-44.6,0.1c-15,0-30.1,0.1-45.1,0.1c-2.3,0-4.6,0.2-7-0.1
		c-2.1-0.3-3-1.1-3.4-3.2c-0.1-0.8-0.2-1.7-0.2-2.5c0-4.5,0.1-9,0.1-13.4c0-38.4,0-76.8,0-115.2c0-0.7-0.1-1.4-0.1-2
		c0-4.9-0.1-9.9,0-14.8c0.1-3.7,1.5-4.9,5.2-5c0.4,0,0.8,0,1.2,0c11.5,0,23,0.1,34.5,0.1c67.2,0,134.4,0,201.6,0c0.5,0,0.9,0,1.4,0
		c2.8,0.1,3.3,0.7,2.9,3.4c-0.6,3.9,0.9,5.6,4.9,5.7c3.4,0,6.8-0.3,10.2-0.1c5.6,0.2,6-0.2,5.9-5.8c-0.2-11.3-7.5-20.6-18.3-23.6
		c-1.2-0.3-2.4-0.2-3.5-0.8c-81.6,0-163.1,0-244.7,0c-0.1,0.5-0.5,0.3-0.8,0.4c-4,0.6-7.8,1.9-11.1,4.3c-7.1,5.2-9.8,12.6-9.8,21
		c-0.1,56-0.1,112-0.1,167.9C63.5,224.8,64.8,226,68.7,226z M207.6,33.7c2.4,0,3.7,1.4,3.7,3.9c0,2.4-1.3,3.7-3.6,3.7
		c-2.4,0-3.6-1.2-3.6-3.7C204.1,35,205.3,33.7,207.6,33.7z"/>
	<path d="M364.1,72.4c-0.5-5.5-3.3-9-8.3-10c-1.8-0.4-3.6-0.4-5.4-0.4c-37.3,0-74.6,0-112,0c-0.9,0-1.8,0-2.7,0.1
		c-6.2,0.3-9.9,3.2-11,8.9c-0.3,1.6-0.4,3.3-0.4,4.9c0,11,0,22,0,33c0,1.3,0.1,2.6,0.3,3.9c0.2,1.4,0.9,2.2,2.4,2.5s3,0.1,4.6,0.1
		c4.7,0,5.5-0.9,5.4-5.6c-0.1-6.1-0.1-12.3-0.1-18.4c0-2.9,1-4.1,3.9-4.3c4-0.3,8,0,12.1,0c28,0,56,0,84.1,0c3.8,0,7.6-0.2,11.4,0
		c2.5,0.2,3.4,1.1,3.8,3.5c0.1,0.7,0.1,1.5,0.1,2.2c0,12.1-0.1,24.3-0.1,36.4c0,31.8,0.1,63.5,0.1,95.3c0,0.9,0,1.7-0.2,2.5
		c-0.4,2.2-1.4,3.2-3.6,3.3c-1.6,0.1-3.3,0-4.9,0c-21.9,0-43.8,0-65.7-0.1c-1.5,0-3-0.1-4.4,0c-3.4,0.3-4.2,1.2-4.2,4.6
		c0,2.3,0.3,4.5,0.2,6.8c-0.1,4.7-1.3,9.2-4.5,13c1.9,0.6,3.4,0.6,5,0.6c27.1,0,54.2,0,81.3,0c0.8,0,1.6,0,2.4-0.1
		c5.3-0.4,8.7-3.2,10-8.1c0.4-1.7,0.5-3.3,0.5-5c0-55.7,0-111.4,0-167.1C364.2,74.1,364.2,73.2,364.1,72.4z M294.3,247.5
		c-3.5,0-5.4-1.9-5.3-5.3c0-3.1,2.1-5,5.4-5s5.1,2.2,5.1,6C299.4,245.9,297.5,247.5,294.3,247.5z"/>
	<path d="M264.9,187.2h0.1c0-7.8,0-15.6,0-23.5c0-10.5-0.1-21.1-0.1-31.6c0-2.3-0.3-4.5-1.3-6.6c-2.3-4.9-6.6-6.2-11.5-6.3
		c-15-0.1-30.1-0.1-45.1,0c-8.7,0-13,4.5-13.1,13.2c0,15.5,0,31,0,46.5c0,21.3,0,42.5,0.1,63.8c0,6.3,2.7,10.4,7.9,11.8
		c1.6,0.5,3.3,0.6,5,0.6c11.7,0,23.5,0.1,35.2,0.1c4,0,8,0,12.1-0.3c5.9-0.4,9.1-3.3,10.3-9.2c0.3-1.6,0.4-3.2,0.4-4.7
		C264.9,223,264.9,205.1,264.9,187.2z M229.4,247.6c-3.3,0-5.2-2-5.2-5.4c0-3.2,2.1-5.1,5.5-5.1c3.3,0,4.9,1.8,4.9,5.3
		C234.5,245.9,232.7,247.6,229.4,247.6z M253.5,230.7c-15.9-0.4-31.8-0.2-47.8-0.1c-4,0-5-1.2-4.8-5.1c0-0.7,0.1-1.4,0.1-2
		c0-24.8,0-49.7,0-74.5c0-3.9,0.7-4.6,4.7-4.6c15.7,0,31.4,0,47.1,0c0.8,0,1.6,0,2.4,0.1c1.4,0.3,2.3,1.1,2.5,2.6c0.2,2,0,4,0,5.9
		c0,11.5,0,23,0,34.5l0,0c0,6,0,12,0,18c0,7,0.1,13.9,0.1,20.9C257.8,229.7,256.8,230.8,253.5,230.7z"/>
</g>
</svg>
