<?xml version="1.0" encoding="utf-8"?>
<!-- Generator: Adobe Illustrator 23.0.0, SVG Export Plug-In . SVG Version: 6.00 Build 0)  -->
<svg version="1.1" id="Layer_1" xmlns="http://www.w3.org/2000/svg" xmlns:xlink="http://www.w3.org/1999/xlink" x="0px" y="0px"
	 viewBox="0 0 96 96" style="enable-background:new 0 0 96 96;" xml:space="preserve">
<style type="text/css">
	.st0{fill:#333333;}
</style>
<g id="XMLID_1_">
	<polygon id="XMLID_3_" class="st0" points="36.26,50.31 38.25,50.31 38.25,60.21 40.17,60.21 40.17,50.31 42.16,50.31 42.16,48.63 
		36.26,48.63 	"/>
	<path id="XMLID_4_" class="st0" d="M48.07,42.1c0.26,0,0.47-0.07,0.62-0.21c0.15-0.15,0.23-0.35,0.23-0.6v-5.13
		c0-0.21-0.08-0.37-0.24-0.5c-0.16-0.13-0.36-0.19-0.62-0.19c-0.23,0-0.42,0.06-0.57,0.19c-0.15,0.12-0.22,0.29-0.22,0.5v5.13
		c0,0.26,0.07,0.46,0.21,0.6C47.62,42.03,47.82,42.1,48.07,42.1z"/>
	<path id="XMLID_7_" class="st0" d="M52.32,51.56c-0.27,0-0.53,0.07-0.79,0.2c-0.26,0.14-0.5,0.34-0.73,0.6v-3.73h-1.73v11.58h1.73
		v-0.65c0.22,0.26,0.47,0.46,0.73,0.58c0.26,0.12,0.56,0.19,0.89,0.19c0.5,0,0.89-0.16,1.16-0.48c0.27-0.32,0.4-0.79,0.4-1.39V53.7
		c0-0.7-0.14-1.23-0.43-1.59C53.27,51.75,52.86,51.56,52.32,51.56z M52.22,58.21c0,0.27-0.05,0.47-0.15,0.59
		c-0.1,0.12-0.25,0.18-0.46,0.18c-0.14,0-0.28-0.03-0.41-0.09c-0.13-0.06-0.27-0.16-0.4-0.3v-5.32c0.12-0.12,0.23-0.21,0.35-0.26
		c0.12-0.06,0.24-0.08,0.36-0.08c0.23,0,0.41,0.07,0.53,0.22c0.12,0.15,0.18,0.37,0.18,0.66V58.21z"/>
	<path id="XMLID_8_" class="st0" d="M46.08,58.16c-0.16,0.18-0.34,0.33-0.53,0.46c-0.19,0.12-0.35,0.18-0.48,0.18
		c-0.16,0-0.28-0.04-0.35-0.14c-0.07-0.09-0.11-0.24-0.11-0.44v-6.55h-1.71v7.14c0,0.51,0.1,0.89,0.3,1.14
		c0.2,0.25,0.5,0.38,0.89,0.38c0.32,0,0.65-0.09,0.99-0.27c0.34-0.19,0.67-0.45,0.98-0.79v0.94h1.71v-8.54h-1.71L46.08,58.16
		L46.08,58.16z"/>
	<path id="XMLID_14_" class="st0" d="M48,20.5c-15.19,0-27.5,12.31-27.5,27.5c0,15.19,12.31,27.5,27.5,27.5S75.5,63.19,75.5,48
		C75.5,32.81,63.19,20.5,48,20.5z M52.44,34.08h1.92v7.21c0,0.22,0.04,0.38,0.12,0.48c0.08,0.1,0.21,0.15,0.39,0.15
		c0.14,0,0.32-0.07,0.54-0.2c0.21-0.14,0.41-0.3,0.59-0.51v-7.14h1.92v9.41H56v-1.04c-0.35,0.38-0.72,0.68-1.11,0.87
		c-0.38,0.2-0.75,0.3-1.11,0.3c-0.44,0-0.78-0.14-1.01-0.42c-0.22-0.28-0.34-0.7-0.34-1.26V34.08z M45.31,36.23
		c0-0.73,0.26-1.31,0.77-1.74c0.52-0.43,1.21-0.65,2.09-0.65c0.8,0,1.45,0.23,1.96,0.68c0.51,0.45,0.76,1.04,0.76,1.76v4.86
		c0,0.81-0.25,1.44-0.74,1.89c-0.5,0.46-1.19,0.68-2.06,0.68c-0.84,0-1.51-0.24-2.02-0.7c-0.5-0.48-0.76-1.11-0.76-1.91L45.31,36.23
		L45.31,36.23z M40.07,30.74l1.4,5.09h0.14l1.34-5.09h2.2l-2.52,7.46v5.29h-2.16v-5.05l-2.58-7.7H40.07z M65.24,57.58
		c0,3.4-2.76,6.16-6.16,6.16H37.66c-3.4,0-6.16-2.76-6.16-6.16v-4.96c0-3.41,2.76-6.16,6.16-6.16h21.41c3.4,0,6.16,2.76,6.16,6.16
		V57.58z"/>
	<path id="XMLID_17_" class="st0" d="M57.47,51.46c-0.77,0-1.38,0.23-1.87,0.7c-0.48,0.46-0.73,1.07-0.73,1.81v3.84
		c0,0.82,0.22,1.47,0.66,1.94c0.44,0.47,1.04,0.7,1.81,0.7c0.85,0,1.49-0.22,1.92-0.66c0.43-0.44,0.64-1.1,0.64-1.98v-0.44h-1.76
		v0.39c0,0.5-0.06,0.83-0.17,0.97c-0.11,0.15-0.31,0.22-0.59,0.22c-0.27,0-0.46-0.08-0.58-0.26c-0.11-0.18-0.17-0.49-0.17-0.94
		v-1.61h3.26v-2.18c0-0.81-0.21-1.43-0.63-1.86C58.85,51.67,58.25,51.46,57.47,51.46z M58.14,54.81h-1.51v-0.86
		c0-0.36,0.05-0.62,0.17-0.77c0.12-0.16,0.31-0.24,0.59-0.24c0.26,0,0.45,0.08,0.57,0.24c0.12,0.15,0.18,0.41,0.18,0.77L58.14,54.81
		L58.14,54.81z"/>
</g>
</svg>
