<?xml version="1.0" encoding="utf-8"?>
<!-- Generator: Adobe Illustrator 23.0.0, SVG Export Plug-In . SVG Version: 6.00 Build 0)  -->
<svg version="1.1" id="Layer_1" xmlns="http://www.w3.org/2000/svg" xmlns:xlink="http://www.w3.org/1999/xlink" x="0px" y="0px"
	 viewBox="0 0 595.3 841.9" style="enable-background:new 0 0 595.3 841.9;" xml:space="preserve">
<g>
	<path d="M465.3,416.5c-2.6-22.4-10.9-42.8-24-60.7c-5.3,5.8-10.2,11.3-16,17.8c0.4,0.7,1.6,2.9,2.9,5.1
		c27.5,48.6,17.1,108.8-25,145c-42.5,36.6-103.9,38.1-147.9,3.3c-23.7-18.8-38.3-43.3-42.7-73.4c-0.5-3.5,0.7-9.3,3.1-10.8
		c15-9.1,22.3-22.9,26.1-39.3c2.6-11.3,5.6-22.5,9.1-33.6c3.9-12.5,8.6-24.7,12.8-37.1c10.9-32.3-0.5-55-32.8-65.5
		c-6.4-2.1-12.7-1.1-15.6,4.9c-2,4-2.6,10.1-0.9,14c2.6,5.8,9,8.1,15.3,5.4c7.7-3.3,11.5,0.3,15.2,6.4c7.2,11.9,4.3,23.6-0.4,35.3
		c-9.9,24.9-20.1,49.7-30.2,74.5c-3.1,7.5-7.8,13.7-16.6,13.8c-8.7,0.1-13.1-6.1-16.1-13.2c-2.6-6-4.4-12.3-6.6-18.4
		c-9.1-24.4-18.6-48.7-27.1-73.4c-2.7-7.9,0.8-15.4,6.3-22c4.9-5.9,10-2.3,15.3-2.5c5-0.2,11.1-3,14.2-6.8c2.2-2.6,1.6-10-0.7-13.1
		c-2.2-3.1-8.5-5.5-12.4-4.8c-36.7,6.7-47.4,35-38.8,61.1c6.2,18.9,12.5,37.8,18.5,56.7c1.2,3.7,1.4,7.7,2,11.6
		c2.9,19.1,9.8,36.1,27.8,45.4c6.2,3.2,9.2,6.4,9.1,13c0,2,0.7,3.9,1,5.9c12.2,72.7,85.4,124.9,157.7,112.5
		C425.2,560.3,474.4,494.7,465.3,416.5z"/>
	<path d="M263.3,407.9c4.9,45.9,25.3,82.7,63.2,109.5c5.1,3.6,8.5,3.2,13.4-0.3c38.3-27,58.3-64.4,63.2-110.5c0.8-7-2-11.1-8.8-13.5
		c-16.7-5.8-33.1-12.1-49.7-18c-3.7-1.3-7.7-1.9-11.8-2.9c-4.1,1.1-8.3,1.9-12.3,3.3c-15.8,5.6-31.5,11.7-47.4,17
		C265.3,395.2,262.4,399.7,263.3,407.9z M296.1,434.6c8.7,0,17.1,0,26.5,0c0-9.6,0-18.2,0-27.2c7.2,0,13.4,0,20.6,0
		c0,8.9,0,17.5,0,27.1c9.6,0,18.3,0,27.5,0c0,7,0,13.1,0,20.2c-8.8,0-17.5,0-27.4,0c0,10,0,18.5,0,27.3c-6.8,0-12.9,0-19.9,0
		c0-8.7,0-17.1,0-26.5c-9.4,0-18,0-27.3,0C296.1,448.2,296.1,441.9,296.1,434.6z"/>
	<path d="M399,365.1c20.2-0.4,36-16.9,35.6-37c-0.4-19.7-16.7-35.5-36.5-35.4c-20.1,0.1-36.2,16.5-36,36.7
		C362.4,349.6,378.7,365.5,399,365.1z"/>
</g>
</svg>
