<?xml version="1.0" encoding="utf-8"?>
<!-- Generator: Adobe Illustrator 23.0.0, SVG Export Plug-In . SVG Version: 6.00 Build 0)  -->
<svg version="1.1" id="Layer_1" xmlns="http://www.w3.org/2000/svg" xmlns:xlink="http://www.w3.org/1999/xlink" x="0px" y="0px"
	 viewBox="0 0 595.28 841.89" style="enable-background:new 0 0 595.28 841.89;" xml:space="preserve">
<path d="M-393.58,411.8c-1.15,13.86-2.18,27.74-3.48,41.59c-4.24,45.3-5.11,90.7-4.04,136.16c0.07,3.13-0.95,4.8-3.76,6.08
	c-11.37,5.2-23.01,5.49-34.74,1.81c-1.81-0.57-4.01-3.2-4.2-5.07c-2.21-21.68-4.98-43.35-5.85-65.1
	c-1.85-46.34,0.53-92.61,4.31-138.8c2.62-32.01,5.91-63.93,13.05-95.32c1.37-6.03,3.44-11.9,5.12-17.86
	c2.41-8.55,7.9-14.18,16.31-16.73c6.43-1.95,12.92-3.87,19.51-5.08c13.83-2.55,26.47-7.77,38.1-15.59c1.18-0.79,2.34-1.61,3.54-2.37
	c0.26-0.16,0.65-0.12,1.25-0.21c-2.62,8.33-4.99,16.62-7.86,24.72c-2,5.64-1.83,10.24,3.66,13.72c1.3,0.82,2.39,1.99,3.57,2.99
	c-0.21,0.42-0.43,0.84-0.64,1.26c-5.28-0.75-10.56-1.49-17.35-2.45c1.92,8.74,3.27,17.02,5.59,25.03
	c9.01,31.12,22.76,60.3,37.52,89.01c6.95,13.52,14.32,26.82,22.61,39.78c-2.66-11.57-5.46-23.12-7.95-34.73
	c-11.85-55.39-21.59-111.06-22.97-167.89c-0.11-4.53,1.48-7.17,5.04-9.52c15.91-10.51,39.96-10.1,55.33,0.91
	c3.95,2.83,5.61,5.97,5.45,11.07c-1.54,48.21-8.82,95.67-18.29,142.84c-3.9,19.4-8.39,38.68-12.24,58.17
	c26.85-49.04,54.52-97.74,65.55-154.58c-3.66,0.47-6.37,0.79-9.08,1.17c-2.79,0.39-5.56,0.83-9.07,0.29
	c1.52-1.48,2.87-3.22,4.6-4.38c4.26-2.85,4.56-6.38,3.01-10.93c-2.78-8.18-5.15-16.51-7.85-25.33c1.02,0.52,1.74,0.78,2.35,1.21
	c12.9,9.01,27.25,14.49,42.75,16.55c19.45,2.58,31.94,12.09,35.11,32.3c3.82,24.33,8.97,48.48,11.76,72.92
	c5.92,51.88,8.28,104.01,7.54,156.23c-0.36,25.36-1.17,50.73-5.84,75.8c-0.74,3.98-2.46,5.88-6.18,6.72
	c-11.19,2.53-22.13,2.42-32.82-2.33c-2.94-1.31-4.1-2.98-4.15-6.4c-0.48-35.84-0.65-71.69-2-107.5
	c-0.88-23.38-3.56-46.68-5.57-71.65c-1.64,3.2-3.23,5.13-3.61,7.27c-1.33,7.48-3.48,15.09-3.08,22.54
	c1.1,20.7,2.44,41.46,5.31,61.97c3.78,27.03,3.96,54.11,3.83,81.26c-0.03,6.03-0.23,12.08,0.06,18.1c0.31,6.55-2.21,11.7-6.74,16.13
	c-17.55,17.16-53.24,24.78-74.26-7.82c-7.52-11.67-11.35-24.7-14.5-39.48c-0.79,2.16-1.24,3.09-1.47,4.07
	c-3.29,14.07-7.58,27.7-16.52,39.41c-18.16,23.79-53.42,24.96-72.82,2.08c-2.68-3.16-5-7.84-5.02-11.82
	c-0.15-25.37-0.39-50.78,0.96-76.09c1.06-19.79,4.6-39.44,6.65-59.2c1.61-15.53,2.95-31.15-0.53-46.63
	c-0.82-3.63-2.47-7.07-3.73-10.6C-392.75,411.57-393.16,411.68-393.58,411.8z M-293.83,482.21c4.11-0.01,7.34-3.25,7.3-6.82
	c-0.04-3.54-3.36-6.83-6.87-6.8c-3.59,0.02-6.88,3.26-6.7,6.88C-299.9,479.66-297.37,481.75-293.83,482.21z M-293.81,522.99
	c4.48-0.09,7.03-2.4,7.15-6.46c0.12-4.05-2.24-6.71-6.5-6.81c-4.21-0.1-6.76,2.28-6.9,6.41
	C-300.2,520.27-297.74,522.58-293.81,522.99z"/>
<g id="XMLID_2_">
	<path id="XMLID_10_" d="M477.33,395.27c7.09,0,13.14,2.51,18.15,7.52s7.52,11.06,7.52,18.15s-2.51,13.14-7.52,18.15
		s-11.06,7.52-18.15,7.52h-3.01l-23.06,132.76c-1.07,6.15-4.01,11.23-8.82,15.24c-4.81,4.01-10.29,6.02-16.44,6.02h-256.7
		c-6.15,0-11.63-2.01-16.44-6.02c-4.81-4.01-7.76-9.09-8.82-15.24l-23.06-132.76h-3.01c-7.09,0-13.14-2.51-18.15-7.52
		s-7.52-11.06-7.52-18.15s2.51-13.14,7.52-18.15s11.06-7.52,18.15-7.52H477.33z M189.54,555.71c3.48-0.27,6.38-1.77,8.72-4.51
		c2.34-2.74,3.38-5.85,3.11-9.33l-6.42-83.43c-0.27-3.48-1.77-6.38-4.51-8.72c-2.74-2.34-5.85-3.38-9.33-3.11
		c-3.48,0.27-6.38,1.77-8.72,4.51c-2.34,2.74-3.38,5.85-3.11,9.33l6.42,83.43c0.27,3.34,1.64,6.15,4.11,8.42
		c2.47,2.27,5.38,3.41,8.72,3.41H189.54z M271.97,542.88v-83.43c0-3.48-1.27-6.48-3.81-9.02c-2.54-2.54-5.55-3.81-9.02-3.81
		c-3.48,0-6.48,1.27-9.02,3.81c-2.54,2.54-3.81,5.55-3.81,9.02v83.43c0,3.48,1.27,6.48,3.81,9.02c2.54,2.54,5.55,3.81,9.02,3.81
		c3.48,0,6.48-1.27,9.02-3.81C270.7,549.36,271.97,546.35,271.97,542.88z M348.98,542.88v-83.43c0-3.48-1.27-6.48-3.81-9.02
		c-2.54-2.54-5.55-3.81-9.02-3.81c-3.48,0-6.48,1.27-9.02,3.81c-2.54,2.54-3.81,5.55-3.81,9.02v83.43c0,3.48,1.27,6.48,3.81,9.02
		c2.54,2.54,5.55,3.81,9.02,3.81c3.48,0,6.48-1.27,9.02-3.81C347.71,549.36,348.98,546.35,348.98,542.88z M419.57,543.88l6.42-83.43
		c0.27-3.48-0.77-6.58-3.11-9.33c-2.34-2.74-5.25-4.24-8.72-4.51c-3.48-0.27-6.58,0.77-9.33,3.11c-2.74,2.34-4.24,5.25-4.51,8.72
		l-6.42,83.43c-0.27,3.48,0.77,6.59,3.11,9.33c2.34,2.74,5.25,4.25,8.72,4.51h1c3.34,0,6.25-1.14,8.72-3.41
		C417.93,550.03,419.3,547.22,419.57,543.88z M187.74,299.81l-18.65,82.63h-26.47L162.87,294c2.54-11.77,8.49-21.36,17.85-28.78
		c9.36-7.42,20.05-11.13,32.09-11.13h33.49c0-3.48,1.27-6.48,3.81-9.02c2.54-2.54,5.55-3.81,9.02-3.81h77.01
		c3.48,0,6.48,1.27,9.02,3.81c2.54,2.54,3.81,5.55,3.81,9.02h33.49c12.03,0,22.73,3.71,32.09,11.13
		c9.36,7.42,15.31,17.01,17.85,28.78l20.26,88.44h-26.47l-18.65-82.63c-1.47-5.88-4.51-10.7-9.12-14.44
		c-4.61-3.74-9.93-5.61-15.94-5.61h-33.49c0,3.48-1.27,6.48-3.81,9.02c-2.54,2.54-5.55,3.81-9.02,3.81h-77.01
		c-3.48,0-6.48-1.27-9.02-3.81c-2.54-2.54-3.81-5.55-3.81-9.02h-33.49c-6.02,0-11.33,1.87-15.94,5.61
		C192.25,289.12,189.21,293.93,187.74,299.81z"/>
</g>
</svg>
