<svg id="Layer_1" data-name="Layer 1" xmlns="http://www.w3.org/2000/svg" viewBox="0 0 61 26.62"><defs><style>.cls-1{fill:#283d8c;}.cls-2{fill:#1d1c1c;}.cls-3{fill:#e6e6e6;}.cls-4{fill:#3baba6;}.cls-5{fill:#0f572c;}.cls-6{fill:#196433;}.cls-7{fill:#17763c;}.cls-8{fill:#1b8040;}.cls-9{fill:#198843;}.cls-10{fill:#239a48;}.cls-11{fill:#2eaa4a;}.cls-12{fill:#5fba51;}.cls-13{fill:#79c262;}.cls-14{fill:#2d2d2d;}.cls-15{fill:#3f3f40;}.cls-16{fill:#4c4d4c;}.cls-17{fill:#626463;}.cls-18{fill:#727373;}.cls-19{fill:#868686;}</style></defs><title>logo</title><path class="cls-1" d="M9.86,8.71" transform="translate(-1 -1.68)"/><path class="cls-2" d="M15.49,3.43a2.44,2.44,0,0,0-.26-.51,2.47,2.47,0,0,0-1.3-1,3,3,0,0,0-.43-.12,3.64,3.64,0,0,0-.83-.09h-.11a3.58,3.58,0,0,0-1.26.21,2.51,2.51,0,0,0-1,.59,2.82,2.82,0,0,0-.61,1A3.56,3.56,0,0,0,9.53,4.7v.78h1.19V4.38a1.54,1.54,0,0,1,1-1.46,1.62,1.62,0,0,1,.49-.08H13a1.51,1.51,0,0,1,.53.09,1.54,1.54,0,0,1,1,1.45v1.1H15.7V4.7A3.56,3.56,0,0,0,15.49,3.43Z" transform="translate(-1 -1.68)"/><path class="cls-3" d="M32.41,19.32l-1.55-1.7H28.58v-.94h2.54a1.15,1.15,0,0,0,.88-.31,1.31,1.31,0,0,0,.29-.91,1.12,1.12,0,0,0-.31-.88,1.17,1.17,0,0,0-.86-.29H27.8v5H26.75v-6.1h4.37a2.45,2.45,0,0,1,.93.16,1.86,1.86,0,0,1,.7.44,1.94,1.94,0,0,1,.44.7,2.69,2.69,0,0,1,.15.92A2.32,2.32,0,0,1,33,16.72a1.8,1.8,0,0,1-.93.74l1.84,1.86Z" transform="translate(-1 -1.68)"/><path class="cls-3" d="M35,19.32v-6.1h5.44v1.07H36v4h4.39v1.07Zm1.83-2.65v-.9H40.2v.9Z" transform="translate(-1 -1.68)"/><path class="cls-3" d="M42,19.32a.71.71,0,0,1-.43-.14.48.48,0,0,1-.18-.41.64.64,0,0,1,.22-.45l4-4.08H41.49v-1h5.33a.68.68,0,0,1,.42.14.48.48,0,0,1,.18.41.67.67,0,0,1-.21.45L43.16,18.3H47.4v1Z" transform="translate(-1 -1.68)"/><path class="cls-3" d="M26.93,27.68V26.61H31.5a.92.92,0,0,0,.66-.22.75.75,0,0,0,.23-.57.73.73,0,0,0-.23-.59,1,1,0,0,0-.66-.2H28.7a2.41,2.41,0,0,1-.78-.13,1.78,1.78,0,0,1-.58-.36A1.57,1.57,0,0,1,27,24a1.78,1.78,0,0,1-.13-.7,1.91,1.91,0,0,1,.12-.68,1.42,1.42,0,0,1,.36-.54,1.83,1.83,0,0,1,.59-.36,2.5,2.5,0,0,1,.81-.13h4.37v1.07H28.72a.77.77,0,0,0-.57.19.74.74,0,0,0-.21.55.71.71,0,0,0,.21.55.78.78,0,0,0,.56.19H31.5a2,2,0,0,1,1.41.44,1.69,1.69,0,0,1,.48,1.32,2.25,2.25,0,0,1-.11.71,1.54,1.54,0,0,1-1,.94,2.29,2.29,0,0,1-.83.14Z" transform="translate(-1 -1.68)"/><path class="cls-3" d="M36.26,27.68v-5H34V21.58h5.69v1.07H37.32v5Z" transform="translate(-1 -1.68)"/><path class="cls-3" d="M43,27.68a2.93,2.93,0,0,1-1.18-.24,2.81,2.81,0,0,1-.93-.66,2.69,2.69,0,0,1-.62-1A3.32,3.32,0,0,1,40,24.57a3.25,3.25,0,0,1,.23-1.23,2.53,2.53,0,0,1,.62-.94,2.66,2.66,0,0,1,.93-.6A3.1,3.1,0,0,1,43,21.58h1.49a3.38,3.38,0,0,1,1.21.22,2.88,2.88,0,0,1,.94.61,2.77,2.77,0,0,1,.61.95,3.14,3.14,0,0,1,.22,1.21,3.32,3.32,0,0,1-.22,1.23,2.9,2.9,0,0,1-2.76,1.88Zm1.49-1.07a2,2,0,0,0,.77-.15,2.11,2.11,0,0,0,.61-.41,1.81,1.81,0,0,0,.39-.64,2.06,2.06,0,0,0,.15-.79,2,2,0,0,0-.15-.79,1.68,1.68,0,0,0-.39-.63,2.11,2.11,0,0,0-.61-.41,2.15,2.15,0,0,0-.77-.14H43a2.14,2.14,0,0,0-.76.14,1.94,1.94,0,0,0-.6.41,2,2,0,0,0-.39.62,2.33,2.33,0,0,0,0,1.59,2.15,2.15,0,0,0,.39.64,1.87,1.87,0,0,0,1.36.56Z" transform="translate(-1 -1.68)"/><path class="cls-3" d="M54,27.68,52.43,26H50.15v-.93h2.54a1.12,1.12,0,0,0,.87-.32,1.26,1.26,0,0,0,.29-.91,1.16,1.16,0,0,0-.3-.88,1.18,1.18,0,0,0-.86-.29H49.37v5H48.31v-6.1h4.38a2.45,2.45,0,0,1,.93.16,1.94,1.94,0,0,1,.7.44,2,2,0,0,1,.43.7,2.69,2.69,0,0,1,.15.92,2.32,2.32,0,0,1-.33,1.28,1.82,1.82,0,0,1-.92.74l1.83,1.86Z" transform="translate(-1 -1.68)"/><path class="cls-3" d="M56.55,27.68v-6.1H62v1.07H57.61v4H62v1.07ZM58.39,25v-.9h3.38V25Z" transform="translate(-1 -1.68)"/><polygon class="cls-4" points="9.86 17.67 9.85 16.55 9.86 17.67 9.86 17.67"/><path class="cls-1" d="M12.23,6.37" transform="translate(-1 -1.68)"/><path class="cls-5" d="M13.52,28.3h1a6.87,6.87,0,0,0,2.38-.38,4.6,4.6,0,0,0,1.68-1.06,4.53,4.53,0,0,0,1-1.62c.07-.21.16-.5.21-.73l-.34-.6A19.05,19.05,0,0,1,13.52,28.3Z" transform="translate(-1 -1.68)"/><path class="cls-6" d="M17.07,23a2.21,2.21,0,0,1-.65,1.65,2.66,2.66,0,0,1-1.88.62H12.11a18.57,18.57,0,0,1-8.63,2.11,19.33,19.33,0,0,1-2.3-.14L1,28.3H13.52a19.05,19.05,0,0,0,6-4.39l-1.81-3.07c-.27.31-.58.65-.87.94A2.53,2.53,0,0,1,17.07,23Z" transform="translate(-1 -1.68)"/><path class="cls-7" d="M12.11,25.27H1.5l-.32,2a19.33,19.33,0,0,0,2.3.14A18.57,18.57,0,0,0,12.11,25.27Z" transform="translate(-1 -1.68)"/><path class="cls-8" d="M5.83,19.32A18.93,18.93,0,0,1,2.53,19l0,.14a1.45,1.45,0,0,0,.17.18,4.77,4.77,0,0,0,1.67,1,6.58,6.58,0,0,0,2.09.37V19.31Z" transform="translate(-1 -1.68)"/><path class="cls-8" d="M11,20.75h1.8c1.07-.48,2.76-1.55,3.18-2.55H13.22A4.76,4.76,0,0,1,11,19.32Z" transform="translate(-1 -1.68)"/><path class="cls-7" d="M16.21,18.2H16c-.42,1-2.11,2.07-3.18,2.55h1.74a2.85,2.85,0,0,1,1.88.56,1.91,1.91,0,0,1,.38.47c.29-.29.6-.63.87-.94Z" transform="translate(-1 -1.68)"/><path class="cls-9" d="M6.44,19.31V18.18A2.16,2.16,0,0,1,5,17.65a2,2,0,0,1-.58-1.41c-.45-.16-.89-.34-1.32-.53L2.53,19a18.93,18.93,0,0,0,3.3.29Z" transform="translate(-1 -1.68)"/><path class="cls-10" d="M4.41,16.09a2.62,2.62,0,0,1,.06-.57,1.83,1.83,0,0,1,.52-1,1.76,1.76,0,0,1,.3-.24A2.44,2.44,0,0,1,6.61,14H7.83a16.66,16.66,0,0,1-4.07-2.09l-.51,2.93-.15.9c.43.19.87.37,1.32.53C4.42,16.19,4.41,16.15,4.41,16.09Z" transform="translate(-1 -1.68)"/><path class="cls-11" d="M17.86,14a1.1,1.1,0,0,0,.37-.06,1.21,1.21,0,0,0,.83-.94,16.78,16.78,0,0,1-3.64.41,16.25,16.25,0,0,1-8.59-2.45H3.92l-.16,1A16.66,16.66,0,0,0,7.83,14Z" transform="translate(-1 -1.68)"/><path class="cls-12" d="M19.06,13a1.64,1.64,0,0,0,0-.22v-.12a16.36,16.36,0,0,1-6.27-1.7h-6a16.25,16.25,0,0,0,8.59,2.45A16.78,16.78,0,0,0,19.06,13Z" transform="translate(-1 -1.68)"/><path class="cls-13" d="M19.08,12.15A1.21,1.21,0,0,0,18,11l-.18,0h-5a16.36,16.36,0,0,0,6.27,1.7Z" transform="translate(-1 -1.68)"/><path class="cls-9" d="M13.22,18.2H11v1.12A4.76,4.76,0,0,0,13.22,18.2Z" transform="translate(-1 -1.68)"/><path d="M24.17,27.26c-.26.36-.53.71-.82,1h1Z" transform="translate(-1 -1.68)"/><path class="cls-2" d="M23.78,25a17,17,0,0,1-1.58,2.27l.61,1h.54c.29-.33.56-.68.82-1Z" transform="translate(-1 -1.68)"/><path class="cls-14" d="M21.15,25.49l1.05,1.78A17,17,0,0,0,23.78,25l-.57-3.35A17.51,17.51,0,0,1,21.15,25.49Z" transform="translate(-1 -1.68)"/><path class="cls-15" d="M22.26,20a17.11,17.11,0,0,1-2.13,3.78l1,1.74a17.51,17.51,0,0,0,2.06-3.84l0-.18Z" transform="translate(-1 -1.68)"/><path class="cls-16" d="M21.17,18.19a16.79,16.79,0,0,1-2.1,3.75l1.06,1.81A17.11,17.11,0,0,0,22.26,20Z" transform="translate(-1 -1.68)"/><path class="cls-16" d="M22.45,17.23l-.35-2a17.87,17.87,0,0,1-.88,2.89A5.1,5.1,0,0,0,22.45,17.23Z" transform="translate(-1 -1.68)"/><path class="cls-17" d="M21.08,10.64a17.22,17.22,0,0,1-3,9.69l.95,1.61a16.79,16.79,0,0,0,2.1-3.75l0-.07.09,0a17.87,17.87,0,0,0,.88-2.89l-1.18-6.9A18.18,18.18,0,0,1,21.08,10.64Z" transform="translate(-1 -1.68)"/><path class="cls-18" d="M19.06,10.59l.2.17a2.33,2.33,0,0,1,.64,1.74,2.38,2.38,0,0,1-.59,1.72,1.9,1.9,0,0,1-.89.53A17.44,17.44,0,0,1,17,18.35l1.17,2a17.22,17.22,0,0,0,3-9.69,18.18,18.18,0,0,0-.16-2.35l-.19-1.1a1.29,1.29,0,0,0-1.28-1.08h-.84a17,17,0,0,1,.46,3.94C19.07,10.23,19.06,10.41,19.06,10.59Z" transform="translate(-1 -1.68)"/><path class="cls-19" d="M6.32,24.53h4.56V21.59a17.32,17.32,0,0,1-4.55,2.58Z" transform="translate(-1 -1.68)"/><path class="cls-19" d="M17.41,6.11A16,16,0,0,1,17.51,8a17.84,17.84,0,0,1-.14,2.21h.43a2,2,0,0,1,1.26.43c0-.18,0-.36,0-.54a17,17,0,0,0-.46-3.94h-1.2Z" transform="translate(-1 -1.68)"/><path class="cls-19" d="M17.8,14.83H16.09a17.29,17.29,0,0,1-1.41,2.61h1.73l.54.92a17.44,17.44,0,0,0,1.47-3.6A2.45,2.45,0,0,1,17.8,14.83Z" transform="translate(-1 -1.68)"/><path class="cls-18" d="M16.78,6.11h-.91c0,.14,0,.29,0,.43a17.3,17.3,0,0,1-.38,3.62h1.87A17.84,17.84,0,0,0,17.51,8a16,16,0,0,0-.1-1.84h-.63Z" transform="translate(-1 -1.68)"/><path class="cls-18" d="M13.77,14.83A17.23,17.23,0,0,1,12,17.46l2.67,0a17.29,17.29,0,0,0,1.41-2.61Z" transform="translate(-1 -1.68)"/><path class="cls-18" d="M10.86,18.74A17.5,17.5,0,0,1,6.31,22v.9h0v1.23a17.32,17.32,0,0,0,4.55-2.58V18.74Z" transform="translate(-1 -1.68)"/><path class="cls-17" d="M15.5,10.16a17.3,17.3,0,0,0,.38-3.62c0-.14,0-.29,0-.43H14.24a17.4,17.4,0,0,1-.87,4Z" transform="translate(-1 -1.68)"/><path class="cls-17" d="M10.86,18.74V17.46H12a17.23,17.23,0,0,0,1.76-2.63H10.89a17.29,17.29,0,0,1-4.57,4.25v1.7h0V22a17.5,17.5,0,0,0,4.55-3.3" transform="translate(-1 -1.68)"/><path class="cls-16" d="M6.32,15.75V18h0v.22h0v.86a17.29,17.29,0,0,0,4.57-4.25H7.34C7,15.15,6.67,15.46,6.32,15.75Z" transform="translate(-1 -1.68)"/><path class="cls-16" d="M10.74,10.15h2.63a17.4,17.4,0,0,0,.87-4H12.15A17,17,0,0,1,10.74,10.15Z" transform="translate(-1 -1.68)"/><path class="cls-15" d="M6.32,14.83v.92c.35-.29.69-.6,1-.92Z" transform="translate(-1 -1.68)"/><path class="cls-15" d="M9.82,6.11a17.4,17.4,0,0,1-1.71,4h2.63a17,17,0,0,0,1.41-4Z" transform="translate(-1 -1.68)"/><path class="cls-14" d="M8.43,6.11H8a17.36,17.36,0,0,1-2,4h2a17.4,17.4,0,0,0,1.71-4Z" transform="translate(-1 -1.68)"/><path class="cls-2" d="M3.94,10.14H6.08a17.36,17.36,0,0,0,2-4H6A17.31,17.31,0,0,1,3.94,10.14Z" transform="translate(-1 -1.68)"/><path d="M5.67,6.11A1.31,1.31,0,0,0,4.38,7.19l-.48,3h0A17.31,17.31,0,0,0,6,6.11Z" transform="translate(-1 -1.68)"/></svg>